<svg width="416" height="369" viewBox="0 0 416 369" fill="none" xmlns="http://www.w3.org/2000/svg">
<g filter="url(#filter0_bdddddd_61_18026)">
<rect x="89" y="2" width="243" height="168" rx="10" fill="white" fill-opacity="0.8"/>
</g>
<path d="M103.763 23.9119V22.8182H111.399V23.9119H108.198V33H106.965V23.9119H103.763ZM115.138 33.1591C114.449 33.1591 113.844 32.995 113.323 32.6669C112.806 32.3388 112.402 31.8797 112.11 31.2898C111.822 30.6998 111.678 30.0104 111.678 29.2216C111.678 28.4261 111.822 27.7318 112.11 27.1385C112.402 26.5452 112.806 26.0845 113.323 25.7564C113.844 25.4283 114.449 25.2642 115.138 25.2642C115.827 25.2642 116.431 25.4283 116.948 25.7564C117.468 26.0845 117.872 26.5452 118.161 27.1385C118.452 27.7318 118.598 28.4261 118.598 29.2216C118.598 30.0104 118.452 30.6998 118.161 31.2898C117.872 31.8797 117.468 32.3388 116.948 32.6669C116.431 32.995 115.827 33.1591 115.138 33.1591ZM115.138 32.1051C115.662 32.1051 116.093 31.9709 116.431 31.7024C116.769 31.4339 117.019 31.081 117.181 30.6435C117.344 30.206 117.425 29.732 117.425 29.2216C117.425 28.7112 117.344 28.2356 117.181 27.7947C117.019 27.3539 116.769 26.9976 116.431 26.7259C116.093 26.4541 115.662 26.3182 115.138 26.3182C114.614 26.3182 114.184 26.4541 113.845 26.7259C113.507 26.9976 113.257 27.3539 113.095 27.7947C112.932 28.2356 112.851 28.7112 112.851 29.2216C112.851 29.732 112.932 30.206 113.095 30.6435C113.257 31.081 113.507 31.4339 113.845 31.7024C114.184 31.9709 114.614 32.1051 115.138 32.1051ZM123.71 25.3636V26.358H119.753V25.3636H123.71ZM120.906 23.5341H122.08V30.8125C122.08 31.1439 122.128 31.3925 122.224 31.5582C122.323 31.7206 122.449 31.83 122.602 31.8864C122.757 31.9394 122.921 31.9659 123.094 31.9659C123.223 31.9659 123.329 31.9593 123.412 31.946C123.495 31.9295 123.561 31.9162 123.611 31.9062L123.85 32.9602C123.77 32.9901 123.659 33.0199 123.516 33.0497C123.374 33.0829 123.193 33.0994 122.975 33.0994C122.643 33.0994 122.318 33.0282 122 32.8857C121.685 32.7431 121.423 32.526 121.215 32.2344C121.009 31.9427 120.906 31.5748 120.906 31.1307V23.5341ZM127.722 33.179C127.238 33.179 126.799 33.0878 126.405 32.9055C126.011 32.7199 125.697 32.4531 125.465 32.1051C125.233 31.7538 125.117 31.3295 125.117 30.8324C125.117 30.3949 125.203 30.0402 125.376 29.7685C125.548 29.4934 125.778 29.2779 126.067 29.1222C126.355 28.9664 126.673 28.8504 127.021 28.7741C127.373 28.6946 127.726 28.6316 128.08 28.5852C128.544 28.5256 128.921 28.4808 129.209 28.451C129.501 28.4179 129.713 28.3632 129.845 28.2869C129.981 28.2107 130.049 28.0781 130.049 27.8892V27.8494C130.049 27.3589 129.915 26.9777 129.646 26.706C129.381 26.4342 128.979 26.2983 128.438 26.2983C127.878 26.2983 127.439 26.4209 127.121 26.6662C126.803 26.9115 126.579 27.1733 126.45 27.4517L125.336 27.054C125.535 26.59 125.8 26.2287 126.131 25.9702C126.466 25.7083 126.831 25.526 127.225 25.4233C127.623 25.3172 128.014 25.2642 128.399 25.2642C128.644 25.2642 128.926 25.294 129.244 25.3537C129.565 25.41 129.875 25.5277 130.173 25.7067C130.475 25.8857 130.725 26.1558 130.924 26.517C131.123 26.8783 131.222 27.3622 131.222 27.9688V33H130.049V31.9659H129.989C129.91 32.1316 129.777 32.3089 129.592 32.4979C129.406 32.6868 129.159 32.8475 128.851 32.9801C128.543 33.1127 128.167 33.179 127.722 33.179ZM127.901 32.125C128.365 32.125 128.756 32.0339 129.075 31.8516C129.396 31.6693 129.638 31.4339 129.801 31.1456C129.966 30.8572 130.049 30.554 130.049 30.2358V29.1619C129.999 29.2216 129.89 29.2763 129.721 29.326C129.555 29.3724 129.363 29.4138 129.144 29.4503C128.929 29.4834 128.718 29.5133 128.513 29.5398C128.311 29.563 128.147 29.5829 128.021 29.5994C127.716 29.6392 127.431 29.7038 127.166 29.7933C126.904 29.8795 126.692 30.0104 126.529 30.1861C126.37 30.3584 126.291 30.5937 126.291 30.892C126.291 31.2997 126.441 31.608 126.743 31.8168C127.048 32.0223 127.434 32.125 127.901 32.125ZM134.537 22.8182V33H133.364V22.8182H134.537ZM140.783 33V22.8182H144.342C145.052 22.8182 145.637 22.9408 146.097 23.1861C146.558 23.428 146.901 23.7545 147.127 24.1655C147.352 24.5732 147.465 25.0256 147.465 25.5227C147.465 25.9602 147.387 26.3215 147.231 26.6065C147.078 26.8916 146.876 27.117 146.624 27.2827C146.376 27.4484 146.106 27.571 145.814 27.6506V27.75C146.126 27.7699 146.439 27.8793 146.754 28.0781C147.069 28.277 147.332 28.562 147.544 28.9332C147.756 29.3045 147.862 29.7585 147.862 30.2955C147.862 30.8059 147.746 31.2649 147.514 31.6726C147.282 32.0803 146.916 32.4034 146.416 32.642C145.915 32.8807 145.264 33 144.462 33H140.783ZM142.016 31.9062H144.462C145.267 31.9062 145.839 31.7505 146.177 31.4389C146.518 31.1241 146.689 30.7429 146.689 30.2955C146.689 29.9508 146.601 29.6326 146.426 29.3409C146.25 29.0459 146 28.8106 145.675 28.6349C145.35 28.456 144.966 28.3665 144.521 28.3665H142.016V31.9062ZM142.016 27.2926H144.303C144.674 27.2926 145.009 27.2197 145.307 27.0739C145.609 26.928 145.847 26.7225 146.023 26.4574C146.202 26.1922 146.291 25.8807 146.291 25.5227C146.291 25.0753 146.136 24.6958 145.824 24.3842C145.512 24.0694 145.019 23.9119 144.342 23.9119H142.016V27.2926ZM151.976 33.179C151.492 33.179 151.053 33.0878 150.659 32.9055C150.264 32.7199 149.951 32.4531 149.719 32.1051C149.487 31.7538 149.371 31.3295 149.371 30.8324C149.371 30.3949 149.457 30.0402 149.63 29.7685C149.802 29.4934 150.032 29.2779 150.321 29.1222C150.609 28.9664 150.927 28.8504 151.275 28.7741C151.627 28.6946 151.98 28.6316 152.334 28.5852C152.798 28.5256 153.174 28.4808 153.463 28.451C153.754 28.4179 153.967 28.3632 154.099 28.2869C154.235 28.2107 154.303 28.0781 154.303 27.8892V27.8494C154.303 27.3589 154.169 26.9777 153.9 26.706C153.635 26.4342 153.232 26.2983 152.692 26.2983C152.132 26.2983 151.693 26.4209 151.375 26.6662C151.057 26.9115 150.833 27.1733 150.704 27.4517L149.59 27.054C149.789 26.59 150.054 26.2287 150.385 25.9702C150.72 25.7083 151.085 25.526 151.479 25.4233C151.877 25.3172 152.268 25.2642 152.652 25.2642C152.898 25.2642 153.179 25.294 153.498 25.3537C153.819 25.41 154.129 25.5277 154.427 25.7067C154.729 25.8857 154.979 26.1558 155.178 26.517C155.377 26.8783 155.476 27.3622 155.476 27.9688V33H154.303V31.9659H154.243C154.164 32.1316 154.031 32.3089 153.846 32.4979C153.66 32.6868 153.413 32.8475 153.105 32.9801C152.797 33.1127 152.42 33.179 151.976 33.179ZM152.155 32.125C152.619 32.125 153.01 32.0339 153.329 31.8516C153.65 31.6693 153.892 31.4339 154.054 31.1456C154.22 30.8572 154.303 30.554 154.303 30.2358V29.1619C154.253 29.2216 154.144 29.2763 153.975 29.326C153.809 29.3724 153.617 29.4138 153.398 29.4503C153.183 29.4834 152.972 29.5133 152.767 29.5398C152.565 29.563 152.401 29.5829 152.275 29.5994C151.97 29.6392 151.685 29.7038 151.419 29.7933C151.158 29.8795 150.946 30.0104 150.783 30.1861C150.624 30.3584 150.544 30.5937 150.544 30.892C150.544 31.2997 150.695 31.608 150.997 31.8168C151.302 32.0223 151.688 32.125 152.155 32.125ZM158.791 22.8182V33H157.618V22.8182H158.791ZM163.187 33.179C162.703 33.179 162.264 33.0878 161.87 32.9055C161.475 32.7199 161.162 32.4531 160.93 32.1051C160.698 31.7538 160.582 31.3295 160.582 30.8324C160.582 30.3949 160.668 30.0402 160.841 29.7685C161.013 29.4934 161.243 29.2779 161.532 29.1222C161.82 28.9664 162.138 28.8504 162.486 28.7741C162.838 28.6946 163.191 28.6316 163.545 28.5852C164.009 28.5256 164.385 28.4808 164.674 28.451C164.965 28.4179 165.178 28.3632 165.31 28.2869C165.446 28.2107 165.514 28.0781 165.514 27.8892V27.8494C165.514 27.3589 165.38 26.9777 165.111 26.706C164.846 26.4342 164.443 26.2983 163.903 26.2983C163.343 26.2983 162.904 26.4209 162.586 26.6662C162.267 26.9115 162.044 27.1733 161.915 27.4517L160.801 27.054C161 26.59 161.265 26.2287 161.596 25.9702C161.931 25.7083 162.296 25.526 162.69 25.4233C163.088 25.3172 163.479 25.2642 163.863 25.2642C164.109 25.2642 164.39 25.294 164.709 25.3537C165.03 25.41 165.34 25.5277 165.638 25.7067C165.94 25.8857 166.19 26.1558 166.389 26.517C166.588 26.8783 166.687 27.3622 166.687 27.9688V33H165.514V31.9659H165.454C165.375 32.1316 165.242 32.3089 165.057 32.4979C164.871 32.6868 164.624 32.8475 164.316 32.9801C164.008 33.1127 163.631 33.179 163.187 33.179ZM163.366 32.125C163.83 32.125 164.221 32.0339 164.54 31.8516C164.861 31.6693 165.103 31.4339 165.265 31.1456C165.431 30.8572 165.514 30.554 165.514 30.2358V29.1619C165.464 29.2216 165.355 29.2763 165.186 29.326C165.02 29.3724 164.828 29.4138 164.609 29.4503C164.394 29.4834 164.183 29.5133 163.978 29.5398C163.776 29.563 163.611 29.5829 163.486 29.5994C163.181 29.6392 162.896 29.7038 162.63 29.7933C162.369 29.8795 162.156 30.0104 161.994 30.1861C161.835 30.3584 161.755 30.5937 161.755 30.892C161.755 31.2997 161.906 31.608 162.208 31.8168C162.513 32.0223 162.899 32.125 163.366 32.125ZM170.002 28.4062V33H168.829V25.3636H169.962V26.5568H170.062C170.241 26.169 170.512 25.8575 170.877 25.6222C171.242 25.3835 171.712 25.2642 172.289 25.2642C172.806 25.2642 173.258 25.3703 173.646 25.5824C174.034 25.7912 174.336 26.1094 174.551 26.5369C174.766 26.9612 174.874 27.4981 174.874 28.1477V33H173.701V28.2273C173.701 27.6274 173.545 27.16 173.234 26.8253C172.922 26.4872 172.494 26.3182 171.951 26.3182C171.576 26.3182 171.242 26.3994 170.947 26.5618C170.655 26.7242 170.425 26.9612 170.256 27.2727C170.087 27.5843 170.002 27.9621 170.002 28.4062ZM180.12 33.1591C179.405 33.1591 178.788 32.9901 178.271 32.652C177.754 32.3139 177.356 31.8482 177.078 31.255C176.799 30.6617 176.66 29.9839 176.66 29.2216C176.66 28.446 176.803 27.7616 177.088 27.1683C177.376 26.5717 177.777 26.1061 178.291 25.7713C178.808 25.4332 179.411 25.2642 180.101 25.2642C180.638 25.2642 181.121 25.3636 181.552 25.5625C181.983 25.7614 182.336 26.0398 182.611 26.3977C182.886 26.7557 183.057 27.1733 183.123 27.6506H181.95C181.861 27.3026 181.662 26.9943 181.353 26.7259C181.049 26.4541 180.638 26.3182 180.12 26.3182C179.663 26.3182 179.262 26.4375 178.917 26.6761C178.576 26.9115 178.309 27.2446 178.117 27.6754C177.928 28.103 177.834 28.6051 177.834 29.1818C177.834 29.7718 177.926 30.2855 178.112 30.723C178.301 31.1605 178.566 31.5002 178.907 31.7422C179.252 31.9841 179.656 32.1051 180.12 32.1051C180.425 32.1051 180.702 32.0521 180.951 31.946C181.199 31.84 181.41 31.6875 181.582 31.4886C181.754 31.2898 181.877 31.0511 181.95 30.7727H183.123C183.057 31.2235 182.893 31.6295 182.631 31.9908C182.373 32.3487 182.03 32.6338 181.602 32.8459C181.178 33.0547 180.684 33.1591 180.12 33.1591ZM188.04 33.1591C187.304 33.1591 186.67 32.9967 186.136 32.6719C185.606 32.3438 185.196 31.8864 184.908 31.2997C184.623 30.7098 184.481 30.0237 184.481 29.2415C184.481 28.4593 184.623 27.7699 184.908 27.1733C185.196 26.5734 185.598 26.1061 186.111 25.7713C186.628 25.4332 187.232 25.2642 187.921 25.2642C188.319 25.2642 188.711 25.3305 189.099 25.4631C189.487 25.5956 189.84 25.8111 190.158 26.1094C190.476 26.4044 190.73 26.7955 190.919 27.2827C191.108 27.7699 191.202 28.3698 191.202 29.0824V29.5795H185.316V28.5653H190.009C190.009 28.1345 189.923 27.75 189.75 27.4119C189.581 27.0739 189.339 26.8071 189.025 26.6115C188.713 26.416 188.345 26.3182 187.921 26.3182C187.454 26.3182 187.049 26.4342 186.708 26.6662C186.37 26.8949 186.11 27.1932 185.927 27.5611C185.745 27.929 185.654 28.3234 185.654 28.7443V29.4205C185.654 29.9972 185.753 30.486 185.952 30.8871C186.154 31.2848 186.434 31.5881 186.792 31.7969C187.15 32.0024 187.566 32.1051 188.04 32.1051C188.348 32.1051 188.627 32.062 188.875 31.9759C189.127 31.8864 189.344 31.7538 189.527 31.5781C189.709 31.3991 189.85 31.1771 189.949 30.9119L191.083 31.2301C190.964 31.6146 190.763 31.9527 190.481 32.2443C190.2 32.5327 189.852 32.758 189.437 32.9205C189.023 33.0795 188.557 33.1591 188.04 33.1591Z" fill="black"/>
<path d="M109.136 62.592V60.696H111.064V62.592H109.136ZM109.136 49.792V47.896H111.064V49.792H109.136ZM110.144 61.24C109.333 61.24 108.608 61.0907 107.968 60.792C107.328 60.4933 106.803 60.072 106.392 59.528C105.987 58.984 105.728 58.3387 105.616 57.592L107.52 57.288C107.669 57.944 107.989 58.4667 108.48 58.856C108.976 59.24 109.568 59.432 110.256 59.432C110.917 59.432 111.461 59.2773 111.888 58.968C112.315 58.6533 112.528 58.256 112.528 57.776C112.528 57.44 112.427 57.168 112.224 56.96C112.021 56.7467 111.696 56.5707 111.248 56.432L108.472 55.568C106.856 55.0667 106.048 54.0853 106.048 52.624C106.048 51.9413 106.211 51.3467 106.536 50.84C106.867 50.328 107.331 49.936 107.928 49.664C108.525 49.3867 109.229 49.2507 110.04 49.256C110.792 49.2613 111.461 49.3973 112.048 49.664C112.64 49.9307 113.131 50.3147 113.52 50.816C113.915 51.3173 114.195 51.92 114.36 52.624L112.384 52.984C112.309 52.6053 112.163 52.272 111.944 51.984C111.725 51.696 111.451 51.472 111.12 51.312C110.789 51.152 110.421 51.0667 110.016 51.056C109.627 51.0507 109.277 51.112 108.968 51.24C108.659 51.3627 108.413 51.5387 108.232 51.768C108.051 51.992 107.96 52.2453 107.96 52.528C107.96 52.8427 108.085 53.112 108.336 53.336C108.592 53.56 108.995 53.752 109.544 53.912L111.616 54.512C112.613 54.8 113.331 55.192 113.768 55.688C114.211 56.1787 114.432 56.832 114.432 57.648C114.432 58.3627 114.253 58.9893 113.896 59.528C113.539 60.0667 113.037 60.488 112.392 60.792C111.747 61.0907 110.997 61.24 110.144 61.24ZM120.951 61V59.096H115.847V57.296L119.535 49.48H121.735L118.047 57.296H120.951V54.296H122.903V57.296H123.983V59.096H122.903V61H120.951ZM125.429 63.04L125.541 62.208C125.786 62.2293 125.981 62.1867 126.125 62.08C126.269 61.9787 126.365 61.832 126.413 61.64C126.466 61.4533 126.479 61.24 126.453 61H125.429V58.944H127.405V61.08C127.405 61.7787 127.239 62.3067 126.909 62.664C126.578 63.0213 126.085 63.1467 125.429 63.04ZM130.128 60.984V59.304L135.056 54.912C135.44 54.5707 135.707 54.248 135.856 53.944C136.005 53.64 136.08 53.3467 136.08 53.064C136.08 52.68 135.997 52.3387 135.832 52.04C135.667 51.736 135.437 51.496 135.144 51.32C134.856 51.144 134.523 51.056 134.144 51.056C133.744 51.056 133.389 51.1493 133.08 51.336C132.776 51.5173 132.539 51.76 132.368 52.064C132.197 52.368 132.117 52.696 132.128 53.048H130.144C130.144 52.28 130.315 51.6107 130.656 51.04C131.003 50.4693 131.477 50.0267 132.08 49.712C132.688 49.3973 133.389 49.24 134.184 49.24C134.92 49.24 135.581 49.4053 136.168 49.736C136.755 50.0613 137.216 50.5147 137.552 51.096C137.888 51.672 138.056 52.336 138.056 53.088C138.056 53.6373 137.981 54.0987 137.832 54.472C137.683 54.8453 137.459 55.1893 137.16 55.504C136.867 55.8187 136.501 56.168 136.064 56.552L132.568 59.648L132.392 59.168H138.056V60.984H130.128ZM144.123 61.24C143.307 61.24 142.587 61.0667 141.963 60.72C141.339 60.368 140.851 59.88 140.499 59.256C140.153 58.632 139.979 57.912 139.979 57.096V53.384C139.979 52.568 140.153 51.848 140.499 51.224C140.851 50.6 141.339 50.1147 141.963 49.768C142.587 49.416 143.307 49.24 144.123 49.24C144.939 49.24 145.657 49.416 146.275 49.768C146.899 50.1147 147.387 50.6 147.739 51.224C148.091 51.848 148.267 52.568 148.267 53.384V57.096C148.267 57.912 148.091 58.632 147.739 59.256C147.387 59.88 146.899 60.368 146.275 60.72C145.657 61.0667 144.939 61.24 144.123 61.24ZM144.123 59.408C144.529 59.408 144.897 59.312 145.227 59.12C145.558 58.9227 145.819 58.6613 146.011 58.336C146.203 58.0053 146.299 57.6373 146.299 57.232V53.24C146.299 52.8293 146.203 52.4613 146.011 52.136C145.819 51.8053 145.558 51.544 145.227 51.352C144.897 51.1547 144.529 51.056 144.123 51.056C143.718 51.056 143.35 51.1547 143.019 51.352C142.689 51.544 142.427 51.8053 142.235 52.136C142.043 52.4613 141.947 52.8293 141.947 53.24V57.232C141.947 57.6373 142.043 58.0053 142.235 58.336C142.427 58.6613 142.689 58.9227 143.019 59.12C143.35 59.312 143.718 59.408 144.123 59.408ZM154.655 61.24C153.839 61.24 153.119 61.0667 152.495 60.72C151.871 60.368 151.383 59.88 151.031 59.256C150.684 58.632 150.511 57.912 150.511 57.096V53.384C150.511 52.568 150.684 51.848 151.031 51.224C151.383 50.6 151.871 50.1147 152.495 49.768C153.119 49.416 153.839 49.24 154.655 49.24C155.471 49.24 156.188 49.416 156.807 49.768C157.431 50.1147 157.919 50.6 158.271 51.224C158.623 51.848 158.799 52.568 158.799 53.384V57.096C158.799 57.912 158.623 58.632 158.271 59.256C157.919 59.88 157.431 60.368 156.807 60.72C156.188 61.0667 155.471 61.24 154.655 61.24ZM154.655 59.408C155.06 59.408 155.428 59.312 155.759 59.12C156.089 58.9227 156.351 58.6613 156.543 58.336C156.735 58.0053 156.831 57.6373 156.831 57.232V53.24C156.831 52.8293 156.735 52.4613 156.543 52.136C156.351 51.8053 156.089 51.544 155.759 51.352C155.428 51.1547 155.06 51.056 154.655 51.056C154.249 51.056 153.881 51.1547 153.551 51.352C153.22 51.544 152.959 51.8053 152.767 52.136C152.575 52.4613 152.479 52.8293 152.479 53.24V57.232C152.479 57.6373 152.575 58.0053 152.767 58.336C152.959 58.6613 153.22 58.9227 153.551 59.12C153.881 59.312 154.249 59.408 154.655 59.408Z" fill="black"/>
<path d="M167.107 59.258V56.931H164.78V55.7025H167.107V53.382H168.336V55.7025H170.65V56.931H168.336V59.258H167.107ZM173.962 61V53.3495L172.207 54.422V52.693L173.962 51.64H175.561V61H173.962ZM181.924 61V59.453H177.777V57.9905L180.773 51.64H182.561L179.564 57.9905H181.924V55.553H183.51V57.9905H184.387V59.453H183.51V61H181.924ZM187.246 61L186.206 59.96L194.533 51.64L195.573 52.6865L187.246 61ZM193.623 61.195C193.194 61.195 192.801 61.091 192.446 60.883C192.095 60.6707 191.813 60.389 191.601 60.038C191.389 59.6827 191.283 59.2883 191.283 58.855C191.283 58.4303 191.391 58.0403 191.608 57.685C191.824 57.3297 192.11 57.0458 192.466 56.8335C192.821 56.6212 193.207 56.515 193.623 56.515C194.052 56.515 194.444 56.6212 194.799 56.8335C195.154 57.0415 195.436 57.3232 195.644 57.6785C195.856 58.0295 195.963 58.4217 195.963 58.855C195.963 59.2883 195.856 59.6827 195.644 60.038C195.436 60.389 195.154 60.6707 194.799 60.883C194.444 61.091 194.052 61.195 193.623 61.195ZM193.623 59.856C193.8 59.856 193.965 59.8105 194.117 59.7195C194.273 59.6285 194.396 59.5072 194.487 59.3555C194.578 59.2038 194.624 59.037 194.624 58.855C194.624 58.673 194.578 58.5062 194.487 58.3545C194.396 58.2028 194.273 58.0815 194.117 57.9905C193.965 57.8995 193.8 57.854 193.623 57.854C193.441 57.854 193.274 57.8995 193.122 57.9905C192.97 58.0815 192.847 58.2028 192.752 58.3545C192.661 58.5062 192.615 58.673 192.615 58.855C192.615 59.037 192.661 59.2038 192.752 59.3555C192.847 59.5072 192.97 59.6285 193.122 59.7195C193.274 59.8105 193.441 59.856 193.623 59.856ZM188.156 56.125C187.727 56.125 187.335 56.021 186.98 55.813C186.624 55.6007 186.34 55.319 186.128 54.968C185.92 54.6127 185.816 54.2183 185.816 53.785C185.816 53.3603 185.924 52.9703 186.141 52.615C186.358 52.2597 186.644 51.9758 186.999 51.7635C187.354 51.5512 187.74 51.445 188.156 51.445C188.585 51.445 188.975 51.5512 189.326 51.7635C189.681 51.9715 189.965 52.2532 190.178 52.6085C190.39 52.9595 190.496 53.3517 190.496 53.785C190.496 54.2183 190.39 54.6127 190.178 54.968C189.965 55.319 189.681 55.6007 189.326 55.813C188.975 56.021 188.585 56.125 188.156 56.125ZM188.156 54.786C188.338 54.786 188.505 54.7405 188.657 54.6495C188.808 54.5585 188.93 54.4372 189.021 54.2855C189.112 54.1338 189.157 53.967 189.157 53.785C189.157 53.603 189.112 53.4362 189.021 53.2845C188.93 53.1328 188.808 53.0115 188.657 52.9205C188.505 52.8295 188.338 52.784 188.156 52.784C187.974 52.784 187.807 52.8295 187.656 52.9205C187.504 53.0115 187.383 53.1328 187.292 53.2845C187.201 53.4362 187.155 53.603 187.155 53.785C187.155 53.967 187.201 54.1338 187.292 54.2855C187.383 54.4372 187.504 54.5585 187.656 54.6495C187.807 54.7405 187.974 54.786 188.156 54.786Z" fill="#20A39E"/>
<path d="M105.443 74.4H106.243V80H105.323V75.384L104.195 75.704L103.971 74.92L105.443 74.4ZM110.98 79.312C110.596 79.84 110.057 80.104 109.364 80.104C108.67 80.104 108.129 79.84 107.74 79.312C107.356 78.784 107.164 78.08 107.164 77.2C107.164 76.32 107.356 75.616 107.74 75.088C108.129 74.56 108.67 74.296 109.364 74.296C110.057 74.296 110.596 74.56 110.98 75.088C111.369 75.616 111.564 76.32 111.564 77.2C111.564 78.08 111.369 78.784 110.98 79.312ZM109.364 79.208C109.78 79.208 110.097 79.0347 110.316 78.688C110.534 78.3413 110.644 77.8453 110.644 77.2C110.644 76.5547 110.534 76.0587 110.316 75.712C110.097 75.3653 109.78 75.192 109.364 75.192C108.953 75.192 108.636 75.3653 108.412 75.712C108.193 76.0587 108.084 76.5547 108.084 77.2C108.084 77.8453 108.193 78.3413 108.412 78.688C108.636 79.0347 108.953 79.208 109.364 79.208ZM115.923 80H114.891L113.251 78.152V80H112.387V74.4H113.251V77.768L114.803 76H115.859L114.099 77.96L115.923 80Z" fill="#718EBF"/>
<path d="M111.746 97.136V97.992H111.106V99H110.178V97.992H107.426V97.136L109.354 93.4H110.354L108.426 97.136H110.178V95.68H111.106V97.136H111.746ZM115.923 99H114.891L113.251 97.152V99H112.387V93.4H113.251V96.768L114.803 95H115.859L114.099 96.96L115.923 99Z" fill="#718EBF"/>
<path d="M107.896 118V117.28L109.848 115.288C110.323 114.813 110.56 114.403 110.56 114.056C110.56 113.784 110.478 113.573 110.312 113.424C110.152 113.269 109.947 113.192 109.696 113.192C109.227 113.192 108.88 113.424 108.656 113.888L107.88 113.432C108.056 113.059 108.304 112.776 108.624 112.584C108.944 112.392 109.299 112.296 109.688 112.296C110.179 112.296 110.6 112.451 110.952 112.76C111.304 113.069 111.48 113.491 111.48 114.024C111.48 114.595 111.163 115.203 110.528 115.848L109.264 117.112H111.584V118H107.896ZM115.923 118H114.891L113.251 116.152V118H112.387V112.4H113.251V115.768L114.803 114H115.859L114.099 115.96L115.923 118Z" fill="#718EBF"/>
<path d="M115.097 137.312C114.713 137.84 114.174 138.104 113.481 138.104C112.788 138.104 112.246 137.84 111.857 137.312C111.473 136.784 111.281 136.08 111.281 135.2C111.281 134.32 111.473 133.616 111.857 133.088C112.246 132.56 112.788 132.296 113.481 132.296C114.174 132.296 114.713 132.56 115.097 133.088C115.486 133.616 115.681 134.32 115.681 135.2C115.681 136.08 115.486 136.784 115.097 137.312ZM113.481 137.208C113.897 137.208 114.214 137.035 114.433 136.688C114.652 136.341 114.761 135.845 114.761 135.2C114.761 134.555 114.652 134.059 114.433 133.712C114.214 133.365 113.897 133.192 113.481 133.192C113.07 133.192 112.753 133.365 112.529 133.712C112.31 134.059 112.201 134.555 112.201 135.2C112.201 135.845 112.31 136.341 112.529 136.688C112.753 137.035 113.07 137.208 113.481 137.208Z" fill="#718EBF"/>
<path d="M134.6 150.104C134.061 150.104 133.602 149.981 133.224 149.736C132.85 149.491 132.589 149.155 132.44 148.728L133.232 148.264C133.456 148.893 133.92 149.208 134.624 149.208C134.97 149.208 135.229 149.141 135.4 149.008C135.576 148.869 135.664 148.691 135.664 148.472C135.664 148.243 135.57 148.069 135.384 147.952C135.197 147.829 134.866 147.696 134.392 147.552C134.125 147.472 133.909 147.397 133.744 147.328C133.578 147.259 133.402 147.163 133.216 147.04C133.034 146.912 132.898 146.755 132.808 146.568C132.717 146.381 132.672 146.163 132.672 145.912C132.672 145.416 132.848 145.024 133.2 144.736C133.552 144.443 133.976 144.296 134.472 144.296C134.92 144.296 135.312 144.405 135.648 144.624C135.984 144.843 136.242 145.144 136.424 145.528L135.648 145.976C135.413 145.453 135.021 145.192 134.472 145.192C134.205 145.192 133.992 145.256 133.832 145.384C133.672 145.507 133.592 145.675 133.592 145.888C133.592 146.096 133.672 146.261 133.832 146.384C133.997 146.501 134.293 146.627 134.72 146.76C134.933 146.829 135.088 146.883 135.184 146.92C135.285 146.952 135.424 147.005 135.6 147.08C135.781 147.155 135.917 147.229 136.008 147.304C136.098 147.379 136.194 147.472 136.296 147.584C136.402 147.696 136.477 147.824 136.52 147.968C136.562 148.112 136.584 148.275 136.584 148.456C136.584 148.963 136.4 149.365 136.032 149.664C135.669 149.957 135.192 150.104 134.6 150.104Z" fill="#718EBF"/>
<path d="M124 131C124 129.343 125.343 128 127 128H141C142.657 128 144 129.343 144 131V140H124V131Z" fill="#3AAFDA" fill-opacity="0.3"/>
<path d="M161.182 144.4V150H160.262V146.008L158.558 148.824H158.446L156.742 146V150H155.822V144.4H156.814L158.502 147.2L160.198 144.4H161.182Z" fill="#718EBF"/>
<path d="M148 125C148 123.343 149.343 122 151 122H165C166.657 122 168 123.343 168 125V140H148V125Z" fill="#3AAFDA" fill-opacity="0.3"/>
<path d="M184.54 144.4V145.28H182.964V150H182.044V145.28H180.46V144.4H184.54Z" fill="#718EBF"/>
<path d="M172 101C172 99.3431 173.343 98 175 98H189C190.657 98 192 99.3431 192 101V140H172V101Z" fill="#3AAFDA" fill-opacity="0.3"/>
<path d="M203.748 150L202.164 144.4H203.132L204.308 148.776L205.58 144.4H206.428L207.692 148.776L208.868 144.4H209.836L208.252 150H207.188L206.004 145.912L204.812 150H203.748Z" fill="#718EBF"/>
<path d="M196 112C196 110.343 197.343 109 199 109H213C214.657 109 216 110.343 216 112V140H196V112Z" fill="#3734A9"/>
<path d="M232.54 144.4V145.28H230.964V150H230.044V145.28H228.46V144.4H232.54Z" fill="#718EBF"/>
<path d="M220 84C220 82.3431 221.343 81 223 81H237C238.657 81 240 82.3431 240 84V140H220V84Z" fill="#3734A9"/>
<path d="M257.27 145.28H254.91V146.848H257.19V147.728H254.91V150H253.99V144.4H257.27V145.28Z" fill="#718EBF"/>
<path d="M244 131C244 129.343 245.343 128 247 128H261C262.657 128 264 129.343 264 131V140H244V131Z" fill="#3AAFDA" fill-opacity="0.3"/>
<path d="M278.6 150.104C278.061 150.104 277.602 149.981 277.224 149.736C276.85 149.491 276.589 149.155 276.44 148.728L277.232 148.264C277.456 148.893 277.92 149.208 278.624 149.208C278.97 149.208 279.229 149.141 279.4 149.008C279.576 148.869 279.664 148.691 279.664 148.472C279.664 148.243 279.57 148.069 279.384 147.952C279.197 147.829 278.866 147.696 278.392 147.552C278.125 147.472 277.909 147.397 277.744 147.328C277.578 147.259 277.402 147.163 277.216 147.04C277.034 146.912 276.898 146.755 276.808 146.568C276.717 146.381 276.672 146.163 276.672 145.912C276.672 145.416 276.848 145.024 277.2 144.736C277.552 144.443 277.976 144.296 278.472 144.296C278.92 144.296 279.312 144.405 279.648 144.624C279.984 144.843 280.242 145.144 280.424 145.528L279.648 145.976C279.413 145.453 279.021 145.192 278.472 145.192C278.205 145.192 277.992 145.256 277.832 145.384C277.672 145.507 277.592 145.675 277.592 145.888C277.592 146.096 277.672 146.261 277.832 146.384C277.997 146.501 278.293 146.627 278.72 146.76C278.933 146.829 279.088 146.883 279.184 146.92C279.285 146.952 279.424 147.005 279.6 147.08C279.781 147.155 279.917 147.229 280.008 147.304C280.098 147.379 280.194 147.472 280.296 147.584C280.402 147.696 280.477 147.824 280.52 147.968C280.562 148.112 280.584 148.275 280.584 148.456C280.584 148.963 280.4 149.365 280.032 149.664C279.669 149.957 279.192 150.104 278.6 150.104Z" fill="#718EBF"/>
<path d="M268 112C268 110.343 269.343 109 271 109H285C286.657 109 288 110.343 288 112V140H268V112Z" fill="#3734A9"/>
<path d="M303.6 150.104C303.061 150.104 302.602 149.981 302.224 149.736C301.85 149.491 301.589 149.155 301.44 148.728L302.232 148.264C302.456 148.893 302.92 149.208 303.624 149.208C303.97 149.208 304.229 149.141 304.4 149.008C304.576 148.869 304.664 148.691 304.664 148.472C304.664 148.243 304.57 148.069 304.384 147.952C304.197 147.829 303.866 147.696 303.392 147.552C303.125 147.472 302.909 147.397 302.744 147.328C302.578 147.259 302.402 147.163 302.216 147.04C302.034 146.912 301.898 146.755 301.808 146.568C301.717 146.381 301.672 146.163 301.672 145.912C301.672 145.416 301.848 145.024 302.2 144.736C302.552 144.443 302.976 144.296 303.472 144.296C303.92 144.296 304.312 144.405 304.648 144.624C304.984 144.843 305.242 145.144 305.424 145.528L304.648 145.976C304.413 145.453 304.021 145.192 303.472 145.192C303.205 145.192 302.992 145.256 302.832 145.384C302.672 145.507 302.592 145.675 302.592 145.888C302.592 146.096 302.672 146.261 302.832 146.384C302.997 146.501 303.293 146.627 303.72 146.76C303.933 146.829 304.088 146.883 304.184 146.92C304.285 146.952 304.424 147.005 304.6 147.08C304.781 147.155 304.917 147.229 305.008 147.304C305.098 147.379 305.194 147.472 305.296 147.584C305.402 147.696 305.477 147.824 305.52 147.968C305.562 148.112 305.584 148.275 305.584 148.456C305.584 148.963 305.4 149.365 305.032 149.664C304.669 149.957 304.192 150.104 303.6 150.104Z" fill="#718EBF"/>
<path d="M292 97C292 95.3431 293.343 94 295 94H309C310.657 94 312 95.3431 312 97V140H292V97Z" fill="#3734A9"/>
<defs>
<filter id="filter0_bdddddd_61_18026" x="0.90284" y="-62" width="419.194" height="430.219" filterUnits="userSpaceOnUse" color-interpolation-filters="sRGB">
<feFlood flood-opacity="0" result="BackgroundImageFix"/>
<feGaussianBlur in="BackgroundImageFix" stdDeviation="32"/>
<feComposite in2="SourceAlpha" operator="in" result="effect1_backgroundBlur_61_18026"/>
<feColorMatrix in="SourceAlpha" type="matrix" values="0 0 0 0 0 0 0 0 0 0 0 0 0 0 0 0 0 0 127 0" result="hardAlpha"/>
<feOffset dy="2.03929"/>
<feGaussianBlur stdDeviation="1.73339"/>
<feColorMatrix type="matrix" values="0 0 0 0 0 0 0 0 0 0 0 0 0 0 0 0 0 0 0.01 0"/>
<feBlend mode="normal" in2="effect1_backgroundBlur_61_18026" result="effect2_dropShadow_61_18026"/>
<feColorMatrix in="SourceAlpha" type="matrix" values="0 0 0 0 0 0 0 0 0 0 0 0 0 0 0 0 0 0 127 0" result="hardAlpha"/>
<feOffset dy="8.97286"/>
<feGaussianBlur stdDeviation="3.58914"/>
<feColorMatrix type="matrix" values="0 0 0 0 0 0 0 0 0 0 0 0 0 0 0 0 0 0 0.0117778 0"/>
<feBlend mode="normal" in2="effect2_dropShadow_61_18026" result="effect3_dropShadow_61_18026"/>
<feColorMatrix in="SourceAlpha" type="matrix" values="0 0 0 0 0 0 0 0 0 0 0 0 0 0 0 0 0 0 127 0" result="hardAlpha"/>
<feOffset dy="22.0243"/>
<feGaussianBlur stdDeviation="7.15789"/>
<feColorMatrix type="matrix" values="0 0 0 0 0 0 0 0 0 0 0 0 0 0 0 0 0 0 0.015 0"/>
<feBlend mode="normal" in2="effect3_dropShadow_61_18026" result="effect4_dropShadow_61_18026"/>
<feColorMatrix in="SourceAlpha" type="matrix" values="0 0 0 0 0 0 0 0 0 0 0 0 0 0 0 0 0 0 127 0" result="hardAlpha"/>
<feOffset dy="42.4172"/>
<feGaussianBlur stdDeviation="14.0303"/>
<feColorMatrix type="matrix" values="0 0 0 0 0 0 0 0 0 0 0 0 0 0 0 0 0 0 0.0182222 0"/>
<feBlend mode="normal" in2="effect4_dropShadow_61_18026" result="effect5_dropShadow_61_18026"/>
<feColorMatrix in="SourceAlpha" type="matrix" values="0 0 0 0 0 0 0 0 0 0 0 0 0 0 0 0 0 0 127 0" result="hardAlpha"/>
<feOffset dy="71.375"/>
<feGaussianBlur stdDeviation="25.797"/>
<feColorMatrix type="matrix" values="0 0 0 0 0 0 0 0 0 0 0 0 0 0 0 0 0 0 0.0227778 0"/>
<feBlend mode="normal" in2="effect5_dropShadow_61_18026" result="effect6_dropShadow_61_18026"/>
<feColorMatrix in="SourceAlpha" type="matrix" values="0 0 0 0 0 0 0 0 0 0 0 0 0 0 0 0 0 0 127 0" result="hardAlpha"/>
<feOffset dy="110.121"/>
<feGaussianBlur stdDeviation="44.0486"/>
<feColorMatrix type="matrix" values="0 0 0 0 0 0 0 0 0 0 0 0 0 0 0 0 0 0 0.03 0"/>
<feBlend mode="normal" in2="effect6_dropShadow_61_18026" result="effect7_dropShadow_61_18026"/>
<feBlend mode="normal" in="SourceGraphic" in2="effect7_dropShadow_61_18026" result="shape"/>
</filter>
</defs>
</svg>
