<svg width="165" height="34" viewBox="0 0 165 34" fill="none" xmlns="http://www.w3.org/2000/svg">
<path d="M51.7133 13.8008L51.3073 15.4776C49.6832 14.0871 47.5718 13.2691 45.2981 13.2691C40.1415 13.2691 36 17.3997 36 22.5937C36 27.7467 40.1415 31.9182 45.2981 31.9182C47.5718 31.9182 49.6832 31.1003 51.3073 29.7098V31.4274H55.6112V13.8008H51.7133ZM49.1553 25.9881C48.3027 26.8879 47.1658 27.3786 45.9477 27.3786C44.7296 27.3786 43.5927 26.8879 42.6995 25.9881C41.8468 25.0475 41.3596 23.8615 41.3596 22.5937C41.3596 21.3259 41.8468 20.0989 42.6995 19.1992C43.5927 18.2995 44.7296 17.8087 45.9477 17.8087C47.1658 17.8087 48.3027 18.2995 49.1553 19.1992C50.0486 20.0989 50.4952 21.3259 50.4952 22.5937C50.4952 23.8615 50.0486 25.0475 49.1553 25.9881Z" fill="white"/>
<path d="M74.3996 31.4274H79.1907V1H74.3996V15.9274C72.7349 14.2916 70.4205 13.2691 67.9031 13.2691C62.7871 13.2691 58.6456 17.4815 58.6456 22.6346C58.6456 27.8285 62.7871 32 67.9031 32C70.4205 32 72.7349 30.9776 74.3996 29.3417V31.4274ZM64.0052 22.6346C64.0052 21.3668 64.4925 20.1807 65.3451 19.2401C66.1978 18.3404 67.3347 17.8496 68.5528 17.8496C69.7709 17.8496 70.9483 18.3404 71.801 19.2401C72.6537 20.1807 73.1409 21.3668 73.1409 22.6346C73.1409 23.9024 72.6537 25.1293 71.801 26.029C70.9483 26.9288 69.7709 27.4195 68.5528 27.4195C67.3347 27.4195 66.1978 26.9288 65.3451 26.029C64.4925 25.1293 64.0052 23.9024 64.0052 22.6346Z" fill="white"/>
<path d="M89.1407 2.75857H83.4563V31.3865H99.738V25.7018H89.1407V2.75857Z" fill="white"/>
<path d="M119.319 13.8008L118.913 15.4776C117.289 14.0871 115.177 13.2691 112.904 13.2691C107.747 13.2691 103.605 17.3997 103.605 22.5937C103.605 27.7467 107.747 31.9182 112.904 31.9182C115.177 31.9182 117.289 31.1003 118.913 29.7098V31.4274H123.217V13.8008H119.319ZM116.761 25.9881C115.908 26.8879 114.771 27.3786 113.553 27.3786C112.335 27.3786 111.198 26.8879 110.305 25.9881C109.452 25.0475 108.965 23.8615 108.965 22.5937C108.965 21.3259 109.452 20.0989 110.305 19.1992C111.198 18.2995 112.335 17.8087 113.553 17.8087C114.771 17.8087 115.908 18.2995 116.761 19.1992C117.654 20.0989 118.101 21.3259 118.101 22.5937C118.101 23.8615 117.654 25.0475 116.761 25.9881Z" fill="white"/>
<path d="M132.246 1H127.049V31.4274H132.246V29.2599C133.911 30.8958 136.225 31.9182 138.743 31.9182C143.859 31.9182 148 27.7467 148 22.5528C148 17.3997 143.859 13.1873 138.743 13.1873C136.225 13.1873 133.911 14.2098 132.246 15.8456V1ZM141.301 25.9472C140.448 26.847 139.311 27.3377 138.093 27.3377C136.875 27.3377 135.697 26.847 134.845 25.9472C133.992 25.0475 133.505 23.8206 133.505 22.5528C133.505 21.285 133.992 20.0989 134.845 19.1583C135.697 18.2586 136.875 17.7678 138.093 17.7678C139.311 17.7678 140.448 18.2586 141.301 19.1583C142.153 20.0989 142.64 21.285 142.64 22.5528C142.64 23.8206 142.153 25.0475 141.301 25.9472Z" fill="white"/>
<path d="M149.59 28.3602C151.71 30.4802 154.67 31.4802 157.79 31.4802C161.31 31.4802 164.15 28.8402 164.15 26.0802C164.15 23.1202 161.87 21.4802 159.43 20.7602C157.43 20.0802 155.55 19.8402 155.75 18.5602C155.99 16.7202 158.27 16.5202 161.63 18.9202L163.95 15.2802C161.63 13.8802 160.03 13.2402 157.07 13.2402C153.79 13.2402 150.95 15.3202 150.95 18.4802C150.95 21.8002 153.27 22.8402 156.63 23.8802C157.91 24.2802 159.15 24.6802 159.15 25.9602C159.15 28.1202 155.31 28.0002 152.79 25.1202L149.59 28.3602Z" fill="white"/>
<path d="M30.629 0L16.5 12.9016L2.32258 0H0V34H33V0H30.629ZM6.77419 27.2097V13.1926L16.5 22.0685L26.2258 13.1926V27.2097H6.77419Z" fill="#E16F38"/>
</svg>
