<svg width="704" height="601" viewBox="0 0 704 601" fill="none" xmlns="http://www.w3.org/2000/svg">
<path d="M385.157 581.981C384.432 578.687 383.19 575.6 381.879 572.501C381.752 572.191 381.51 572.042 381.165 572.1C379.98 572.318 378.784 572.57 377.588 572.834C375.609 570.665 373.757 568.392 371.767 566.246C371.571 566.04 372.722 563.779 372.63 563.056C372.043 558.797 367.729 559.773 364.98 561.311C363.162 562.332 359.998 564.892 361.31 567.394C361.92 568.553 362.943 568.978 364.186 569.219C365.359 569.448 365.969 576.197 366.015 577.218C366.015 577.276 366.038 577.333 366.061 577.379C365.106 577.896 364.105 578.355 363.001 578.619C362.69 578.687 362.529 579.032 362.598 579.319C363.473 582.716 365.532 585.574 366.855 588.799C366.866 588.833 366.889 588.856 366.901 588.879C366.993 589.132 367.223 589.327 367.556 589.201C373.285 587.02 379.026 584.839 384.754 582.67C385.065 582.555 385.226 582.291 385.157 581.97V581.981ZM383.915 581.786C382.615 582.28 381.326 582.773 380.026 583.267C381.062 581.35 381.879 579.319 382.534 577.241C383.075 578.733 383.547 580.248 383.915 581.798V581.786ZM382.293 576.61C382.005 576.449 381.556 576.495 381.43 576.92C380.728 579.135 379.854 581.293 378.703 583.313C378.611 583.485 378.611 583.646 378.658 583.783C377.392 584.265 376.127 584.747 374.861 585.229C377.093 581.89 377.438 577.62 378.934 573.959C378.98 573.856 378.98 573.764 378.968 573.672C379.658 573.546 380.326 573.419 380.981 573.305C381.441 574.395 381.879 575.497 382.304 576.61H382.293ZM373.4 576.759C372.422 580.157 371.939 583.714 370.352 586.917C370.352 586.917 370.352 586.94 370.352 586.951C369.696 587.204 369.052 587.445 368.396 587.697C369.869 584.128 370.524 580.283 371.583 576.576C371.675 576.243 371.479 576.002 371.215 575.91C373.032 575.038 375.114 574.464 377.197 574.028C377.392 574.108 377.588 574.051 377.749 573.924C376.368 577.482 376.012 581.614 373.814 584.793C373.596 585.115 373.768 585.425 374.044 585.562C373.32 585.838 372.607 586.113 371.882 586.389C373.136 583.405 373.653 580.191 374.551 577.081C374.758 576.369 373.642 576.071 373.446 576.771L373.4 576.759ZM370.409 576.289C370.409 576.289 370.432 576.289 370.444 576.266C369.42 579.881 368.787 583.68 367.349 587.169C366.153 584.644 364.657 582.257 363.852 579.571C366.222 578.86 368.247 577.494 370.398 576.277L370.409 576.289ZM365.658 568.588C365.624 568.324 365.336 568.186 365.106 568.163C361.229 567.853 362.012 564.766 364.404 562.998C365.359 562.287 366.567 561.724 367.66 561.277C370.524 560.106 372.837 563.411 370.271 565.546C370.03 565.753 370.064 566.154 370.271 566.361C372.388 568.53 374.298 570.871 376.311 573.121C374.689 573.511 373.078 573.959 371.525 574.51C369.938 575.061 368.546 575.956 367.131 576.794C366.935 574.016 366.061 571.342 365.67 568.588H365.658Z" fill="#DAB95B" fill-opacity="0.4"/>
<path d="M702.784 0.00904329C697.389 0.927218 692.074 2.48812 686.794 3.91129C678.258 6.2182 669.757 8.65137 661.256 11.0845C646.347 15.354 631.484 19.9793 616.414 23.675C615.874 23.8013 615.85 24.662 616.414 24.7768C618.554 25.2244 620.728 25.3392 622.891 25.5917C624.95 25.8212 626.986 26.1885 629.011 26.5902C630.679 26.9116 632.347 27.2788 634.003 27.6576C634.947 27.8642 636.661 27.7724 637.086 28.702C639.583 34.1996 641.262 40.007 643.356 45.6538C643.356 45.803 643.413 45.9407 643.506 46.0555C644.702 49.2462 646.036 52.609 647.739 55.6045C647.762 55.639 647.785 55.9029 647.808 55.9029C647.911 55.9029 648.038 55.8685 648.188 55.8685C648.337 55.8915 648.51 55.7423 648.636 55.6045C655.907 48.4428 664.304 42.6009 672.645 36.7819C672.691 36.759 672.702 36.6901 672.737 36.6557C675.267 37.6772 677.798 38.6527 680.387 39.5135C682.078 40.0759 682.733 38.4002 683.573 37.1607C685.92 33.6716 688.025 29.9989 690.142 26.3607C694.72 18.4644 699.54 10.4303 703.014 1.97164C703.187 1.55846 703.337 1.14529 703.475 0.720632C703.624 0.273022 703.164 -0.0598198 702.761 0.00904329H702.784ZM646.612 50.5775C646.612 50.5775 646.704 50.4857 646.738 50.4169C647.336 49.2577 648.107 48.2132 648.912 47.1918C648.74 49.2921 648.475 51.3924 648.026 53.4813C647.52 52.5287 647.049 51.5646 646.612 50.5775ZM649.05 45.1832C647.969 46.5031 646.899 47.8345 646.048 49.315C645.542 48.1444 645.07 46.9622 644.621 45.7686C646.658 44.0814 647.773 41.5106 649.28 39.284C649.223 41.2466 649.165 43.2206 649.062 45.1832H649.05ZM649.338 37.2525C648.464 38.2051 647.716 39.261 647.06 40.3973C646.232 41.8204 645.438 43.4961 644.207 44.6553C643.954 43.9781 643.713 43.2895 643.471 42.6124C643.483 42.5779 643.506 42.555 643.529 42.5205C644.955 38.4461 647.279 34.8538 649.672 31.2959C649.499 33.2699 649.407 35.2555 649.338 37.2525ZM641.918 38.1248C641.918 38.1248 641.953 38.1018 641.964 38.0789C643.552 35.5424 644.736 32.8223 646.025 30.1367C647.049 28.0019 648.211 24.9145 649.936 23.2503C650.028 23.17 650.063 23.0667 650.086 22.9749C651.087 22.5273 652.099 22.1026 653.1 21.7354C654.584 21.1959 656.068 20.6336 657.54 20.0826C655.446 22.1141 653.686 24.4669 651.639 26.5558C651.581 26.6132 651.558 26.6705 651.524 26.7279C651.133 26.923 650.753 27.1182 650.362 27.3133C650.362 27.3133 650.362 27.3133 650.339 27.3247C650.304 27.3477 650.281 27.3707 650.258 27.3936C650.12 27.4969 650.074 27.6346 650.074 27.7838C650.017 28.1396 649.971 28.4954 649.925 28.8512C647.302 32.742 644.621 36.6098 642.884 40.9711C642.562 40.03 642.24 39.0774 641.906 38.1363L641.918 38.1248ZM640.238 33.3847C640.457 33.4536 640.71 33.4077 640.848 33.1207C642.056 30.5957 643.229 27.9675 644.978 25.7638C645.105 25.6032 645.128 25.4081 645.082 25.2474C646.025 24.8227 646.957 24.3866 647.9 23.9619C646.945 25.431 646.243 27.1985 645.473 28.6676C644.081 31.3303 642.953 34.1078 641.435 36.7016C641.044 35.5883 640.653 34.4865 640.25 33.3847H640.238ZM659.197 20.0712C659.427 19.8761 659.415 19.6236 659.3 19.4284C660.105 19.13 660.911 18.8316 661.716 18.5217C660.796 19.8187 659.967 21.1959 658.76 22.2518C658.46 22.5158 658.564 22.8716 658.805 23.0667C657.31 23.8242 655.815 24.5702 654.319 25.3162C655.884 23.5143 657.391 21.655 659.197 20.0712ZM663.821 17.7183C664.718 17.374 665.616 17.0297 666.513 16.6854C665.765 17.9249 664.937 19.0956 664.005 20.1974C663.913 20.3007 663.89 20.4155 663.879 20.5188C662.705 21.1156 661.52 21.7009 660.347 22.2977C661.624 20.8746 662.51 19.1186 663.821 17.7183ZM667.79 16.1919C668.572 15.8935 669.354 15.5951 670.137 15.2852C670.436 15.1704 670.735 15.0556 671.046 14.9409C670.436 15.7672 669.849 16.6165 668.998 17.2134C668.699 17.4199 668.687 17.7643 668.825 18.0168C667.905 18.4873 666.985 18.9579 666.053 19.417C666.686 18.5677 667.284 17.6954 667.813 16.7772C667.939 16.5591 667.905 16.3526 667.79 16.1919ZM672.967 14.3785C673.036 14.3096 673.082 14.2293 673.105 14.1489C673.634 13.9423 674.163 13.7358 674.692 13.5292C674.301 13.9538 673.898 14.3785 673.461 14.7687C673.151 15.0442 673.277 15.4229 673.542 15.6065C672.645 16.0656 671.747 16.5247 670.838 16.9723C671.563 16.123 672.173 15.1704 672.955 14.3555L672.967 14.3785ZM677.235 12.5421C678.12 12.1978 679.006 11.8306 679.892 11.4748C679.202 12.0945 678.523 12.7258 677.856 13.38C677.833 13.4029 677.821 13.4374 677.81 13.4603C676.878 13.9423 675.935 14.4129 675.003 14.8835C675.751 14.1145 676.452 13.2882 677.235 12.5421ZM681.951 11.1993C682.17 11.0157 682.181 10.7746 682.078 10.591C682.871 10.2582 683.654 9.90238 684.447 9.54659C684.148 9.87943 683.826 10.2008 683.481 10.4877C683.412 10.5451 683.366 10.6025 683.343 10.6713C682.733 10.9698 682.135 11.2796 681.525 11.578C681.663 11.4518 681.813 11.3255 681.951 11.1993ZM686.748 8.50216C689.969 6.98717 693.121 5.31151 696.377 3.87686C693.041 5.72468 689.636 7.48069 686.23 9.20227C686.403 8.97273 686.576 8.74318 686.748 8.50216ZM631.634 25.9475C629.195 25.4195 626.687 24.9604 624.214 24.6161C622.626 24.3981 620.947 24.2718 619.336 24.0882C633.394 20.5188 647.509 16.2034 661.52 12.1863C669.838 9.79908 678.178 7.43479 686.518 5.16231C689.9 4.24413 693.305 3.29152 696.722 2.45369C693.765 3.7047 690.913 5.18526 688.037 6.59695C682.469 9.34 676.636 11.5207 670.85 13.7817C668.365 14.7457 665.88 15.7098 663.395 16.6624C663.326 16.6624 663.257 16.6969 663.188 16.7428C660.059 17.9479 656.919 19.13 653.767 20.2663C651.132 21.2189 648.51 22.1715 645.956 23.3077C642.965 24.6391 640.169 26.2115 636.914 26.7853C636.822 26.7968 636.741 26.8312 636.684 26.8771C635.131 26.2688 632.75 26.1885 631.645 25.9475H631.634ZM637.892 27.7379C639.778 27.3477 641.619 26.7165 643.448 25.959C642.033 27.9904 640.952 30.2399 639.882 32.4665C639.295 30.9286 638.674 29.4021 637.995 27.9101C637.972 27.8527 637.926 27.7953 637.892 27.7379ZM649.211 53.378C649.752 50.7497 650.086 48.0985 650.293 45.4243C650.339 45.298 650.35 45.1832 650.316 45.057C650.488 42.5664 650.58 40.0759 650.649 37.5968C650.81 37.4247 650.96 37.241 651.133 37.0804C651.57 36.6901 651.156 36.1163 650.684 36.1277C650.684 35.8408 650.695 35.5424 650.707 35.2555C650.73 34.5898 650.879 30.8827 651.04 29.2414C651.063 29.1955 651.098 29.1611 651.121 29.1152C651.259 28.9086 651.236 28.7135 651.133 28.5643C651.144 28.4954 651.167 28.461 651.179 28.461C652.87 28.7709 654.515 29.3906 656.125 29.9645C661.325 31.7894 666.387 34.0389 671.494 36.1277C663.775 41.5105 656.045 46.9048 649.188 53.378H649.211ZM682.227 37.1033C681.974 37.4821 681.71 37.8493 681.433 38.2051C681.261 38.4347 681.134 38.4921 681.123 38.515C680.433 38.3773 679.754 38.0559 679.11 37.8034C675.969 36.6098 672.863 35.3014 669.746 34.0274C665.995 32.501 662.245 30.986 658.46 29.5743C656.528 28.8512 654.503 28.0134 652.455 27.5428C661.152 23.1815 669.838 18.8087 678.5 14.39C686.288 10.4188 694.26 6.59695 701.772 2.08642C699.621 7.80206 696.204 13.2652 693.271 18.5332C689.785 24.8112 686.277 31.1696 682.227 37.1033Z" fill="#DAB95B" fill-opacity="0.4"/>
<path d="M656.045 35.3703C657.276 37.2296 658.737 38.9053 660.071 40.6957C660.508 41.281 661.509 40.7072 661.06 40.1219C659.726 38.3429 658.265 36.6557 657.034 34.7964C656.631 34.1881 655.631 34.762 656.045 35.3818V35.3703Z" fill="#DAB95B" fill-opacity="0.4"/>
<path d="M662.59 39.0429C663.131 39.5479 663.948 38.733 663.407 38.228C662.211 37.1147 661.141 35.8752 660.036 34.6816C659.53 34.1306 658.725 34.9455 659.22 35.4964C660.324 36.7015 661.394 37.9296 662.59 39.0429Z" fill="#DAB95B" fill-opacity="0.4"/>
<path d="M681.882 22.6305C680.743 24.0422 679.558 25.408 678.327 26.7394C677.821 27.2788 678.638 28.0937 679.144 27.5543C680.375 26.2229 681.572 24.8571 682.699 23.4454C683.159 22.8716 682.354 22.0567 681.882 22.6305Z" fill="#DAB95B" fill-opacity="0.4"/>
<path d="M637.155 22.952C638.007 22.952 638.847 22.8601 639.686 22.7683C640.411 22.688 640.423 21.5403 639.686 21.6206C638.847 21.7124 638.007 21.8042 637.155 21.8042C636.419 21.8042 636.419 22.9634 637.155 22.952Z" fill="#DAB95B" fill-opacity="0.4"/>
<path d="M641.366 20.9893C642.608 20.886 643.862 20.7253 645.116 20.7138C645.852 20.7138 645.852 19.5546 645.116 19.5661C643.862 19.5776 642.62 19.7498 641.366 19.8416C640.63 19.899 640.63 21.0467 641.366 20.9893Z" fill="#DAB95B" fill-opacity="0.4"/>
<path d="M132.278 61.6447C130.633 58.3393 129.057 53.955 124.467 54.8961C122.742 55.2519 121.05 55.9635 119.405 56.5603C116.276 57.708 113.17 58.9016 110.076 60.1068C108.856 58.7524 106.51 59.0738 104.451 59.7051C102.322 56.2619 100.321 52.7843 96.4094 51.166C90.554 48.7329 82.881 50.5348 77.2557 52.681C71.4233 54.9076 65.3838 59.4296 62.4618 65.0419C60.4372 68.9327 61.7256 73.2596 62.7379 77.2307C60.7938 78.2981 58.9532 79.8016 59.1258 81.6265C57.2967 82.4414 55.4676 83.2562 53.6385 84.0826C50.843 85.3566 47.7945 86.5387 45.2407 88.2603C43.2161 89.6376 42.5834 91.9559 43.2621 94.2169C44.8841 99.6227 46.7707 105.201 49.3015 110.239C49.8422 111.318 50.5785 112.305 51.0386 113.384C55.0074 122.772 58.8842 132.241 63.9803 141.113C65.867 144.395 68.0872 148.114 71.3312 150.237C75.0124 152.647 81.2245 150.317 84.8942 148.975C100.413 143.259 115.586 136.327 130.771 129.808C134.176 128.35 137.616 126.927 140.963 125.332C145.979 122.944 151.144 119.891 150.995 113.889C150.834 107.496 148.153 100.92 145.945 95.0203C143.632 88.8456 140.94 82.8431 138.479 76.7257C137.374 71.4233 134.648 66.4192 132.278 61.6447ZM108.856 60.5773C104.554 62.2645 100.275 63.9975 96.0068 65.765C96.3864 64.8468 97.8589 63.7106 99.711 62.7121C99.849 62.6891 99.9756 62.6203 100.056 62.5284C101.31 61.8742 102.702 61.3004 104.025 60.8987C104.163 60.9216 104.313 60.8757 104.428 60.7839C106.291 60.256 107.971 60.0953 108.856 60.5888V60.5773ZM74.2762 74.9927C73.1373 73.6613 70.4455 74.2122 68.3288 74.8894C67.489 72.1004 67.1094 69.4262 68.3978 66.6717C70.3994 62.3678 75.1965 60.0838 79.2688 58.3048C83.2491 56.5718 87.3445 55.4355 91.7159 56.0668C95.1785 56.5718 97.2492 59.1771 98.8367 62.012C96.8466 63.0679 94.7069 64.5829 94.7644 66.2585C87.9082 69.1163 81.0864 72.043 74.2762 74.9812V74.9927ZM66.7297 75.4632C66.7297 75.2107 66.5802 74.9582 66.2696 74.9008C65.2342 74.6943 64.1989 74.4303 63.1636 74.2352C63.1061 73.9712 63.037 73.7072 62.991 73.4432C64.2794 73.7761 65.5794 74.0515 66.8793 74.3499C66.9253 74.3499 66.9598 74.3499 66.9943 74.3499C67.0749 74.6598 67.1669 74.9697 67.2589 75.2796C67.0749 75.3485 66.9023 75.4058 66.7412 75.4747L66.7297 75.4632ZM62.6229 71.056C63.9113 71.4692 65.2112 71.8709 66.5457 72.1463C66.5917 72.4792 66.6377 72.812 66.7067 73.1334C65.4988 72.8694 64.2794 72.6169 63.083 72.2955C62.968 72.2611 62.876 72.2726 62.7724 72.2955C62.7034 71.8823 62.6574 71.4692 62.6229 71.056ZM99.5499 60.9675C99.5499 60.9675 99.665 61.0249 99.7455 61.0249C100.056 61.0594 100.367 61.1053 100.677 61.1512C100.424 61.2545 100.148 61.3807 99.8606 61.5184C99.757 61.3348 99.6535 61.1512 99.5499 60.9675ZM63.083 66.4881C64.9927 60.8528 71.6418 56.4455 76.7495 54.1271C82.3633 51.5792 89.9903 50.0872 95.9838 52.2219C98.1465 52.9909 99.6995 54.5977 101.011 56.4226C99.9756 55.952 98.9288 55.5159 97.8474 55.1601C97.1457 54.9305 96.7085 55.9979 97.4103 56.2275C98.6297 56.6177 99.803 57.1112 100.965 57.6621C101.287 57.8113 101.563 57.6392 101.667 57.3867C101.885 57.7195 102.104 58.0523 102.311 58.3852C101.299 58.0982 100.286 57.8113 99.2854 57.49C98.5836 57.2604 98.1465 58.3278 98.8482 58.5573C100.275 59.0164 101.736 59.3837 103.162 59.8313C103.162 59.8313 103.174 59.8313 103.185 59.8313C103.231 59.9116 103.277 59.992 103.335 60.0723C103.082 60.1641 102.84 60.256 102.61 60.3478C102.541 60.2904 102.449 60.2445 102.345 60.233C101.529 60.1182 100.723 59.9575 99.8951 59.8887C99.4809 59.8543 99.2624 60.1986 99.2739 60.5085C97.8359 58.1786 96.0873 56.2619 93.3494 55.2978C89.0585 53.7943 83.8818 55.1142 79.867 56.8013C75.2425 58.741 70.2154 61.0249 67.6615 65.6617C67.5235 65.9142 67.42 66.1667 67.3049 66.4192C66.6377 66.2585 65.9935 66.0405 65.3378 65.8453C64.6361 65.6388 64.1874 66.7061 64.9006 66.9127C65.5679 67.1078 66.2236 67.3144 66.8908 67.4866C66.7873 67.8194 66.6952 68.1408 66.6377 68.4736C65.8209 68.2556 65.0157 68.026 64.2219 67.7735C63.5202 67.5554 63.083 68.6113 63.7848 68.8409C64.6821 69.1163 65.5794 69.3688 66.4767 69.6099C66.4421 70.0575 66.4306 70.4936 66.4536 70.9412C65.2227 70.6658 64.0149 70.2985 62.8185 69.9083C62.7379 69.8853 62.6574 69.8738 62.5769 69.8853C62.5769 68.7491 62.7034 67.6243 63.083 66.4881ZM63.4627 75.4517C64.1644 75.601 64.8661 75.7502 65.5564 75.8994C65.0387 76.1059 64.4175 76.3584 63.7733 76.6798C63.6697 76.2666 63.5662 75.8649 63.4627 75.4517ZM63.5202 77.9882C63.6697 77.9653 63.8078 77.8964 63.8883 77.7816C65.1077 77.1159 66.4997 76.5306 67.8341 76.083C67.9606 76.083 68.0987 76.0486 68.2137 75.9682C70.3074 75.314 72.217 75.0615 73.0913 75.5091C72.1825 75.8994 71.2737 76.2896 70.3649 76.6798C66.9828 78.1374 63.6237 79.6065 60.2646 81.0985C60.4717 80.1 61.7946 78.9752 63.5202 77.9882ZM46.7822 100.885C45.7469 98.0159 42.8824 93.0922 44.8611 90.2229C45.9194 88.6964 48.0821 87.9504 49.6697 87.1814C52.5456 85.7927 55.3755 84.2433 58.2975 82.9349C63.5662 80.5706 68.7429 77.9882 74.0691 75.7502C74.0921 75.7502 74.1036 75.7387 74.1152 75.7272C81.2245 72.7431 88.3223 69.7476 95.4316 66.7635C95.4316 66.7635 95.4431 66.7635 95.4546 66.7635C100.206 64.7665 105.095 63.1023 109.88 61.1971C113.159 59.8887 116.483 58.7295 119.797 57.5014C121.407 56.9046 123.144 56.1701 124.858 55.9291C128.919 55.3322 130.23 60.0953 131.657 62.9646C133.486 66.6487 135.315 70.3559 136.615 74.2811C137.616 77.3225 138.134 80.4788 137.547 83.6579C136.822 87.5487 133.946 90.6016 131.093 93.1496C130.599 92.6101 129.908 92.2314 129.092 92.174C129.011 92.1511 128.919 92.1396 128.816 92.1625C128.712 92.1625 128.631 92.1855 128.574 92.2314C128.378 92.2773 128.171 92.3232 127.976 92.3806C127.078 90.4295 126.158 88.2947 124.743 86.6879C123.65 85.4369 120.659 86.9289 119.463 87.5028C118.405 88.0078 117.45 88.662 117.933 89.8786C118.773 92.0248 119.636 94.1596 120.51 96.2828C120.441 96.3288 120.383 96.3632 120.314 96.4091C119.394 96.9829 118.796 97.465 118.968 98.6357C119.072 99.3702 119.509 100.07 120.096 100.587C113.941 103.846 107.465 106.406 101.045 109.103C94.4998 111.857 87.9887 114.773 81.213 116.93C81.167 116.184 80.9024 115.415 80.6493 114.91C80.1316 113.923 79.2918 113.923 78.337 114.118C78.1645 114.153 77.9804 114.199 77.8079 114.233C76.8876 112.121 75.9558 110.021 75.0124 107.932C74.4603 106.704 73.3559 107.003 72.24 107.37C70.9056 107.794 67.9721 108.919 67.9721 110.572C67.9721 112.638 69.019 114.91 69.8012 116.861C69.6172 116.965 69.4446 117.068 69.2721 117.183C69.203 117.206 69.1225 117.24 69.0535 117.321C68.9615 117.378 68.9155 117.458 68.8694 117.527C68.3633 118.135 68.1447 118.893 68.1907 119.627C64.613 119.868 61.1504 119.742 57.8488 118.181C54.8118 116.747 52.7412 113.877 51.1306 111.054C49.313 107.852 48.0591 104.363 46.8167 100.908L46.7822 100.885ZM138.962 80.9264C139.583 82.4299 140.216 83.9334 140.837 85.4369C139.951 85.4025 139.077 85.391 138.191 85.4139C138.697 84.0137 138.973 82.5217 138.95 80.9264H138.962ZM128.954 93.2758C129.218 93.2758 129.494 93.3676 129.759 93.5168C129.402 93.4594 129.034 93.4021 128.677 93.3447C128.77 93.3217 128.862 93.2873 128.954 93.2758ZM121.476 95.6401C120.843 94.1022 120.222 92.5642 119.613 91.0263C119.394 90.4869 119.187 89.9474 118.968 89.408C118.796 88.9604 119.394 88.7882 119.889 88.5357C120.763 88.0767 121.729 87.7782 122.684 87.5487C123.593 87.3306 123.8 87.2847 124.318 88.0078C125.353 89.4424 126.112 91.1066 126.86 92.7249C124.996 93.448 123.144 94.5842 121.476 95.6401ZM121.189 97.0748C123.121 97.1895 125.019 97.5912 126.94 97.8552C126.894 97.8782 126.86 97.9011 126.814 97.9126C126.676 97.9815 126.503 98.0733 126.319 98.1651C126.319 98.1651 126.319 98.1651 126.296 98.1651C124.421 98.0733 122.592 97.7634 120.751 97.4076C120.878 97.2814 121.027 97.1666 121.189 97.0633V97.0748ZM123.512 99.5997C123.432 99.5194 123.328 99.5997 123.179 99.5997C122.155 99.5768 121.2 99.0718 120.245 99.0718C120.245 99.0718 120.199 98.7275 120.199 98.6242C121.614 98.8996 123.041 99.0833 124.479 99.244C124.168 99.3932 123.846 99.4735 123.524 99.5997H123.512ZM123.593 100.793C124.318 100.438 125.019 100.024 125.468 99.8178C126.664 99.2784 127.849 98.693 129.011 98.0962C129.885 100.38 130.737 102.676 131.519 104.994C131.795 105.832 132.071 106.681 132.232 107.542C132.336 108.127 131.082 108.575 130.702 108.781C130.012 109.137 129.264 109.447 128.505 109.654C127.412 109.952 127.021 108.495 126.607 107.737C125.422 105.51 124.433 103.181 123.593 100.805V100.793ZM129.31 96.1107C129.08 96.2025 128.954 96.5698 128.735 96.6845C126.756 96.5468 124.87 96.2369 122.903 95.9844C123.202 95.8352 123.512 95.7664 123.731 95.6401C123.742 95.6401 123.777 95.6401 123.788 95.6401C123.857 95.6975 123.857 95.5253 123.972 95.5368C125.802 95.7205 127.907 96.696 129.333 96.0877C129.333 96.0877 129.322 96.0877 129.31 96.0877V96.1107ZM130.702 95.5942C128.931 95.2614 127.159 95.0089 125.364 94.8023C125.733 94.5957 126.112 94.3891 126.492 94.194C126.538 94.2169 126.584 94.2399 126.641 94.2399C128.022 94.3776 129.379 94.6416 130.737 94.8711C130.783 95.1122 130.783 95.3647 130.691 95.5942H130.702ZM81.5351 126.043C81.8342 126.904 82.1103 127.776 82.3058 128.66C82.4669 129.36 80.4882 129.957 80.0396 130.129C79.3954 130.382 78.7167 130.577 78.0264 130.691C77.4512 130.783 76.807 129.108 76.623 128.763C75.3576 126.445 74.2532 124.035 73.1488 121.647C74.2417 121.28 75.323 120.878 76.3929 120.465C77.1406 120.19 78.0149 119.926 78.8317 119.582C79.8555 121.682 80.7643 123.828 81.5351 126.043ZM69.7322 118.204C69.8127 118.147 69.8933 118.101 69.9738 118.055C69.7782 118.331 69.5827 118.594 69.3986 118.87C69.4676 118.606 69.5712 118.365 69.7322 118.204ZM79.5909 115.553C79.6485 115.633 79.706 115.725 79.7635 115.84C79.3379 116.77 78.9007 117.653 78.1875 118.399C78.0954 118.503 78.0609 118.606 78.0494 118.709C77.7388 118.847 77.4282 118.962 77.1061 119.077C77.9919 117.94 78.7972 116.758 79.5794 115.553H79.5909ZM75.093 119.719C75.093 119.719 75.0355 119.742 75.0124 119.754C74.8169 119.823 74.6213 119.891 74.4258 119.96C75.5416 118.445 76.5654 116.861 77.7733 115.427C77.7848 115.427 77.7964 115.427 77.8079 115.427C78.0149 115.369 78.2105 115.323 78.3945 115.289C77.3707 116.827 76.3124 118.342 75.093 119.731V119.719ZM70.7906 116.311C70.2039 114.75 69.6287 113.166 69.2491 111.547C69.065 110.779 68.95 110.48 69.6057 109.998C70.4224 109.39 71.3427 108.942 72.2745 108.563C72.6082 108.426 73.747 108.001 73.8506 108.231C74.0576 108.701 74.2762 109.16 74.4833 109.631C75.208 111.249 75.9212 112.867 76.6345 114.497C74.7018 114.933 72.5967 115.496 70.8021 116.333L70.7906 116.311ZM71.9985 117.229C71.9985 117.229 72.0445 117.148 72.0675 117.102C72.4701 116.965 72.8727 116.85 73.2754 116.724C72.1825 118.135 71.1242 119.582 70.1349 121.074C69.9048 120.982 69.7092 120.821 69.5827 120.603C70.3764 119.467 71.1357 118.308 72.01 117.217L71.9985 117.229ZM74.9089 116.46C74.9779 116.379 75.0124 116.288 75.0239 116.196C75.3 116.115 75.5761 116.035 75.8522 115.955C74.6903 117.504 73.655 119.157 72.4011 120.637C72.2745 120.683 72.148 120.729 72.0215 120.775C71.9064 120.81 71.7914 120.844 71.6648 120.878C72.7002 119.375 73.77 117.894 74.9089 116.46ZM149.039 118.089C146.681 121.659 141.941 123.656 138.099 125.366C122.109 132.47 105.912 139.173 89.7142 145.795C86.6082 147.069 83.5712 148.32 80.3157 149.17C77.4973 149.904 73.9656 150.731 71.4348 148.906C69.5597 147.551 68.1677 145.486 66.8908 143.592C61.3345 135.305 57.7108 125.825 53.811 116.643C54.5127 117.332 55.272 117.975 56.1118 118.537C59.7009 120.924 64.1874 121.051 68.3518 120.752C68.3863 120.855 68.4553 120.947 68.5358 121.016C69.065 121.934 70.0658 122.52 71.3773 122.164C71.5843 122.107 71.7914 122.038 72.01 121.98C73.4134 125.01 74.7594 128.132 76.5655 130.955C77.4282 132.298 78.7627 131.759 80.0511 131.334C81.236 130.944 83.7208 130.152 83.4217 128.511C82.835 125.274 81.328 122.026 79.844 119.088C80.1201 118.927 80.3847 118.755 80.6148 118.56C80.7298 118.468 80.8218 118.342 80.9024 118.227C86.8498 116.379 92.5787 113.923 98.296 111.49C100.16 111.72 101.977 112.144 103.795 112.626C104.508 112.81 104.945 111.754 104.232 111.559C102.932 111.215 101.655 110.962 100.332 110.71C100.539 110.629 100.769 110.606 100.976 110.526C101.103 110.469 101.229 110.423 101.356 110.365C101.391 110.354 101.494 110.434 101.632 110.446C103.461 110.698 105.233 111.123 107.039 111.479C107.764 111.628 107.902 110.469 107.177 110.319C105.808 110.044 104.439 109.734 103.07 109.482C104.243 108.988 105.417 108.495 106.602 108.001C106.659 108.035 106.728 108.07 106.809 108.093C108.661 108.483 110.49 108.965 112.319 109.459C113.021 109.654 113.47 108.586 112.756 108.391C111.284 108.001 109.811 107.622 108.339 107.278C112.607 105.476 116.84 103.594 120.924 101.402C121.004 101.356 121.073 101.298 121.119 101.23C121.212 101.264 121.304 101.298 121.396 101.321C121.706 101.402 122.086 101.333 122.5 101.218C123.581 104.248 124.881 107.244 126.549 109.998C127.516 111.582 129.368 110.641 130.725 110.033C131.864 109.516 133.509 108.862 133.348 107.393C132.98 104.099 131.243 100.644 130.023 97.5568C130.173 97.4765 130.323 97.4076 130.461 97.3273C131.657 96.6501 131.991 95.5024 131.749 94.4694C131.772 94.3432 131.749 94.2169 131.691 94.1022C132.715 93.184 133.716 92.2199 134.613 91.187C134.636 91.187 134.648 91.2099 134.671 91.2099C136.535 91.692 138.444 91.8641 140.331 92.1855C141.067 92.3117 141.205 91.164 140.48 91.0492C138.801 90.7738 137.098 90.5902 135.43 90.2114C135.741 89.8212 136.04 89.408 136.316 88.9948C137.973 89.2818 139.652 89.3965 141.32 89.5228C142.056 89.5802 142.206 88.4439 141.47 88.3865C139.974 88.2718 138.467 88.1455 136.983 87.9274C137.236 87.4913 137.478 87.0437 137.685 86.5846C138.755 86.5387 139.836 86.5731 140.906 86.6076C141.033 86.6076 141.136 86.5731 141.228 86.5158C143.839 92.7938 146.382 99.0948 148.257 105.648C149.212 109.011 151.167 114.83 149.016 118.101L149.039 118.089Z" fill="#DAB95B"/>
<path d="M71.9409 141.4C71.2392 141.159 70.802 142.226 71.5038 142.467C73.9771 143.305 76.4734 144.12 78.8432 145.233C79.5104 145.543 79.9475 144.487 79.2803 144.166C76.9105 143.064 74.4142 142.249 71.9409 141.4Z" fill="#DAB95B"/>
<path d="M78.153 141.71C77.4512 141.491 77.0141 142.547 77.7158 142.777C79.683 143.397 81.5581 144.235 83.5482 144.797C84.2499 144.992 84.6986 143.936 83.9854 143.73C82.0067 143.167 80.1201 142.329 78.153 141.71Z" fill="#DAB95B"/>
<path d="M75.6451 88.903C77.4282 93.1266 79.8095 98.739 81.9607 103.846C82.0297 104.018 82.0757 104.237 82.2713 104.248C83.3296 104.317 84.549 103.594 85.4923 103.227C86.5047 102.836 87.494 102.423 88.4833 102.01C88.5293 102.033 88.5754 102.056 88.6329 102.067C89.6912 102.251 90.7611 102.366 91.8309 102.446C92.3716 102.481 92.5902 101.895 92.3831 101.551C92.8202 101.597 93.2689 101.631 93.706 101.666C94.4423 101.723 94.5918 100.587 93.8556 100.529C93.3494 100.495 92.8548 100.449 92.3486 100.392C92.7282 100.231 93.1078 100.07 93.4875 99.9097C98.1235 97.9356 102.702 95.8812 107.338 93.9186C107.603 93.8038 107.787 93.448 107.637 93.1725C106.659 91.4165 105.854 89.5572 105.072 87.6979C105.417 87.8012 105.773 87.9045 106.119 87.9963C106.82 88.1914 107.269 87.1355 106.556 86.929C105.877 86.7453 105.21 86.5273 104.531 86.3666C104.439 86.1485 104.359 85.9419 104.266 85.7238C104.543 85.8157 104.83 85.9075 105.106 86.0108C105.808 86.2633 106.245 85.1959 105.543 84.9434C104.934 84.7253 104.312 84.5417 103.703 84.3236C103.622 84.117 103.53 83.899 103.45 83.6694C103.841 83.7727 104.232 83.876 104.623 83.9793C105.325 84.1744 105.773 83.1185 105.06 82.9119C104.382 82.7168 103.691 82.5561 103.001 82.3725C102.426 80.6739 101.793 78.8261 100.769 77.6898C100.597 77.4947 100.344 77.4144 100.091 77.5177C91.8769 80.9493 83.6632 84.3695 75.4496 87.8012C74.8629 88.0422 75.116 88.8686 75.6336 88.903H75.6451ZM90.7266 101.195C90.6575 101.195 90.577 101.184 90.508 101.172C90.554 101.149 90.6115 101.126 90.6575 101.115C90.6805 101.149 90.7035 101.172 90.7381 101.195H90.7266ZM99.757 78.6539C99.826 78.6195 99.9066 78.5965 99.9756 78.5621C99.9756 78.5621 100.033 78.6998 100.045 78.7113C100.263 79.1474 100.47 79.6409 100.654 80.0885C102.518 84.3925 104.071 88.9489 106.291 93.0922C100.551 95.5254 94.8794 98.0848 89.1275 100.495C86.9303 101.413 84.6871 102.859 82.3403 103.364C82.4323 103.341 77.1636 90.4295 76.4159 88.639C82.9615 85.9075 89.4726 83.0726 96.0183 80.341C97.2722 79.8131 98.4916 79.1933 99.7455 78.6654L99.757 78.6539Z" fill="#DAB95B"/>
<path d="M78.6246 89.7409C78.6246 89.8212 78.6591 89.9016 78.7052 89.959C80.4192 93.1955 82.0067 96.5469 83.6518 99.8179C84.5376 101.574 86.1711 100.816 87.6091 100.185C91.0832 98.6472 94.5113 96.8567 98.1005 95.5943C100.355 94.8023 102.794 93.9875 102.852 91.2674C102.898 88.9031 101.621 86.4355 100.7 84.3237C99.8145 82.3037 98.8712 80.7887 96.49 80.9264C94.8679 81.0297 93.1769 82.166 91.8079 82.9005C89.2426 84.2778 86.8613 85.391 84.0199 86.1485C81.4315 86.8486 79.8325 87.0552 78.7627 89.3507C78.6706 89.454 78.6246 89.5802 78.6476 89.7294L78.6246 89.7409ZM83.2031 87.5602C86.4242 86.5961 89.2656 85.6091 92.2336 83.9679C93.6255 83.1989 95.0635 82.4414 96.6165 82.0741C98.4456 81.638 99.1243 83.6006 99.619 84.7713C100.447 86.6994 101.287 88.6047 101.644 90.682C102.127 93.5972 98.4801 94.194 96.4555 94.9745C93.66 96.0533 90.9106 97.3962 88.1843 98.6472C87.448 98.98 86.7348 99.3358 85.987 99.6228C84.6871 100.128 84.1234 98.0504 83.7208 97.3503C82.2828 94.8482 81.19 92.2544 79.867 89.7065C80.5918 88.2603 81.5236 88.0767 83.2261 87.5717L83.2031 87.5602Z" fill="#DAB95B"/>
<path d="M83.3872 91.7264C87.4135 90.0507 91.5319 88.6276 95.5812 87.0208C96.2714 86.7453 95.8228 85.6894 95.1325 85.9649C91.0832 87.5602 86.9649 88.9948 82.9386 90.6705C82.2483 90.9574 82.697 92.0133 83.3872 91.7264Z" fill="#DAB95B"/>
<path d="M85.3198 94.0563L85.7685 95.1122C90.0134 93.3332 93.7866 91.8297 97.3643 89.6031C97.997 89.2129 97.1457 88.3751 96.5245 88.7538C93.0388 90.923 89.5647 92.2659 85.3198 94.0448V94.0563Z" fill="#DAB95B"/>
<path d="M87.241 97.1551C91.3593 95.3417 96.2254 93.2873 99.4119 91.9445C100.47 91.4969 100.022 90.441 98.9633 90.8886C95.7882 92.2314 90.7956 94.3317 86.6773 96.1451C85.9985 96.4435 86.5622 97.4535 87.241 97.1551Z" fill="#DAB95B"/>
<path d="M321.027 410.432C320.993 410.248 320.797 410.064 320.625 410.03C311.824 408.377 302.541 408.354 293.625 407.93C283.962 407.471 274.264 407.023 264.578 407C264.337 407 264.061 407.172 264.026 407.425C263.635 409.72 263.313 412.016 263.025 414.322C261.863 414.322 260.644 414.322 259.425 414.322V415.47C259.425 415.47 260.989 415.47 262.876 415.47C262.692 416.974 262.531 418.477 262.381 419.981C261.334 419.981 260.379 419.981 259.413 419.981V421.128C259.413 421.128 260.621 421.128 262.266 421.128C262.128 422.597 261.99 424.055 261.863 425.524C260.886 425.409 259.908 425.272 258.941 425.077C258.217 424.927 257.906 426.041 258.631 426.178C259.666 426.385 260.713 426.523 261.76 426.649C261.622 428.313 261.484 429.966 261.346 431.619C260.161 431.619 258.964 431.573 257.78 431.435C257.043 431.343 257.055 432.491 257.78 432.583C258.93 432.732 260.092 432.766 261.254 432.766C261.139 434.155 261.024 435.555 260.909 436.944C259.85 436.852 258.792 436.749 257.734 436.588C257.009 436.485 256.698 437.587 257.423 437.69C258.55 437.862 259.678 437.977 260.805 438.08C260.667 439.71 260.529 441.34 260.391 442.981C259.356 442.981 258.332 442.924 257.319 442.74C256.595 442.614 256.284 443.716 257.009 443.842C258.09 444.037 259.183 444.094 260.287 444.106C260.161 445.655 260.034 447.205 259.908 448.765C258.654 448.685 257.365 448.547 256.169 448.295C255.444 448.146 255.122 449.248 255.847 449.397C257.112 449.661 258.481 449.821 259.816 449.902C259.678 451.704 259.528 453.494 259.39 455.296C258.171 455.262 256.963 455.204 255.755 455.043C255.019 454.952 255.03 456.099 255.755 456.191C256.94 456.34 258.125 456.398 259.31 456.444C259.195 457.982 259.091 459.531 258.976 461.069C257.895 460.966 256.825 460.851 255.743 460.771C255.007 460.713 255.007 461.861 255.743 461.918C256.79 461.999 257.837 462.102 258.895 462.205C258.815 463.364 258.734 464.524 258.654 465.683C257.619 465.568 256.583 465.453 255.548 465.327C254.812 465.235 254.823 466.383 255.548 466.475C256.56 466.601 257.573 466.704 258.585 466.819C258.435 469.16 258.286 471.502 258.148 473.843C258.125 474.176 258.355 474.348 258.608 474.383C258.642 474.383 258.677 474.417 258.723 474.417C277.348 476.15 295.984 477.883 314.608 479.616C314.907 479.639 315.195 479.329 315.183 479.042C315.045 475.186 315.759 471.169 316.127 467.347C316.84 459.887 317.588 452.427 318.324 444.967C319.06 437.483 319.785 430 320.406 422.517C320.728 418.695 321.614 414.265 320.981 410.443L321.027 410.432ZM319.21 423.47C318.588 430.838 317.875 438.206 317.15 445.563C316.437 452.817 315.713 460.082 315.022 467.336C314.677 470.951 314.033 474.75 314.079 478.411C295.846 476.712 277.612 475.025 259.379 473.327C259.505 471.203 259.632 469.08 259.77 466.957C261.449 467.152 263.117 467.359 264.785 467.657C265.51 467.783 265.821 466.681 265.096 466.555C263.359 466.245 261.599 466.027 259.85 465.821C259.931 464.65 260.011 463.479 260.092 462.32C261.311 462.423 262.531 462.515 263.762 462.527C264.509 462.527 264.498 461.379 263.762 461.379C262.565 461.379 261.369 461.287 260.172 461.184C260.287 459.623 260.391 458.051 260.506 456.49C261.587 456.513 262.68 456.536 263.762 456.604C264.498 456.65 264.498 455.503 263.762 455.457C262.703 455.388 261.656 455.365 260.598 455.342C260.736 453.551 260.874 451.761 261.012 449.971C262.094 450.016 263.129 450.016 264.038 450.028C265.188 450.028 265.188 448.88 264.038 448.88C263.14 448.88 262.14 448.869 261.104 448.823C261.231 447.25 261.357 445.69 261.484 444.117C262.508 444.117 263.543 444.071 264.567 444.071C265.303 444.071 265.303 442.924 264.567 442.924C263.577 442.924 262.577 442.969 261.576 442.981C261.691 441.546 261.817 440.1 261.932 438.654C261.944 438.493 261.955 438.333 261.967 438.172C262.968 438.252 263.957 438.321 264.958 438.39C265.694 438.447 265.694 437.288 264.958 437.242C263.992 437.174 263.025 437.105 262.059 437.036C262.174 435.613 262.289 434.189 262.416 432.766C263.727 432.743 265.038 432.697 266.35 432.686C267.086 432.686 267.098 431.538 266.35 431.538C265.061 431.538 263.785 431.596 262.508 431.619C262.634 430 262.772 428.393 262.91 426.775C264.21 426.913 265.499 427.028 266.799 427.2C267.523 427.303 267.834 426.19 267.109 426.098C265.752 425.914 264.383 426.018 263.025 425.868C263.163 424.354 263.301 422.712 263.451 421.565H267.489V419.969C265.993 419.969 264.728 419.969 263.566 419.969C263.716 418.466 263.888 416.962 264.072 415.459C265.844 415.459 267.661 415.459 268.639 415.459C269.79 415.459 269.79 414.311 268.639 414.311C267.431 414.311 265.89 414.311 264.21 414.311C264.463 412.302 264.728 410.282 265.05 408.285C265.061 408.205 265.05 408.148 265.05 408.113C265.096 408.125 265.154 408.136 265.246 408.136C265.614 408.136 265.97 408.136 266.338 408.136C267.201 408.136 268.064 408.159 268.915 408.182C271.274 408.228 273.643 408.297 276.002 408.366C281.65 408.538 287.287 408.767 292.935 409.031C298.491 409.295 304.048 409.594 309.593 409.996C311.686 410.145 313.791 410.317 315.874 410.535C316.69 410.615 317.507 410.707 318.324 410.822C318.715 410.868 319.106 410.925 319.497 410.994C319.785 411.04 319.9 411.04 319.946 411.028C320.303 415.091 319.555 419.441 319.221 423.47H319.21Z" fill="#DAB95B"/>
<path d="M303.358 433.776C303.599 433.776 303.875 433.604 303.91 433.352C304.37 430.54 304.255 427.716 304.427 424.881C304.565 422.529 305.451 420.336 305.118 417.972C305.083 417.72 304.795 417.548 304.565 417.548C295.546 417.479 286.528 417.41 277.52 417.329C277.302 417.329 277.152 417.433 277.06 417.57C276.991 417.662 276.945 417.766 276.945 417.903C276.876 422.988 276.013 428.084 276.945 433.134C276.991 433.386 277.256 433.558 277.497 433.558C286.113 433.581 294.73 433.937 303.346 433.776H303.358ZM279.74 432.422C276.864 432.399 277.624 428.187 277.693 426.11C277.773 423.562 278.015 421.025 278.072 418.489C286.217 418.558 294.362 418.615 302.506 418.684C303.07 418.684 303.622 418.684 304.186 418.695C304.312 418.695 304.427 418.695 304.554 418.695C303.944 418.695 303.657 422.276 303.53 422.93C303.15 424.95 303.196 427.028 303.15 429.071C303.116 430.792 303.277 432.64 301.126 432.663C299.63 432.686 298.135 432.674 296.639 432.663C291.003 432.64 285.377 432.468 279.752 432.41L279.74 432.422Z" fill="#DAB95B"/>
<path d="M299.688 428.657C293.614 427.888 288.196 427.854 281.293 427.854V429.002C281.293 429.002 293.706 429.048 299.791 429.805C300.528 429.897 300.424 428.749 299.699 428.657H299.688Z" fill="#DAB95B"/>
<path d="M284.112 424.021C288.943 425.008 293.867 425.237 298.779 425.444C299.527 425.478 299.515 424.331 298.779 424.296C293.959 424.09 289.15 423.883 284.411 422.919C283.686 422.77 283.375 423.871 284.1 424.021H284.112Z" fill="#DAB95B"/>
<path d="M303.542 462.779C304.071 462.251 303.254 461.448 302.725 461.964C300.206 464.489 297.744 467.072 294.879 469.218C294.293 469.654 294.868 470.652 295.454 470.205C298.411 468.001 300.942 465.373 303.53 462.779H303.542Z" fill="#DAB95B"/>
<path d="M306.314 463.755C304.324 465.763 302.529 467.921 300.735 470.102C300.263 470.664 301.08 471.49 301.551 470.916C303.346 468.736 305.141 466.567 307.131 464.57C307.648 464.042 306.843 463.227 306.314 463.755Z" fill="#DAB95B"/>
<path d="M225.741 137.088C230.986 138.764 236.727 139.2 238.682 132.83C238.878 132.176 238.958 131.556 238.947 130.96C243.974 130.443 247.793 127.505 245.838 121.238C243.767 114.593 233.552 109.945 226.949 111.207C226.201 111.345 226.316 112.539 227.075 112.389C233.264 111.207 244.078 115.844 244.894 122.696C245.458 127.425 242.479 129.502 238.809 129.881C238.004 126.506 234.012 124.199 231.044 122.845C229.491 122.134 226.684 120.825 224.924 121.583C223.405 122.237 223.359 123.671 224.13 125.026C226.304 128.859 232.447 131.166 237.739 131.028C237.877 133.507 236.002 135.987 233.759 136.847C231.251 137.811 228.283 136.687 225.902 135.883C225.741 135.826 225.591 135.768 225.43 135.723C225.119 134.85 224.625 134.024 223.923 133.312C222.784 132.153 219.045 129.089 217.182 130.466C214.271 132.601 221.795 135.665 224.533 136.664C225.154 139.223 223.854 142.069 221.139 143.194C218.585 144.25 215.33 143.607 212.833 142.712C212.109 142.46 211.637 143.55 212.362 143.802C216.561 145.306 224.337 145.857 225.637 140.072C225.867 139.074 225.902 138.064 225.764 137.088H225.741ZM234.806 129.709C232.585 129.307 230.4 128.446 228.398 127.436C227.179 126.816 226.12 125.955 225.361 124.819C224.142 123.017 225.902 122.535 227.34 122.811C230.998 123.488 235.703 125.978 237.313 129.387C237.405 129.571 237.474 129.766 237.532 129.95C236.635 129.95 235.714 129.869 234.817 129.709H234.806ZM221.461 134.288C220.472 133.863 219.54 133.335 218.7 132.67C218.769 131.545 219.241 131.327 220.092 132.038C221.013 132.452 221.841 132.991 222.589 133.668C223.152 134.127 223.589 134.667 223.923 135.229C223.095 134.942 222.278 134.632 221.473 134.299L221.461 134.288Z" fill="#DAB95B"/>
<path d="M311.946 43.2116C311.762 42.9935 311.451 42.9131 311.186 43.1197C311.094 43.1656 311.025 43.246 310.979 43.3263C307.114 47.4466 304.848 53.8165 304.089 59.2911C303.571 62.9867 305.273 70.929 310.496 69.6206C315.27 68.4269 315.822 61.4832 315.362 57.6384C314.799 52.8294 313.602 48.0664 312.107 43.4641C312.072 43.3493 312.015 43.2689 311.946 43.2116ZM312.682 66.3036C310.887 69.2762 308 69.0696 306.389 66.0856C305.043 63.595 304.997 60.8061 305.469 58.0975C306.251 53.5869 308.23 48.3878 311.29 44.7954C313.43 51.3259 316.375 60.2207 312.682 66.3151V66.3036Z" fill="#DAB95B"/>
<path d="M529.157 228.981C528.432 225.687 527.19 222.6 525.879 219.501C525.752 219.191 525.51 219.042 525.177 219.1C523.992 219.318 522.796 219.57 521.599 219.834C519.621 217.665 517.768 215.392 515.778 213.246C515.583 213.04 516.733 210.779 516.63 210.055C516.043 205.797 511.729 206.773 508.98 208.311C507.162 209.332 503.998 211.892 505.31 214.394C505.92 215.553 506.943 215.978 508.186 216.219C509.359 216.448 509.969 223.197 510.015 224.218C510.015 224.276 510.038 224.333 510.061 224.379C509.106 224.896 508.105 225.355 507.001 225.619C506.69 225.687 506.518 226.032 506.598 226.319C507.473 229.716 509.532 232.574 510.855 235.799C510.866 235.833 510.889 235.856 510.912 235.879C511.004 236.132 511.234 236.327 511.568 236.201C517.297 234.02 523.037 231.839 528.766 229.67C529.077 229.555 529.238 229.291 529.169 228.97L529.157 228.981ZM527.915 228.786C526.615 229.28 525.326 229.773 524.026 230.267C525.062 228.35 525.879 226.319 526.534 224.241C527.075 225.733 527.547 227.248 527.915 228.798V228.786ZM526.293 223.61C526.005 223.449 525.556 223.495 525.43 223.92C524.728 226.135 523.854 228.293 522.703 230.313C522.611 230.485 522.611 230.646 522.657 230.783C521.392 231.265 520.127 231.747 518.861 232.229C521.093 228.89 521.438 224.62 522.934 220.959C522.98 220.856 522.98 220.764 522.968 220.672C523.658 220.546 524.326 220.419 524.981 220.305C525.441 221.406 525.879 222.497 526.304 223.61H526.293ZM517.4 223.759C516.422 227.157 515.939 230.714 514.352 233.917C514.352 233.917 514.352 233.94 514.352 233.951C513.696 234.203 513.052 234.445 512.396 234.697C513.869 231.128 514.524 227.283 515.583 223.576C515.675 223.231 515.479 223.002 515.215 222.91C517.032 222.038 519.114 221.464 521.197 221.028C521.392 221.108 521.588 221.051 521.749 220.924C520.368 224.482 520.012 228.614 517.814 231.793C517.596 232.115 517.768 232.425 518.044 232.562C517.32 232.838 516.595 233.113 515.882 233.389C517.136 230.405 517.653 227.191 518.551 224.081C518.758 223.369 517.642 223.071 517.446 223.771L517.4 223.759ZM514.409 223.289C514.409 223.289 514.432 223.289 514.444 223.266C513.42 226.881 512.787 230.68 511.349 234.169C510.153 231.644 508.657 229.257 507.852 226.571C510.222 225.86 512.235 224.494 514.398 223.277L514.409 223.289ZM509.658 215.588C509.624 215.324 509.336 215.186 509.106 215.163C505.229 214.853 506.012 211.766 508.404 209.998C509.359 209.287 510.567 208.724 511.66 208.277C514.524 207.106 516.837 210.411 514.271 212.546C514.03 212.753 514.064 213.154 514.271 213.361C516.388 215.53 518.298 217.871 520.311 220.121C518.689 220.511 517.078 220.959 515.525 221.51C513.938 222.061 512.546 222.956 511.131 223.794C510.935 221.016 510.061 218.342 509.67 215.588H509.658Z" fill="#DAB95B" fill-opacity="0.4"/>
<path d="M411.206 395.449C410.758 393.52 410.114 391.638 409.676 389.71C409.619 389.469 409.366 389.285 409.124 389.285C406.685 389.331 404.281 389.607 401.865 389.94C404.661 380.93 414.37 366.411 402.464 360.076C393.41 355.267 384.104 367.662 386.335 375.846C386.404 376.087 386.634 376.27 386.887 376.27C388.682 376.236 391.316 376.328 392.927 375.421C392.984 375.386 393.03 375.341 393.065 375.295C393.422 375.272 393.64 375.019 393.571 374.675C393.053 372.288 393.364 369.717 394.135 367.421C395.469 363.462 399.542 364.093 400.485 367.88C401.716 372.827 400.082 379.828 398 384.385C396.677 387.288 391.696 394.886 396.136 397.469C400.301 399.902 406.685 397.595 410.804 396.126C411.114 396.022 411.275 395.747 411.206 395.426V395.449ZM396.47 396.321C394.48 394.76 396.136 391.064 396.907 389.285C398.242 386.221 399.829 383.466 400.611 380.195C401.221 377.67 401.647 375.088 401.831 372.494C402.107 368.799 401.417 362.532 396.183 363.611C392.248 364.426 391.8 370.979 392.329 374.365C392.294 374.399 392.271 374.434 392.237 374.468C391.362 374.916 390.097 374.893 389.165 374.985C388.049 375.1 387.359 375.501 387.118 374.285C386.6 371.714 387.486 369.017 388.717 366.79C391.04 362.624 396.021 359.364 400.865 360.673C407.502 362.452 407.594 370.428 406.11 375.685C404.684 380.769 401.854 385.349 400.485 390.456C400.358 390.915 400.773 391.225 401.187 391.156C403.476 390.835 405.765 390.536 408.077 390.433C409.009 390.387 409.665 393.75 409.953 395.196C407.146 396.172 404.247 396.952 401.279 397.216C399.668 397.365 397.77 397.342 396.436 396.298L396.47 396.321Z" fill="#DAB95B"/>
<path d="M278.357 250.987C277.092 249.977 275.815 248.967 274.504 248.003C275.343 246.993 276.218 246.006 277.092 245.03C277.598 244.456 276.758 243.619 276.252 244.192C275.332 245.225 274.412 246.258 273.526 247.326C272.364 246.522 271.167 245.753 269.902 245.111C269.223 244.766 268.614 245.788 269.304 246.144C270.512 246.763 271.651 247.498 272.766 248.255C271.789 249.483 270.88 250.757 270.098 252.123C269.718 252.789 270.753 253.397 271.133 252.72C271.892 251.377 272.789 250.126 273.756 248.933C275.033 249.862 276.275 250.849 277.517 251.836C278.116 252.307 278.967 251.469 278.357 250.998V250.987Z" fill="#B46124" fill-opacity="0.4"/>
<path d="M144.472 514C142.85 508.72 137.075 507.021 132.14 506.298V507.4C137.674 506.069 144.116 502.694 140.952 496.118C138.513 491.057 131.059 487.751 125.733 489.45C116.633 492.342 114.033 507.595 125.905 507.653C125.813 507.297 125.71 506.941 125.618 506.585C121.913 508.433 117.542 510.12 117.047 514.883C116.633 518.935 118.991 522.424 122.12 524.765C129.966 530.63 146.669 525.396 144.472 514C144.334 513.276 143.218 513.586 143.368 514.309C144.507 520.209 138.789 524.455 133.728 525.855C129.632 526.98 125.203 525.855 121.959 523.204C119.429 521.15 117.703 517.879 118.267 514.585C118.957 510.499 122.995 509.191 126.204 507.584C126.733 507.32 126.457 506.516 125.917 506.516C115.908 506.47 118.094 494.936 124.605 491.217C129.034 488.692 134.487 490.976 137.95 494.11C140.124 496.072 141.573 499.137 140.066 501.903C138.594 504.611 134.591 505.644 131.841 506.31C131.323 506.436 131.266 507.331 131.841 507.412C136.305 508.066 141.872 509.443 143.368 514.309C143.586 515.01 144.691 514.711 144.472 514Z" fill="#DAB95B"/>
<path d="M128.252 495.762C132.992 494.19 135.522 500.973 131.588 503.486C126.457 506.78 123.248 497.576 128.252 495.762C128.942 495.51 128.643 494.397 127.941 494.66C121.787 496.899 124.962 507.779 131.554 504.795C137.397 502.155 134.245 492.572 127.941 494.66C127.24 494.89 127.539 496.003 128.252 495.762Z" fill="#DAB95B"/>
<path d="M129.943 521.999C126.469 521.838 124.042 519.6 124.87 515.962C125.595 512.749 130.093 511.543 132.876 511.429C136.604 511.279 139.215 514.229 137.397 517.798C136.086 520.381 132.692 521.861 129.943 521.999C129.207 522.034 129.207 523.181 129.943 523.147C133.808 522.963 137.651 520.702 138.996 516.972C140.388 513.139 136.891 510.648 133.578 510.292C129.552 509.868 124.548 512.186 123.604 516.341C122.673 520.45 126.319 522.975 129.943 523.135C130.691 523.17 130.679 522.022 129.943 521.988V521.999Z" fill="#DAB95B"/>
<path d="M379.359 154.518C378.577 153.037 377.323 151.775 376.242 150.513C375.298 149.399 375.459 149.101 376.15 147.861C376.713 146.84 377.208 145.818 377.599 144.728C377.749 144.315 377.288 143.902 376.886 144.016C375.08 144.556 373.251 145.015 371.433 145.474C371.375 145.428 371.283 145.348 371.157 145.222C370.766 144.831 370.386 144.441 369.995 144.039C369.04 143.075 368.085 142.1 367.096 141.159C366.751 140.826 366.084 141.044 366.118 141.56C366.245 143.798 366.463 146.025 366.371 148.252C364.669 149.365 362.978 150.478 361.275 151.58C360.781 151.901 360.999 152.601 361.563 152.647C363.058 152.762 364.519 152.98 365.957 153.393C366.118 153.439 366.314 153.52 366.498 153.588C367.223 155.631 367.97 157.674 368.626 159.74C368.741 160.107 369.305 160.348 369.592 159.993C370.467 158.891 372.077 155.31 373.4 155.356C375.206 155.425 377.047 155.517 378.853 155.356C379.29 155.321 379.566 154.897 379.348 154.495L379.359 154.518ZM372.848 154.22C371.663 154.174 370.248 156.779 369.362 158.306C368.776 156.55 368.154 154.816 367.533 153.072C367.533 152.946 367.487 152.831 367.384 152.716C367.361 152.693 367.349 152.67 367.326 152.647C367.177 152.475 366.947 152.452 366.751 152.521C366.268 152.452 365.578 152.119 365.186 152.028C364.554 151.867 363.898 151.764 363.254 151.683C364.588 150.811 365.911 149.95 367.234 149.078C367.269 149.055 367.292 149.02 367.315 148.998C367.315 148.998 367.395 148.906 367.43 148.86C367.453 148.814 367.476 148.768 367.487 148.711C367.487 148.711 367.487 148.699 367.487 148.688C367.487 148.653 367.51 148.619 367.51 148.584C367.614 146.737 367.476 144.889 367.361 143.041C368.534 144.189 369.684 145.359 370.835 146.53C370.984 146.679 371.191 146.725 371.398 146.679C372.917 146.289 374.424 145.899 375.931 145.486C375.091 146.909 373.745 149.078 374.332 149.927C375.379 151.465 376.84 152.739 377.875 154.289C376.196 154.357 374.516 154.288 372.848 154.22Z" fill="#DAB95B" fill-opacity="0.4"/>
<path d="M565.184 127.317C564.815 124.654 562.239 123.07 559.685 123.368C559.604 123.357 559.524 123.368 559.432 123.38C559.34 123.391 559.259 123.426 559.202 123.472C559.179 123.472 559.167 123.483 559.144 123.495C556.291 118.055 554.266 112.178 551.782 106.566C553.565 105.728 555.049 104.316 555.716 102.124C557.016 97.8087 552.817 94.7329 549.032 94.1016C542.015 92.9309 539.829 102.182 544.143 106.084C542.487 108.942 540.635 111.639 538.633 114.267C537.989 113.842 537.298 113.475 536.597 113.177C530.281 111.053 524.61 113.716 522.482 120.029C520.514 125.87 524.851 131.804 530.442 133.377C536.125 134.972 541.969 132.045 543.683 126.548C547.813 127.236 552 127.489 556.096 128.373C556.222 130.806 557.902 133.09 560.973 132.745C563.412 132.47 565.506 129.75 565.184 127.317ZM548.319 95.1805C551.839 95.2723 555.44 98.1416 554.612 101.826C554.174 103.754 552.656 104.959 550.999 105.636C550.93 105.648 550.85 105.682 550.792 105.717C549.55 106.187 548.262 106.382 547.307 106.382C547.238 106.382 547.192 106.405 547.134 106.405C541.049 105.257 541.762 94.9968 548.331 95.169L548.319 95.1805ZM545.075 106.772C545.604 107.094 546.191 107.346 546.858 107.518C546.962 107.541 547.054 107.541 547.134 107.518C547.192 107.518 547.238 107.541 547.295 107.541C548.446 107.541 549.619 107.358 550.723 106.991C553.22 112.637 555.256 118.537 558.12 124.011C557.004 124.769 556.349 125.939 556.142 127.213C552.115 126.364 548.008 126.111 543.959 125.434C544.753 121.325 542.728 117.4 539.565 114.921C541.566 112.304 543.418 109.607 545.075 106.772ZM542.728 125.71C541.704 131.414 535.78 133.181 530.73 132.263C525.323 131.288 522.263 125.297 523.574 120.327C525.127 114.474 530.891 112.465 536.275 114.278C540.876 116.207 543.614 120.763 542.717 125.721L542.728 125.71ZM560.168 131.643C556.119 131.678 556.406 125.423 559.731 124.493C561.652 124.172 563.527 125.354 564.01 127.236C564.585 129.486 562.227 131.632 560.168 131.643Z" fill="#DAB95B" fill-opacity="0.4"/>
<path d="M505.237 418.345C507.02 409.358 497.794 404.09 490.362 408.704C484.656 412.251 483.759 422.247 492.467 421.111C495.689 420.698 498.541 418.058 499.059 414.833C499.462 412.285 498.208 409.439 495.194 409.771C492.433 410.07 489.753 411.837 490.339 414.925C490.914 417.978 494.147 417.301 495.711 415.567C496.471 414.73 495.286 413.387 494.527 414.248C492.594 416.405 491.075 414.167 492.778 412.469C494.435 410.827 497.357 411.286 497.391 413.789C497.449 418.047 489.315 422.523 487.67 417.45C486.198 412.916 491.892 409.175 495.573 408.647C501.222 407.832 504.443 413.341 503.465 418.242C503.246 419.366 505.018 419.47 505.237 418.368V418.345Z" fill="#DAB95B" fill-opacity="0.4"/>
<path d="M428.733 498.888C427.847 497.362 428.319 494.849 430.16 494.206C431.321 493.804 432.61 494.573 433.288 495.468C434.128 496.582 434.025 497.901 433.312 499.049C432.207 500.817 429.814 500.403 428.733 498.888C428.307 498.292 427.307 498.866 427.744 499.474C428.986 501.23 431.517 502.114 433.358 500.656C435.152 499.233 435.555 496.788 434.278 494.906C433.288 493.448 431.367 492.588 429.665 493.184C427.203 494.045 426.559 497.431 427.744 499.485C428.112 500.128 429.113 499.543 428.733 498.9V498.888Z" fill="#DAB95B" fill-opacity="0.4"/>
<path d="M430.723 508.724C426.685 514.578 423.188 520.202 416.643 523.519C414.86 524.425 412.03 525.688 410.051 524.724C407.267 523.381 410.672 516.724 411.385 515.071C414.526 507.714 419.357 501.172 423.51 494.378C427.134 488.433 430.367 482.407 435.417 477.507C437.959 475.039 440.869 472.732 444.321 471.722C448.566 470.482 448.968 474.959 448.508 477.828C447.68 482.981 444.781 487.882 442.112 492.278C438.661 497.959 434.542 503.296 430.735 508.724C430.309 509.333 431.31 509.907 431.724 509.298C435.67 503.686 439.869 498.165 443.435 492.312C445.563 488.823 455.721 470.505 445.471 470.391C439.869 470.333 434.14 476.795 430.976 480.628C426.605 485.919 423.533 492.289 419.864 498.062C417.908 501.138 400.813 525.917 411.569 526.193C414.779 526.273 418.219 524.161 420.761 522.44C425.604 519.157 428.48 514.015 431.736 509.31C432.161 508.701 431.16 508.128 430.746 508.736L430.723 508.724Z" fill="#DAB95B" fill-opacity="0.4"/>
<path d="M422.751 517.585C421.267 517.734 419.806 518.813 420.393 520.775C421.049 523.025 423.625 522.956 424.73 521.166C426.34 518.572 424.523 517.413 422.751 517.585Z" fill="#DAB95B" fill-opacity="0.4"/>
<path d="M411.754 471.722C410.523 478.884 413.33 484.003 416.792 490.04C421.026 497.431 425.455 504.684 429.814 512.007C432.449 516.414 435.244 521.177 439.673 524.012C442.768 525.986 447.668 525.894 448.888 521.889C450.153 517.745 447.162 512.397 445.333 508.851C441.801 501.999 438.327 495.009 434.128 488.536C431.39 484.301 428.054 480.353 424.557 476.737C421.911 474.006 418.069 469.954 413.916 470C412.639 470.012 412.329 470.574 411.811 471.596C411.477 472.261 412.478 472.835 412.8 472.17C415.412 466.97 428.158 482.407 430.021 484.783C434.163 490.051 437.269 495.985 440.352 501.907C442.768 506.544 445.563 511.089 447.185 516.093C447.864 518.205 448.577 521.108 447.059 523.025C444.976 525.642 440.766 523.553 438.799 522.004C435.06 519.054 432.679 514.555 430.275 510.549C426.444 504.168 422.579 497.833 418.874 491.382C415.274 485.116 411.558 479.584 412.858 472.043C412.984 471.32 411.869 471.01 411.754 471.733V471.722Z" fill="#DAB95B" fill-opacity="0.4"/>
<path d="M413.859 480.709C412.179 480.8 410.557 482.178 411.523 484.106C412.674 486.39 417.758 484.967 416.412 482.12C415.918 481.064 414.882 480.651 413.87 480.697L413.859 480.709Z" fill="#DAB95B" fill-opacity="0.4"/>
<path d="M429.182 488.926C424.684 489.156 420.186 489.328 415.699 489.592C411.88 489.821 407.658 490.304 404.195 492.014C401.124 493.54 397.305 496.926 399.813 500.53C401.837 503.445 406.393 504.501 409.602 505.293C413.306 506.199 417.16 506.727 420.968 506.991C428.871 507.542 436.912 506.9 444.746 505.901C449.359 505.316 454.053 503.192 457.78 500.461C460.403 498.544 462.577 494.906 459.045 492.542C457.032 491.199 454.685 490.682 452.339 490.212C448.312 489.385 444.332 488.869 440.225 488.72C436.544 488.582 432.851 488.743 429.17 488.926C428.434 488.961 428.422 490.108 429.17 490.074C436.682 489.707 444.114 489.661 451.51 491.21C453.731 491.681 455.951 492.094 457.964 493.196C461.013 494.883 459.517 497.488 457.561 499.187C454.432 501.873 449.911 503.755 445.908 504.581C439.006 506.016 431.436 506.073 424.419 505.97C417.528 505.867 409.763 505.086 403.528 501.999C402.171 501.333 400.756 500.369 400.238 498.888C399.203 495.95 403.356 493.597 405.461 492.725C412.639 489.73 421.555 490.476 429.193 490.074C429.929 490.04 429.929 488.892 429.193 488.926H429.182Z" fill="#DAB95B" fill-opacity="0.4"/>
<path d="M452.741 499.864C450.774 499.715 448.704 501.046 449.888 503.583C451.085 506.131 456.031 505.029 455.514 502.137C455.261 500.702 454.018 499.967 452.741 499.876V499.864Z" fill="#DAB95B" fill-opacity="0.4"/>
<path d="M458.59 119.774C460.131 116.755 460.385 113.312 460.408 109.926C467.218 110.385 473.096 105.358 473.418 98.541C473.798 90.4726 467.873 84.8717 459.878 85.2504C459.878 84.9061 459.878 84.5618 459.878 84.2175C459.878 82.3811 460.293 80.453 458.912 79.0298C456.703 76.7344 450.687 77.1475 447.857 77.0328C442.657 76.8262 437.412 77.6411 432.258 78.2264C429.232 78.5707 426.218 78.9954 423.204 79.42C420.766 79.7643 418.867 79.6151 418.937 82.45C419.155 84.4815 419.305 86.5129 419.454 88.5559C411.954 88.6592 405.903 95.4422 407.168 102.971C408.434 110.512 416.245 116.067 423.688 114.517C424.654 118.087 425.942 121.817 428.347 124.571C431.28 127.923 436.146 129.61 440.69 129.736C441.771 135.945 442.335 142.235 443.221 148.467C441.311 148.834 439.402 149.19 437.481 149.511C436.181 149.729 434.075 149.511 432.971 150.165C432.097 150.682 431.246 152.736 430.624 153.586C429.531 155.078 428.565 156.524 427.852 158.234C427.806 158.337 427.829 158.452 427.863 158.567C427.863 158.613 427.84 158.647 427.829 158.693C427.783 161.93 428.37 165.189 428.899 168.368C429.163 169.952 429.451 171.524 429.739 173.097C429.842 173.671 429.819 174.635 430.118 175.151C431.027 176.701 433.477 178.101 434.846 179.249C435.582 179.868 436.319 180.5 437.101 181.062C437.124 181.085 437.158 181.085 437.181 181.108C437.262 181.2 437.377 181.246 437.492 181.246C438.366 181.498 439.747 181.165 440.506 181.142C444.555 180.97 448.593 180.764 452.631 180.419C454.184 180.293 456.945 180.442 458.659 179.65C458.889 179.65 459.142 179.524 459.257 179.306C459.43 179.18 459.591 179.053 459.717 178.893C460.856 177.458 461.857 175.886 462.927 174.394C463.721 173.292 464.537 172.202 465.366 171.123C465.688 170.698 465.331 169.493 465.297 169.011C464.906 163.892 464.848 158.762 464.273 153.643C464.273 153.62 464.261 153.597 464.25 153.574C464.238 153.413 464.158 153.264 463.985 153.149C461.604 151.531 459.614 149.224 457.67 147.124C457.44 146.871 457.106 146.309 456.692 146.321C454.345 146.401 452.033 146.78 449.686 146.86C448.95 146.883 448.938 148.031 449.686 148.008C451.573 147.939 453.436 147.732 455.323 147.549C456.646 147.411 456.565 147.606 457.509 148.616C459.211 150.441 460.96 152.346 462.996 153.815C461.961 155.938 460.246 157.798 458.763 159.6C458.337 160.116 457.9 160.633 457.463 161.138C457.382 161.195 457.325 161.264 457.279 161.356C457.267 161.367 457.255 161.39 457.232 161.402C457.232 161.402 457.244 161.402 457.256 161.402C457.186 161.413 457.048 161.436 456.818 161.459C452.666 161.964 448.513 162.457 444.348 162.905C442.243 163.135 440.126 163.353 438.01 163.525C436.158 163.674 435.513 163.387 433.926 162.274C432.488 161.275 431.142 160.151 429.842 158.98C428.312 157.614 431.234 154.653 432.143 153.413C432.522 152.897 433.293 151.21 434.018 151.129C434.95 151.026 435.882 150.888 436.813 150.751C438.309 150.533 439.781 150.269 441.265 149.993C437.573 151.061 432.971 153.907 433.19 157.27C433.362 159.932 438.769 160.185 440.46 160.437C444.429 161.057 448.317 159.932 452.159 159.037C454.46 158.498 457.382 157.637 458.072 155.089C458.716 152.713 457.842 150.888 455.599 149.993C454.138 149.419 452.366 149.408 450.836 149.316C448.513 149.178 448.812 144.599 448.616 142.786C448.133 138.183 448.076 133.501 447.017 128.967C447.017 128.921 446.983 128.887 446.96 128.852C451.849 127.441 456.232 124.388 458.59 119.751V119.774ZM460.016 90.5873C463.329 90.5873 465.745 93.3648 466.401 96.3489C466.827 98.3 466.643 100.354 465.688 102.122C464.595 104.142 462.283 103.809 460.362 103.958C460.304 99.5625 460.143 95.1782 460.005 90.5873H460.016ZM468.012 88.5673C471.221 90.5185 472.13 94.1108 472.268 97.6228C472.521 104.268 466.907 109.203 460.408 108.779C460.408 108.113 460.408 107.436 460.408 106.782C460.408 106.334 460.396 105.898 460.396 105.45C462.145 105.313 464.273 105.393 465.584 104.119C467.298 102.455 467.827 100.389 467.758 98.036C467.735 97.2671 467.609 96.4981 467.402 95.7635C467.954 95.1667 468.38 94.4666 468.851 93.8124C469.288 93.2041 468.288 92.6417 467.862 93.2386C467.551 93.6747 467.264 94.1223 466.942 94.547C466.769 94.1797 466.585 93.8124 466.366 93.4681C466.838 92.9975 467.103 92.3089 467.54 91.7924C468.012 91.23 467.206 90.4152 466.723 90.9776C466.482 91.253 466.286 91.5629 466.102 91.8728C465.998 92.0335 465.86 92.3319 465.699 92.5384C464.342 90.9316 462.386 89.8872 460.028 89.979C460.016 89.979 460.005 89.979 459.993 89.979C459.959 88.7739 459.924 87.5803 459.913 86.3752C462.823 86.249 465.527 87.0294 468.035 88.5559L468.012 88.5673ZM463.318 155.571C463.399 156.409 463.468 157.235 463.525 158.073C463.203 157.867 462.869 157.671 462.513 157.511C461.845 157.201 461.259 158.199 461.938 158.498C462.444 158.727 462.938 158.98 463.364 159.336C463.456 159.405 463.548 159.439 463.64 159.462C463.686 160.093 463.721 160.736 463.755 161.367C462.777 160.61 461.707 160.001 460.615 159.427C460.557 159.393 460.488 159.382 460.431 159.37C461.42 158.165 462.49 156.914 463.33 155.571H463.318ZM459.798 160.208C459.844 160.288 459.913 160.357 460.016 160.415C461.305 161.092 462.582 161.803 463.663 162.79C463.709 162.836 463.767 162.859 463.824 162.882C463.87 163.777 463.916 164.684 463.951 165.579C463.951 165.591 463.951 165.602 463.951 165.614C462.191 164.317 460.442 163.008 458.705 161.677C459.096 161.229 459.476 160.667 459.798 160.208ZM463.905 167.002C463.905 167.002 464.008 167.06 464.066 167.071C464.215 168.873 464.319 170.572 463.134 172.167C463.099 172.213 463.076 172.248 463.042 172.293C461.949 171.731 460.891 171.123 459.867 170.446C459.246 170.032 458.67 171.031 459.292 171.433C460.281 172.087 461.316 172.684 462.375 173.223C461.408 174.554 460.465 175.909 459.51 177.263C459.407 177.412 459.257 177.527 459.142 177.653C458.624 174.256 458.475 170.813 458.279 167.37C459.855 168.517 461.477 169.596 463.134 170.629C463.767 171.019 464.342 170.032 463.709 169.642C461.822 168.46 459.97 167.232 458.187 165.901C458.107 164.753 458.026 163.617 457.9 162.48C459.901 164.007 461.915 165.51 463.928 167.002H463.905ZM437.032 164.741C441.196 164.535 445.372 163.95 449.513 163.467C451.814 163.203 454.414 163.192 456.738 162.71C457.267 167.932 457.209 173.235 458.072 178.422C456.105 179.432 453.195 179.226 451.113 179.386C447.581 179.662 444.038 179.834 440.495 179.983C439.919 180.006 438.826 180.236 438.067 180.132C437.204 175.105 437.135 169.964 436.503 164.902C436.503 164.833 436.468 164.787 436.445 164.73C436.641 164.753 436.825 164.753 437.02 164.741H437.032ZM435.467 164.535C435.387 164.627 435.341 164.741 435.364 164.902C435.536 166.279 435.663 167.657 435.79 169.045C433.914 167.163 432.154 165.166 430.417 163.158C429.934 162.595 429.129 163.41 429.6 163.972C431.338 165.992 433.109 167.989 434.996 169.883C435.283 170.17 435.651 170.055 435.847 169.803C436.112 173.005 436.319 176.219 436.802 179.386C436.135 178.847 435.479 178.285 434.823 177.734C433.903 176.953 432.983 176.161 432.074 175.369C431.821 175.151 431.568 174.933 431.315 174.704C431.246 174.646 431.199 174.612 431.165 174.589C430.877 172.58 430.486 170.572 430.107 168.563C431.395 169.975 432.58 171.479 433.926 172.844C434.444 173.372 435.26 172.557 434.743 172.029C433.132 170.4 431.775 168.552 430.164 166.922C430.049 166.807 429.911 166.761 429.785 166.761C429.382 164.466 429.06 162.148 429.002 159.818C430.762 161.608 433.109 163.858 435.479 164.546L435.467 164.535ZM421.387 113.656C421.157 113.656 420.927 113.656 420.685 113.656C421.007 113.174 421.329 112.704 421.617 112.199C421.973 111.556 420.984 110.971 420.628 111.625C420.259 112.291 419.845 112.933 419.397 113.553C419.236 113.53 419.075 113.507 418.913 113.484C419.305 112.91 419.684 112.337 420.052 111.751C420.455 111.12 419.454 110.546 419.063 111.177C418.626 111.855 418.189 112.532 417.729 113.197C413.599 111.958 410.263 108.457 408.675 104.199C405.995 97.0031 412.356 89.7954 419.523 89.7036C419.592 90.7021 419.684 91.6891 419.765 92.6762C410.47 92.2745 411.309 111.843 422.215 110.225C422.376 110.202 422.491 110.121 422.549 110.018C422.652 110.477 422.767 110.936 422.871 111.384C422.813 111.418 422.756 111.476 422.71 111.533C422.227 112.222 421.789 112.922 421.375 113.645L421.387 113.656ZM419.88 93.8124C419.983 94.9601 420.11 96.0964 420.271 97.2326C420.823 101.25 421.502 105.255 422.376 109.226C422.261 109.134 422.1 109.089 421.916 109.112C412.609 110.489 412.184 93.1353 419.88 93.8124ZM422.836 113.519C422.974 113.301 423.101 113.083 423.239 112.876C423.285 113.048 423.331 113.232 423.377 113.404C423.193 113.438 423.009 113.484 422.836 113.519ZM448.605 149.993C448.662 150.246 448.915 150.406 449.157 150.418C451.032 150.487 452.919 150.533 454.759 150.957C457.428 151.577 457.957 154.768 455.806 156.42C453.298 158.349 449.203 158.418 446.223 159.209C445.717 159.347 445.188 159.416 444.67 159.473C444.9 159.221 444.946 158.808 444.555 158.624C443.267 157.993 442.094 157.155 440.92 156.352C440.31 155.927 439.735 156.925 440.345 157.339C441.484 158.119 442.6 158.911 443.842 159.542C442.784 159.577 441.714 159.496 440.656 159.336C440.874 159.095 440.92 158.67 440.552 158.452C439.413 157.74 438.366 156.903 437.285 156.111C436.687 155.674 436.112 156.673 436.71 157.098C437.653 157.786 438.585 158.498 439.563 159.152C438.93 159.037 438.297 158.9 437.688 158.762C435.076 158.165 433.431 157.224 435.571 154.86C437.55 152.667 441.047 150.682 444.049 150.705C444.452 150.705 444.659 150.338 444.601 149.982C443.566 143.245 443.002 136.462 441.852 129.747C442.496 129.725 443.14 129.679 443.762 129.587C444.486 129.484 445.2 129.346 445.913 129.174C445.913 129.22 445.913 129.265 445.913 129.311C447.489 136.106 447.006 143.21 448.605 150.016V149.993ZM441.645 128.554C441.645 128.554 441.633 128.485 441.622 128.451C441.495 127.785 440.587 127.991 440.518 128.565C435.111 128.462 429.934 126.075 427.219 120.772C426.161 118.706 425.298 116.491 424.585 114.207C424.861 113.909 424.711 113.358 424.309 113.255C422.411 106.747 421.628 99.6658 420.904 93.1926C420.904 93.1582 420.904 93.1123 420.892 93.0779C420.881 92.9287 420.858 92.7795 420.846 92.6417C420.467 89.256 420.455 85.8243 420.087 82.427C420.041 80.3497 422.48 80.6481 424.044 80.43C425.505 80.2234 426.955 80.0168 428.416 79.8217C431.924 79.3512 435.456 78.9839 438.976 78.6166C443.359 78.1575 447.661 78.0313 452.044 78.4789C453.977 78.674 457.934 78.433 458.693 80.8202C459.039 81.9221 458.728 83.4026 458.716 84.5618C458.682 92.6762 459.545 100.882 459.315 109.008C459.257 109.146 459.257 109.307 459.315 109.456C459.269 110.994 459.188 112.52 459.039 114.047C458.21 122.723 449.847 128.21 441.656 128.542L441.645 128.554Z" fill="#DAB95B" fill-opacity="0.4"/>
<path d="M454.621 118.603C453.574 119.98 452.343 121.254 450.698 121.897C450.02 122.161 450.319 123.274 451.009 122.999C452.965 122.23 454.356 120.818 455.61 119.177C456.059 118.592 455.058 118.018 454.621 118.603Z" fill="#DAB95B" fill-opacity="0.4"/>
<path d="M455.587 115.516C454.529 116.859 453.264 117.995 451.768 118.821C451.124 119.177 451.699 120.176 452.343 119.808C453.919 118.936 455.277 117.742 456.393 116.331C456.841 115.757 456.036 114.942 455.576 115.516H455.587Z" fill="#DAB95B" fill-opacity="0.4"/>
<path d="M456.151 112.13C455.311 113.404 454.299 114.609 452.976 115.389C452.343 115.768 452.919 116.755 453.551 116.377C455.047 115.493 456.197 114.15 457.14 112.704C457.543 112.084 456.554 111.51 456.151 112.13Z" fill="#DAB95B" fill-opacity="0.4"/>
<path d="M452.493 122.758C452.033 123.401 451.458 124.009 450.721 124.307C450.043 124.583 450.342 125.696 451.032 125.409C452.09 124.984 452.838 124.238 453.494 123.332C453.931 122.735 452.93 122.161 452.504 122.746L452.493 122.758Z" fill="#DAB95B" fill-opacity="0.4"/>
<path d="M456.278 109.157C455.967 109.812 455.622 110.477 455.001 110.879C454.38 111.281 454.955 112.279 455.576 111.866C456.37 111.35 456.864 110.569 457.267 109.731C457.589 109.066 456.588 108.48 456.278 109.157Z" fill="#DAB95B" fill-opacity="0.4"/>
<path d="M456.427 80.1087C456.772 79.4545 455.783 78.8692 455.438 79.5349C454.61 81.1187 450.48 81.4401 448.927 81.7155C445.234 82.3927 441.507 82.737 437.757 82.8862C437.492 82.8862 437.227 82.8977 436.963 82.9091C437.204 82.7485 437.457 82.5878 437.688 82.4156C438.274 81.9565 437.446 81.1531 436.871 81.6007C436.307 82.0369 435.651 82.1517 435.134 82.6566C435.099 82.6911 435.088 82.5534 435.065 82.5534H434.432C434.605 82.5534 434.777 82.5074 434.95 82.3812C435.548 81.9451 434.973 81.0498 434.374 81.486C433.799 81.8992 433.236 82.3582 432.626 82.714C432.545 82.7599 432.488 82.8403 432.442 82.9091C432.051 82.9091 431.648 82.9091 431.257 82.8977C431.349 82.8403 431.43 82.7944 431.522 82.737C432.143 82.3353 431.568 81.3482 430.946 81.7499C430.314 82.1631 429.715 82.5763 428.968 82.7599C428.91 82.7714 428.864 82.6911 428.818 82.714C428.577 82.714 428.324 82.5648 428.07 82.5648H428.047C428.347 82.5648 428.634 82.2894 428.945 82.0828C429.554 81.6696 428.979 80.74 428.37 81.1531C427.599 81.6581 426.84 82.3927 425.885 82.5074C425.747 82.5189 425.632 82.5993 425.551 82.6796C425.459 82.6796 425.367 82.6796 425.264 82.6796C424.964 82.6566 421.801 82.0713 422.342 81.8418C423.02 81.5434 422.434 80.5563 421.766 80.8547C419.822 81.6926 421.41 83.1157 422.698 83.483C425.977 84.4356 430.095 84.0683 433.443 84.1143C438.401 84.1831 443.336 83.7929 448.225 83.0124C450.365 82.6681 455.242 82.3927 456.427 80.1317V80.1087Z" fill="#DAB95B" fill-opacity="0.4"/>
<path d="M625.092 556.759C623.251 551.491 621.422 546.165 619.282 541.001C620.294 541.483 621.456 541.379 622.871 540.22C624.643 538.763 626.886 535.744 625.747 533.322C625.437 532.657 624.977 532.083 624.447 531.578C626.852 531.762 629.348 531.394 629.44 529.489C629.636 529.455 629.82 529.351 629.9 529.11C630.958 526.046 631.453 521.294 629.394 518.54C629.198 518.276 628.968 518.081 628.715 517.897C631.223 515.188 627.139 509.737 625.322 507.717C623.964 506.213 622.342 506.248 620.766 506.982C621.445 504.756 621.997 503.413 620.191 501.404C618.454 499.476 614.911 497.743 612.311 498.547C610.666 499.052 609.711 500.509 609.078 502.277C608.894 500.991 608.48 499.809 607.663 498.856C606.007 496.928 602.452 498.776 600.646 499.361C598.736 499.981 596.24 500.176 596.102 502.632C596.068 503.333 596.321 504.113 596.654 504.859C594.561 503.287 592.11 502.747 589.614 504.893C587.693 506.546 586.577 509.622 587.451 512.021C587.877 513.18 588.855 513.834 589.959 514.362C587.313 513.972 584.552 514.626 583.091 516.876C580.699 520.548 582.47 525.644 586.174 526.39C585.622 526.757 585.104 527.217 584.667 527.813C582.884 530.212 584.782 533.632 586.22 535.629C587.543 537.477 590.27 539.956 592.731 538.407C592.893 538.303 593.054 538.189 593.215 538.074C593.111 538.349 593.019 538.625 592.95 538.923C592.329 541.563 595.205 543.457 597.195 544.398C598.472 545.006 601.348 546.051 602.671 544.834C604.396 561.292 608.008 577.533 609.769 593.991C609.849 594.737 610.838 594.725 610.919 593.991C611.333 590.444 613.312 586.886 614.727 583.524C614.796 583.558 614.865 583.592 614.934 583.627C615.152 583.73 615.348 583.684 615.509 583.592C618.028 585.36 620.329 587.426 622.952 589.056C623.423 589.343 623.872 588.872 623.792 588.413C623.044 583.57 621.042 579.002 619.777 574.296C620.559 572.287 621.525 570.577 622.423 571.14C625.057 572.827 627.289 575.18 630.05 576.672C630.521 576.924 630.97 576.511 630.889 576.029C629.831 569.476 627.231 563.025 625.057 556.793L625.092 556.759ZM621.445 539.876C619.639 541.127 618.304 538.74 617.499 537.466C616.659 536.111 615.866 534.723 614.738 533.586C616.222 532.565 617.545 531.257 618.615 529.684C618.638 529.638 618.661 529.604 618.684 529.558C619.19 529.799 619.696 530.04 620.202 530.292C620.179 530.476 620.26 530.66 620.49 530.763C620.801 530.901 621.272 531.038 621.824 531.165C622.584 531.612 623.32 532.106 623.953 532.714C626.322 534.998 623.447 538.464 621.433 539.853L621.445 539.876ZM615.774 511.412C615.428 511.849 615.129 512.25 614.888 512.606C614.796 512.537 614.704 512.48 614.623 512.411C614.784 512.319 614.911 512.181 614.922 511.952C614.968 511.378 615.095 510.804 615.244 510.253C615.371 510.552 615.497 510.85 615.601 511.16C615.635 511.263 615.704 511.344 615.774 511.401V511.412ZM615.75 508.853C615.981 508.371 616.257 507.912 616.579 507.487C616.786 508.176 616.912 508.887 617.039 509.599C617.062 509.702 617.096 509.771 617.142 509.84C616.947 510.058 616.751 510.265 616.567 510.471C616.383 509.966 616.188 509.473 615.9 509.014C615.854 508.945 615.808 508.899 615.75 508.865V508.853ZM615.244 514.408C619.041 517.874 620.237 523.923 617.982 528.502C614.83 534.906 606.076 536.628 600.347 533.139C594.492 529.099 592.283 522.545 596.447 516.417C600.773 510.035 609.677 509.301 615.256 514.397L615.244 514.408ZM624.988 517.392C624.919 517.404 624.861 517.415 624.792 517.427C624.7 517.289 624.551 517.174 624.332 517.174C623.585 517.174 622.86 517.094 622.124 516.967C622.526 516.749 622.94 516.577 623.377 516.428C623.412 516.497 623.458 516.554 623.527 516.612C623.964 516.956 624.459 517.197 624.977 517.381L624.988 517.392ZM624.792 516.072C625.011 516.038 625.23 516.003 625.448 515.98C625.448 516.141 625.517 516.302 625.678 516.417C625.368 516.336 625.069 516.21 624.792 516.072ZM622.446 518.184C621.353 518.643 620.387 519.194 619.685 519.665C619.639 519.527 619.593 519.378 619.535 519.24C619.593 519.194 619.65 519.148 619.696 519.079C620.053 518.54 620.536 518.058 621.088 517.633C621.123 517.817 621.238 517.977 621.491 518.035C621.801 518.092 622.124 518.138 622.446 518.184ZM619.834 528.617C620.018 528.777 620.202 528.938 620.398 529.099C620.145 528.984 619.892 528.858 619.65 528.754C619.708 528.709 619.765 528.663 619.834 528.628V528.617ZM624.125 530.269C624.125 530.269 624.033 530.178 623.976 530.155C622.871 529.604 621.905 528.881 620.973 528.089C621.433 527.917 621.928 527.767 622.469 527.653C622.492 527.756 622.538 527.848 622.641 527.928C623.55 528.674 624.309 529.558 625.195 530.315C624.838 530.315 624.493 530.304 624.137 530.281L624.125 530.269ZM626.714 530.224C626.679 530.097 626.61 529.971 626.484 529.879C625.483 529.179 624.7 528.238 623.803 527.423C624.332 527.366 624.861 527.354 625.368 527.377C625.161 527.584 625.08 527.917 625.333 528.192C625.989 528.904 626.691 529.558 627.53 530.04C627.289 530.12 627.013 530.178 626.714 530.224ZM626.253 527.503C627.082 527.676 627.772 528.008 628.152 528.594C628.301 528.823 628.347 529.018 628.359 529.202C627.53 528.777 626.886 528.169 626.265 527.503H626.253ZM628.853 519.779C630.119 521.914 629.774 525.449 629.072 527.963C627.611 525.449 622.515 526.092 619.788 527.377C620.513 525.277 620.536 523.004 620.018 520.812C620.064 520.789 620.122 520.778 620.168 520.743C622.17 519.309 627.197 516.979 628.853 519.779ZM627.3 517.323C627.3 517.323 627.323 517.22 627.323 517.174C627.45 517.22 627.588 517.266 627.714 517.312C627.68 517.335 627.657 517.369 627.622 517.392C627.519 517.369 627.415 517.335 627.3 517.312V517.323ZM624.539 508.543C625.736 509.76 628.922 514.006 628.324 516.348C628.267 516.302 628.209 516.267 628.14 516.244C627.921 516.175 627.714 516.095 627.496 516.026C628.002 515.877 628.152 515.051 627.519 514.936C624.597 514.408 620.962 515.693 619.075 518.069C618.27 516.29 617.119 514.661 615.762 513.364C615.785 513.341 615.82 513.318 615.843 513.283C617.327 511.126 621.652 505.605 624.539 508.543ZM617.407 506.615C617.488 506.546 617.568 506.477 617.649 506.408C617.948 506.948 618.132 507.533 618.235 508.141C618.27 508.36 618.396 508.474 618.557 508.52C618.408 508.646 618.258 508.773 618.109 508.91C617.994 508.233 617.867 507.556 617.637 506.902C617.591 506.764 617.511 506.672 617.407 506.615ZM619.616 507.694C619.524 507.763 619.432 507.832 619.328 507.9C619.328 507.877 619.328 507.866 619.328 507.843C619.213 507.109 618.972 506.385 618.592 505.743C619.029 505.49 619.501 505.272 620.018 505.111C620.168 505.066 620.26 504.985 620.317 504.882C620.133 505.674 619.754 506.454 619.535 507.223C619.478 507.418 619.524 507.568 619.616 507.694ZM608.687 509.725C608.768 509.633 608.837 509.53 608.848 509.381C608.848 509.255 608.871 509.117 608.883 508.979C609.492 506.443 609.734 503.803 610.942 501.439C612.276 498.799 614.899 499.453 617.142 500.601C618.477 501.278 620.559 502.667 620.41 504.423C620.34 504.136 620.087 503.906 619.719 504.01C616.142 505.066 614.186 508.279 613.829 511.849C612.219 510.827 610.447 510.219 608.618 509.989C608.641 509.909 608.664 509.829 608.687 509.737V509.725ZM598.541 501.209C599.323 500.888 600.186 500.727 601.003 500.486C603.119 499.866 606.421 497.846 607.583 500.899C608.423 503.114 608.066 505.892 607.801 508.314C607.698 508.887 607.583 509.415 607.445 509.875C605.386 509.794 603.315 510.184 601.417 510.988C601.44 510.873 601.428 510.747 601.359 510.621C601.336 510.586 601.325 510.552 601.302 510.517C601.29 510.414 601.256 510.322 601.175 510.23C601.118 510.161 601.072 510.093 601.026 510.035C600.543 509.22 599.979 508.36 599.346 507.545C598.886 506.73 598.483 505.88 598.092 505.02C597.483 503.677 596.7 501.978 598.541 501.209ZM599.783 510.322C599.783 510.322 599.68 510.265 599.599 510.253C598.426 510.047 597.275 509.347 596.24 508.44C596.252 508.44 596.263 508.451 596.286 508.451C597.149 508.578 597.989 508.819 598.805 509.094C598.851 509.106 598.886 509.094 598.932 509.106C599.197 509.519 599.484 509.932 599.783 510.322ZM596.033 506.753C596.332 506.89 596.608 506.753 596.769 506.558C597.126 506.879 597.46 507.223 597.782 507.591C597.391 507.487 596.988 507.407 596.585 507.35C596.079 507.281 595.791 507.786 595.895 508.141C595.17 507.453 594.526 506.684 593.985 505.915C594.641 506.259 595.354 506.454 596.022 506.764L596.033 506.753ZM593.755 504.733C593.617 504.802 593.502 504.939 593.456 505.1C593.364 504.939 593.272 504.79 593.192 504.629C593.376 504.652 593.571 504.687 593.755 504.733ZM589.338 507.177C590.132 505.743 591.04 504.985 591.995 504.721C591.995 504.802 592.018 504.882 592.064 504.974C593.399 507.545 596.298 510.827 599.3 511.355C599.806 511.447 600.105 510.93 599.99 510.575C600.013 510.598 600.025 510.632 600.048 510.655C600.163 510.85 600.266 511.034 600.37 511.206C600.416 511.298 600.485 511.355 600.554 511.401C598.805 512.296 597.241 513.547 595.999 515.166C595.63 515.648 595.308 516.141 595.009 516.635C594.86 516.497 594.699 516.371 594.538 516.244C594.802 516.049 594.917 515.693 594.595 515.429C593.537 514.557 592.26 514.121 591.017 513.559C588.061 512.239 587.854 509.829 589.326 507.166L589.338 507.177ZM584.081 523.739C582.689 521.501 583.057 517.679 585.76 516.141C588.429 514.615 592.329 515.59 594.434 517.679C593.617 519.343 593.226 521.019 593.192 522.683C591.075 521.512 586.128 523.36 584.437 523.555C584.288 523.567 584.173 523.647 584.092 523.727L584.081 523.739ZM593.146 524.29C593.031 524.324 592.916 524.359 592.789 524.393C592.708 524.324 592.605 524.267 592.467 524.267C591.685 524.232 591.006 523.946 590.385 523.521C591.696 523.372 592.754 523.441 592.939 524.014C592.985 524.141 593.054 524.221 593.134 524.29H593.146ZM589.729 524.451C589.165 524.301 588.602 524.129 588.049 523.923C588.326 523.865 588.613 523.808 588.889 523.75C588.912 523.796 588.947 523.842 588.993 523.877C589.234 524.083 589.487 524.267 589.74 524.439L589.729 524.451ZM584.851 524.646C585.3 524.554 585.944 524.405 586.68 524.221C586.68 524.451 586.796 524.692 587.072 524.783C587.497 524.944 587.923 525.082 588.349 525.231C586.888 525.679 585.714 525.369 584.863 524.634L584.851 524.646ZM593.663 536.238C591.132 538.912 588.59 536.926 586.865 534.516C585.208 532.198 584.276 529.133 587.003 527.194C588.751 525.943 591.42 525.988 593.445 525.392C593.916 527.549 595.021 529.592 596.643 531.406C593.974 531.865 591.351 533.54 590.454 536.169C590.212 536.869 591.328 537.167 591.558 536.479C591.662 536.18 591.788 535.893 591.949 535.629C592.674 535.801 593.41 535.813 594.146 535.721C593.985 535.905 593.813 536.077 593.663 536.238ZM596.286 532.657C596.206 532.863 596.114 533.081 595.999 533.276C595.872 533.116 595.676 533.024 595.423 533.104C595.136 533.196 594.86 533.254 594.584 533.276C595.124 533.001 595.699 532.794 596.286 532.657ZM592.754 534.608C592.87 534.482 592.985 534.355 593.111 534.252C593.169 534.298 593.238 534.321 593.33 534.344C594.02 534.47 594.676 534.482 595.343 534.321C595.228 534.47 595.113 534.631 594.986 534.78C594.86 534.608 594.653 534.493 594.4 534.539C593.836 534.642 593.295 534.677 592.754 534.619V534.608ZM602.74 541.311C602.705 542.47 602.671 544.065 601.187 544.214C600.209 544.318 599.139 543.904 598.23 543.583C595.745 542.688 593.272 540.691 594.607 537.856C595.469 536.042 597.011 534.539 598.38 533.07C598.828 533.449 599.289 533.804 599.783 534.149C600.922 534.849 602.119 535.342 603.338 535.664C602.82 537.489 602.786 539.417 602.74 541.299V541.311ZM603.672 543.342C604.465 541.115 603.867 538.131 604.454 535.916C607.123 536.387 609.849 536.031 612.322 534.964C613.369 536.754 614.738 538.304 615.739 540.117C616.579 541.643 617.177 542.998 614.83 543.778C613.944 544.077 612.99 544.214 612.069 544.398C611.379 544.536 610.516 544.845 609.63 545.064C609.343 544.627 608.618 544.788 608.572 545.259C607.594 545.362 606.674 545.201 606.087 544.352C604.741 542.401 606.283 538.946 606.087 536.72C606.018 535.985 604.868 535.985 604.937 536.72C605.11 538.602 604.074 541.552 604.557 543.744C604.281 543.617 604.005 543.491 603.729 543.353C603.706 543.353 603.695 543.353 603.672 543.342ZM603.879 544.685C604.35 544.903 604.822 545.109 605.317 545.27C605.374 545.339 605.432 545.408 605.501 545.477C606.478 546.395 607.663 546.51 608.871 546.338C609.17 547.256 609.458 548.185 609.734 549.115C607.997 548.633 606.225 548.231 604.58 547.474C604.442 547.416 604.316 547.416 604.201 547.439C604.097 546.521 603.982 545.592 603.879 544.673V544.685ZM604.557 550.527C604.477 549.884 604.408 549.253 604.327 548.61C606.191 549.413 608.181 549.85 610.125 550.423C610.344 551.169 610.539 551.915 610.746 552.673C608.618 552.202 606.444 551.709 604.58 550.538C604.58 550.538 604.569 550.538 604.557 550.538V550.527ZM604.753 551.961C606.605 552.937 608.699 553.407 610.735 553.844C610.861 553.867 610.965 553.844 611.068 553.809C611.391 554.98 611.69 556.162 612 557.333C609.895 556.793 607.847 556.082 605.754 555.496C605.547 555.439 605.374 555.496 605.259 555.6C605.087 554.383 604.914 553.166 604.753 551.95V551.961ZM605.386 556.587C605.386 556.587 605.42 556.61 605.443 556.621C607.663 557.241 609.838 558.01 612.081 558.561C612.161 558.584 612.242 558.584 612.311 558.561C612.564 559.536 612.806 560.512 613.059 561.487C610.735 560.937 608.469 560.145 606.133 559.64C606.03 559.617 605.938 559.628 605.846 559.64C605.685 558.618 605.524 557.597 605.374 556.575L605.386 556.587ZM606.03 560.799C608.457 561.35 610.815 562.199 613.254 562.727C613.3 562.727 613.335 562.727 613.381 562.727C613.438 562.934 613.484 563.14 613.542 563.335C613.806 564.38 614.105 565.447 614.416 566.514C611.874 565.367 609.113 564.724 606.663 563.381C606.582 563.335 606.501 563.312 606.421 563.312C606.283 562.474 606.168 561.637 606.03 560.799ZM606.628 564.655C609.274 565.975 612.196 566.629 614.819 567.995C615.141 569.108 615.451 570.233 615.75 571.358C613.07 570.508 610.424 569.556 607.905 568.27C607.64 568.133 607.387 568.225 607.226 568.385C607.019 567.146 606.824 565.895 606.628 564.644V564.655ZM607.376 569.292C609.964 570.612 612.691 571.599 615.451 572.483C615.693 572.563 615.877 572.483 616.004 572.333C616.211 573.148 616.395 573.952 616.567 574.755C613.737 573.825 610.838 573.091 608.193 571.691C608.031 571.61 607.882 571.599 607.755 571.645C607.629 570.864 607.502 570.084 607.376 569.292ZM610.597 590.731C610.367 588.838 610.114 586.944 609.838 585.039C610.608 585.417 611.414 585.739 612.253 585.957C612.334 585.98 612.414 585.98 612.495 585.968C611.805 587.575 611.114 589.193 610.608 590.731H610.597ZM612.875 585.073C612.806 584.97 612.713 584.889 612.564 584.843C611.552 584.58 610.585 584.201 609.677 583.673H609.653C609.527 582.846 609.412 582.02 609.297 581.194C610.827 581.664 612.299 582.341 613.737 583.053C613.473 583.719 613.185 584.396 612.886 585.085L612.875 585.073ZM621.514 583.489C621.893 584.763 622.227 586.049 622.492 587.346C619.926 585.578 617.614 583.489 614.968 581.825C614.646 581.63 614.301 581.71 614.163 581.997C612.541 581.205 610.884 580.425 609.147 579.954C609.124 579.954 609.101 579.954 609.078 579.954C608.929 578.979 608.779 578.015 608.618 577.039C612.667 579.53 617.177 581.113 621.33 583.455C621.387 583.489 621.456 583.501 621.514 583.512V583.489ZM621.042 581.974C616.855 579.748 612.357 578.141 608.388 575.524C608.25 574.64 608.1 573.745 607.951 572.85C610.769 574.284 613.841 575.042 616.82 576.063C617.004 577.073 617.154 578.083 617.246 579.082C617.304 579.69 618.247 579.908 618.373 579.231C618.477 578.715 618.776 577.521 619.19 576.201C619.765 578.129 620.433 580.046 621.042 581.974ZM625.667 572.069C624.769 571.392 623.113 569.625 621.87 569.625C620.214 569.625 618.926 572.712 618.132 575.409C618.074 575.329 617.994 575.26 617.879 575.214C617.856 575.214 617.833 575.203 617.81 575.191C617.303 572.678 616.579 570.164 615.877 567.685C615.912 567.536 615.877 567.375 615.75 567.249C615.474 566.273 615.21 565.309 614.968 564.345C613.427 558.262 611.92 552.122 609.999 546.131C610.666 545.97 611.333 545.764 611.954 545.614C614.082 545.087 617.223 545.075 617.844 542.493C618.12 541.345 616.878 539.83 616.383 538.935C615.509 537.362 614.29 536.02 613.358 534.482C613.496 534.413 613.645 534.332 613.783 534.252C615.141 535.572 616.337 538.189 617.81 539.841C617.741 539.991 617.718 540.163 617.81 540.335C620.156 545.81 622.066 551.502 624.033 557.115C626.069 562.922 628.451 568.948 629.624 575.042C628.255 574.147 626.978 573.045 625.69 572.069H625.667Z" fill="#DAB95B" fill-opacity="0.4"/>
<path d="M606.651 530.614C608.031 530.453 609.366 530.35 610.712 529.983C611.057 529.891 611.264 529.455 611.057 529.145C608.779 525.793 608.676 521.926 608.02 518.069C607.629 515.762 607.238 515.934 605.156 515.28C604.833 515.177 604.603 515.349 604.511 515.59C604.488 515.625 604.465 515.648 604.454 515.682C603.649 517.668 601.911 519.091 600.727 520.835C600.577 521.053 600.658 521.352 600.819 521.535C601.612 522.431 602.326 522.959 603.464 523.28C603.787 523.372 604.063 523.177 604.166 522.878C604.258 522.695 604.339 522.522 604.431 522.339C605.328 524.818 605.984 527.423 606.076 530.04C606.076 530.327 606.329 530.648 606.651 530.614ZM604.005 520.594C603.775 521.088 603.534 521.535 603.315 522.006C600.957 521.099 603.177 519.573 604.258 518.264C604.718 517.713 605.052 517.14 605.328 516.52C605.811 516.669 606.294 516.818 606.766 516.979C606.996 517.048 607.376 521.466 607.41 521.776C607.755 524.393 608.308 526.803 609.642 529.041C608.825 529.202 608.008 529.305 607.18 529.397C606.985 526.425 606.145 523.486 605.052 520.72C604.891 520.307 604.235 520.089 604.005 520.583V520.594Z" fill="#DAB95B" fill-opacity="0.4"/>
<path d="M596.838 526.884C597.068 527.584 598.173 527.285 597.943 526.574C596.447 521.937 597.586 517.863 601.9 515.338C606.547 512.618 611.563 512.985 614.428 517.817C614.807 518.448 615.797 517.874 615.417 517.243C612.564 512.445 607.859 511.367 602.832 513.628C597.183 516.164 594.917 520.961 596.827 526.884H596.838Z" fill="#DAB95B" fill-opacity="0.4"/>
<path d="M615.141 519.86C615.141 519.86 615.175 519.951 615.187 519.997C615.428 520.686 616.544 520.388 616.291 519.687C616.28 519.642 616.257 519.596 616.245 519.55C616.004 518.861 614.888 519.16 615.141 519.86Z" fill="#DAB95B" fill-opacity="0.4"/>
<path d="M616.027 523.67C617.373 529.122 610.781 534.275 605.685 533.242C604.96 533.093 604.649 534.195 605.374 534.344C611.333 535.56 618.707 529.707 617.131 523.36C616.958 522.637 615.843 522.947 616.027 523.67Z" fill="#DAB95B" fill-opacity="0.4"/>
<path d="M603.511 532.863C603.269 532.175 602.153 532.473 602.406 533.173C602.418 533.219 602.441 533.265 602.452 533.311C602.694 534 603.81 533.701 603.557 533.001C603.545 532.955 603.522 532.909 603.511 532.863Z" fill="#DAB95B" fill-opacity="0.4"/>
<path d="M606.582 506.397C606.766 507.109 607.87 506.81 607.686 506.087C607.169 504.067 606.973 501.99 606.317 500.016C606.087 499.316 604.971 499.614 605.213 500.326C605.869 502.311 606.064 504.388 606.582 506.397Z" fill="#DAB95B" fill-opacity="0.4"/>
<path d="M621.583 561.51C619.995 560.845 618.488 560.018 616.947 559.272C616.28 558.951 615.693 559.938 616.372 560.259C618.005 561.051 619.604 561.912 621.284 562.612C621.963 562.899 622.262 561.786 621.594 561.51H621.583Z" fill="#DAB95B" fill-opacity="0.4"/>
<path d="M619.708 558.48C620.375 558.802 620.962 557.803 620.283 557.493C619.041 556.897 617.798 556.311 616.521 555.806C615.831 555.531 615.532 556.644 616.211 556.908C617.396 557.379 618.546 557.93 619.696 558.48H619.708Z" fill="#DAB95B" fill-opacity="0.4"/>
<path d="M260.851 550.773C263.623 544.655 265.165 538.09 267.166 531.709C266.821 531.755 266.465 531.801 266.12 531.847C268.823 537.287 271.262 542.876 273.747 548.431C273.827 548.626 274.057 548.695 274.241 548.718C279.901 549.304 285.572 549.958 291.255 550.279C291.117 549.958 290.979 549.625 290.853 549.304C288.149 552.689 284.767 555.295 281.581 558.198C280.223 559.438 279.475 560.264 279.993 562.032C281.569 567.541 284.917 573.015 285.411 578.777C285.653 578.593 285.894 578.41 286.136 578.226C280.729 576.86 275.495 574.496 270.353 572.361C268.846 571.741 267.373 573.153 266.2 573.968C262.542 576.539 259.068 579.339 255.191 581.6C255.479 581.761 255.766 581.933 256.054 582.094C256.364 575.54 256.376 568.952 256.445 562.388C256.088 562.479 255.732 562.583 255.375 562.674C254.558 561.056 256.813 562.64 255.893 561.917C255.663 561.733 255.433 561.55 255.202 561.366C254.409 560.723 253.58 560.127 252.752 559.53C249.681 557.349 246.31 555.605 242.87 554.09C242.824 554.434 242.778 554.79 242.732 555.134C248.668 553.768 254.593 552.402 260.529 551.037C261.253 550.876 260.943 549.763 260.218 549.935C254.282 551.301 248.358 552.666 242.422 554.032C241.962 554.135 241.824 554.881 242.284 555.077C246.091 556.764 249.727 558.738 253.097 561.182C253.695 561.619 255.202 563.363 256.123 563.179C256.376 563.134 256.548 562.87 256.548 562.629C256.548 562.433 256.468 562.273 256.376 562.101C256.111 561.573 255.306 561.848 255.306 562.388C255.237 568.952 255.225 575.529 254.915 582.094C254.892 582.53 255.421 582.805 255.778 582.587C259.24 580.567 262.427 578.146 265.648 575.781C267.132 574.691 268.708 572.912 270.571 573.681C275.541 575.735 280.603 578.008 285.837 579.328C286.171 579.408 286.596 579.156 286.562 578.777C286.125 573.681 283.479 568.551 281.788 563.776C281.477 562.904 281.178 562.032 280.948 561.148C280.706 560.218 282.259 559.14 282.857 558.6C285.894 555.834 289.093 553.344 291.669 550.118C291.98 549.728 291.796 549.166 291.267 549.143C288.069 548.959 284.882 548.626 281.696 548.316C279.97 548.156 278.233 547.984 276.507 547.8C276.001 547.754 275.507 547.697 275.012 547.651C274.103 547.559 274.563 547.421 274.747 547.834C272.263 542.291 269.835 536.713 267.132 531.284C266.902 530.814 266.223 530.975 266.085 531.422C264.118 537.7 262.611 544.196 259.884 550.21C259.585 550.876 260.575 551.461 260.874 550.784L260.851 550.773Z" fill="#DAB95B" fill-opacity="0.6"/>
<path d="M4.53306 556.266C6.45419 552.008 8.06472 547.555 8.49036 542.883C8.54788 542.264 7.71961 542.183 7.42052 542.597C5.47638 545.305 2.77304 547.256 0.196195 549.322C-0.378993 549.781 0.437729 550.596 1.01292 550.137C3.12961 548.438 5.28084 546.797 7.08693 544.8C6.46573 548.576 5.10827 552.214 3.54376 555.692C3.24466 556.358 4.23397 556.943 4.53306 556.266Z" fill="#DAB95B"/>
<path d="M62.65 538.224C64.9623 539.142 67.2861 540.003 69.6558 540.749C70.3691 540.978 70.6681 539.865 69.9664 539.647C67.9877 539.016 66.0321 538.304 64.0995 537.547C66.8604 535.986 71.2663 534.184 70.3345 530.534C69.4947 527.229 65.4224 527.194 64.1915 530.213C63.9155 530.901 65.0198 531.188 65.2959 530.523C65.9171 528.996 67.5161 528.617 68.7125 529.754C69.9434 530.913 68.9771 532.784 68.0568 533.725C66.5498 535.274 64.272 535.94 62.512 537.168C62.0863 537.466 62.1784 538.029 62.65 538.212V538.224Z" fill="#DAB95B"/>
<path d="M90.0175 583.731C89.7644 581.619 88.0964 580.77 86.4283 580.953C87.038 579.599 87.2105 578.05 86.7734 576.603C85.8531 573.562 82.8737 575.685 81.6313 577.154C81.1596 577.717 81.9649 578.532 82.4481 577.969C83.7135 576.466 85.6921 575.215 85.8646 578.061C85.9337 579.266 85.5425 580.494 84.8408 581.47C84.2311 581.803 83.6904 582.296 83.3338 582.927C83.0577 583.409 83.6214 584.041 84.116 583.708C84.7142 583.318 85.2435 582.813 85.6691 582.239C87.2681 581.562 89.2007 582.767 88.8786 585.085C88.568 587.369 85.462 589.217 83.3683 588.218C82.7011 587.897 82.1144 588.896 82.7931 589.205C86.3248 590.881 90.4431 587.415 90.006 583.731H90.0175Z" fill="#DAB95B"/>
<path d="M80.6994 578.635C78.6403 577.923 76.5811 578.096 74.683 578.864C73.6706 574.297 72.7158 569.717 71.5654 565.218C70.9327 562.739 70.3345 560.18 69.7018 557.597C72.5893 557.173 75.4537 555.795 77.9615 553.259C78.4792 552.731 77.6739 551.916 77.1447 552.444C74.7865 554.831 72.1061 556.105 69.4258 556.495C68.0683 551.078 66.4923 545.638 64.0305 540.806C63.927 540.6 63.6049 540.462 63.3863 540.542C60.1192 541.782 56.8636 543.01 53.5966 544.249C53.424 543.239 53.3435 542.183 53.378 541.105C53.401 540.359 52.2506 540.37 52.2276 541.105C52.1816 542.333 52.2851 543.526 52.4922 544.674C42.2999 548.53 32.0961 552.387 21.9037 556.243C20.2702 553.89 18.027 551.824 15.2085 550.286C14.5528 549.931 13.9776 550.918 14.6218 551.273C17.2102 552.685 19.2694 554.544 20.7994 556.656C15.4616 558.676 10.1124 560.696 4.77463 562.716C4.61358 562.773 4.51007 562.888 4.44105 563.014C4.2915 563.233 4.29145 563.519 4.53303 563.692C4.61355 563.783 4.71712 563.852 4.85516 563.852C10.8716 566.435 16.8881 568.994 22.9161 571.542C22.3409 573.195 21.5126 574.813 20.3852 576.362C19.9481 576.959 20.9489 577.533 21.3745 576.948C22.5249 575.352 23.3762 573.688 23.9744 572.001C31.6244 575.238 39.2859 578.451 46.9474 581.653C53.2974 584.305 59.6475 586.956 66.0206 589.561C64.9048 593.957 65.8595 598.399 70.2425 600.373C70.9097 600.671 71.4964 599.684 70.8292 599.386C67.0444 597.687 66.1817 593.865 67.0905 590.009C67.263 590.078 67.4241 590.147 67.5966 590.215C70.8407 591.547 74.2573 593.383 77.697 594.175C78.1111 594.267 78.5367 593.9 78.4102 593.475C77.0297 589.079 75.9484 584.557 74.936 580.035C76.6616 579.312 78.5252 579.128 80.3888 579.76C81.0905 580.001 81.3896 578.887 80.6994 578.658V578.635ZM62.489 542.103C62.8801 541.954 63.2712 541.805 63.6739 541.655C62.9836 541.919 63.4898 542.264 63.8579 543.182C64.2835 544.215 64.6402 545.271 65.0083 546.327C66.1587 549.712 67.1595 553.144 68.1028 556.599C61.7067 556.817 55.5407 552.134 53.8382 545.374C56.7256 544.284 59.6015 543.193 62.489 542.103ZM6.46565 563.301C11.4698 561.408 16.474 559.514 21.4781 557.62C23.8479 561.442 24.4921 565.999 23.2612 570.452C17.6588 568.076 12.0565 565.7 6.46565 563.301ZM47.9137 580.804C40.0566 577.522 32.1996 574.216 24.3425 570.899C25.7 566.171 25.0213 561.293 22.5595 557.207C29.6688 554.521 36.7781 551.824 43.8874 549.139C46.8439 548.025 49.8003 546.901 52.7453 545.787C54.6434 553.11 61.4421 558.091 68.4134 557.723C68.8045 559.181 69.1956 560.639 69.5868 562.096C71.0822 567.789 72.2787 573.608 73.5786 579.381C70.2885 581.16 67.6081 584.706 66.3657 588.448C60.1997 585.923 54.0567 583.364 47.9137 580.793V580.804ZM77.0297 592.786C74.0848 591.937 71.1628 590.411 68.3789 589.274C68.0568 589.148 67.7462 589.01 67.4241 588.884C68.517 585.498 70.9212 582.25 73.8547 580.563C74.798 584.683 75.8103 588.769 77.0297 592.786Z" fill="#DAB95B"/>
</svg>
