<svg width="960" height="657" viewBox="0 0 960 657" fill="none" xmlns="http://www.w3.org/2000/svg">
<g clip-path="url(#clip0_61_17815)">
<path d="M606.662 592.498C604.902 591.546 603.142 590.616 601.393 589.652C600.795 589.319 598.092 588.206 597.988 587.609C597.402 584.085 597.275 580.436 597.735 576.889C597.804 576.338 597.057 576.155 596.711 576.465C595.181 577.888 593.628 579.265 592.11 580.7C590.741 581.997 589.107 584.808 587.198 584.372C584.161 583.684 581.101 583.087 578.041 582.479C577.845 582.444 577.684 582.479 577.569 582.582C577.339 582.708 577.201 582.961 577.316 583.236C577.339 583.351 577.397 583.466 577.512 583.534C579.421 586.186 581.618 588.607 584.023 590.823C584.678 591.431 584.207 590.823 583.873 591.419C583.194 592.636 582.516 593.864 581.826 595.069C580.733 596.997 579.559 598.891 578.248 600.693C577.914 601.141 578.455 601.68 578.915 601.565C583.01 600.59 586.542 598.34 590.097 596.182C591.926 599.362 593.007 602.862 594.779 606.076C595.078 606.615 595.872 606.351 595.895 605.777C596.021 602.518 597.16 599.442 597.448 596.217C597.689 593.531 604.085 594.013 606.501 593.566C607.019 593.474 607.076 592.716 606.639 592.475L606.662 592.498ZM596.826 593.772C596.562 593.818 596.401 594.093 596.389 594.346C596.309 597.525 595.354 600.567 594.928 603.688C593.559 600.819 592.524 597.812 590.856 595.069C590.695 594.794 590.327 594.69 590.039 594.851C586.864 596.768 583.735 598.822 580.203 599.981C582.125 597.135 583.77 594.116 585.426 591.109C585.553 590.891 585.541 590.57 585.334 590.386C583.125 588.447 581.101 586.278 579.318 583.936C582.332 584.533 585.357 585.118 588.337 585.853C588.544 585.899 588.774 585.853 588.912 585.704C591.316 583.133 593.858 580.757 596.424 578.37C596.159 581.56 596.355 584.751 596.838 587.919C596.987 588.906 598.425 589.33 599.185 589.778C600.933 590.8 602.728 591.752 604.511 592.705C601.946 593.083 599.369 593.302 596.815 593.784L596.826 593.772Z" fill="#C78B5F" fill-opacity="0.4"/>
<path d="M614.531 395.332C613.587 394.896 612.391 395.068 611.793 396.411C611.126 397.914 612.356 400.072 614.117 399.475C616.417 398.694 616.82 396.411 614.519 395.332H614.531Z" fill="#C78B5F" fill-opacity="0.4"/>
<path d="M334.817 319.353C333.045 316.805 332.044 314.154 331.734 311.066C331.642 310.171 331.607 308.679 332.999 308.484C333.735 308.381 334.012 309.723 334.127 310.182C334.368 311.124 334.391 312.134 334.391 313.098C334.391 313.798 335.335 313.867 335.565 313.258C335.967 312.168 336.795 311.192 337.566 310.355C337.681 310.24 338.935 309.035 339.004 309.838C339.062 310.55 338.556 311.514 338.279 312.122C337.118 314.739 335.714 317.023 333.862 319.226C333.367 319.812 334.207 320.661 334.702 320.064C336.335 318.113 337.543 316.219 338.694 313.958C339.384 312.616 340.615 310.653 340.04 309.092C338.889 305.959 334.794 311.87 334.403 312.948C334.794 313.006 335.185 313.052 335.576 313.109C335.565 310.779 334.978 305.741 331.492 307.83C330.112 308.656 330.491 310.997 330.664 312.26C331.055 315.129 332.125 317.585 333.77 319.961C334.207 320.581 335.242 319.995 334.805 319.364L334.817 319.353Z" fill="#C78B5F" fill-opacity="0.4"/>
<path d="M680.574 352.579C681.436 349.939 683.979 344.947 680.942 342.835C678.445 341.09 676.869 344.006 676.662 346.393C675.834 345.544 674.822 344.637 673.752 344.821C672.187 345.084 671.405 346.003 671.394 347.587C671.371 351.19 677.307 352.315 679.872 353.038C680.206 353.13 680.482 352.866 680.574 352.579ZM674.787 350.02C674.27 349.767 673.809 349.423 673.372 349.044C673.223 348.872 673.085 348.7 672.935 348.528C672.176 347.346 672.659 346.565 674.408 346.152C675.339 346.485 676.087 347.552 676.789 348.218C677.008 348.424 677.272 348.413 677.468 348.275C677.744 348.172 677.974 347.896 677.882 347.529C677.652 346.611 677.916 345.544 678.238 344.694C679.136 342.41 681.034 344.155 681.114 345.831C681.206 347.839 680.286 349.848 679.607 351.73C677.962 351.259 676.329 350.777 674.787 350.008V350.02Z" fill="#C78B5F" fill-opacity="0.4"/>
<path d="M293.541 619.171C292.276 618.161 290.999 617.151 289.688 616.187C290.527 615.177 291.402 614.19 292.276 613.215C292.782 612.641 291.942 611.803 291.436 612.377C290.516 613.41 289.596 614.443 288.71 615.51C287.548 614.707 286.363 613.938 285.098 613.295C284.419 612.939 283.809 613.972 284.499 614.328C285.707 614.948 286.846 615.682 287.962 616.44C286.984 617.668 286.075 618.942 285.293 620.307C284.914 620.973 285.949 621.581 286.328 620.904C287.088 619.561 287.985 618.31 288.94 617.117C290.217 618.046 291.459 619.033 292.702 620.02C293.3 620.491 294.151 619.653 293.541 619.183V619.171Z" fill="#C78B5F" fill-opacity="0.4"/>
<path d="M618.557 90.9223C618.189 88.2596 615.612 86.6757 613.058 86.9741C612.978 86.9626 612.897 86.9741 612.805 86.9856C612.713 86.9971 612.633 87.0315 612.575 87.0774C612.552 87.0774 612.541 87.0889 612.518 87.1004C609.665 81.6602 607.64 75.7839 605.155 70.1715C606.938 69.3337 608.422 67.922 609.089 65.7298C610.389 61.4144 606.19 58.3385 602.406 57.7073C595.388 56.5366 593.203 65.7872 597.517 69.6895C595.86 72.5473 594.008 75.2444 592.006 77.8727C591.362 77.448 590.672 77.0808 589.97 76.7824C583.655 74.6591 577.983 77.3218 575.855 83.6343C573.888 89.4761 578.225 95.4098 583.816 96.9822C589.499 98.5775 595.342 95.6509 597.056 90.1533C601.186 90.8419 605.374 91.0944 609.469 91.9782C609.596 94.4113 611.275 96.6953 614.347 96.351C616.785 96.0755 618.879 93.3554 618.557 90.9223ZM601.692 58.6369C605.213 58.7288 608.813 61.6669 607.985 65.3511C607.548 67.2793 606.029 68.5188 604.373 69.2074C604.304 69.2189 604.223 69.2648 604.166 69.3107C602.923 69.7813 601.635 69.8502 600.68 69.8502C600.611 69.8502 600.565 69.7354 600.508 69.7354C594.422 68.5877 595.135 58.4763 601.704 58.6484L601.692 58.6369ZM598.448 70.3666C598.978 70.688 599.564 70.9405 600.232 71.1126C600.335 71.1356 600.427 71.1356 600.508 71.1126C600.565 71.1126 600.611 71.1356 600.669 71.1356C601.819 71.1356 602.992 70.952 604.097 70.5847C606.593 76.2315 608.629 82.1307 611.494 87.6054C610.378 88.3629 609.722 89.5335 609.515 90.8075C605.489 89.9582 601.382 89.7057 597.333 89.0285C598.126 84.9197 596.102 80.9945 592.938 78.5154C594.94 75.8986 596.792 73.2015 598.448 70.3666ZM596.102 89.304C595.078 95.0081 589.153 96.7756 584.103 95.8574C578.696 94.8819 575.636 88.8908 576.948 83.9212C578.501 78.0678 584.264 76.0593 589.648 77.8727C594.25 79.8009 596.976 84.3573 596.09 89.3155L596.102 89.304ZM613.541 95.2377C609.492 95.2721 609.78 89.017 613.104 88.0874C615.025 87.766 616.9 88.9482 617.384 90.8304C617.959 93.08 615.601 95.2262 613.541 95.2377Z" fill="#C78B5F" fill-opacity="0.4"/>
<path d="M483.784 613.009C478.389 613.927 473.074 615.488 467.794 616.911C459.258 619.218 450.757 621.651 442.256 624.085C427.347 628.354 412.484 632.979 397.414 636.675C396.874 636.801 396.85 637.662 397.414 637.777C399.554 638.224 401.717 638.339 403.891 638.592C405.95 638.821 407.986 639.189 410.011 639.59C411.679 639.912 413.347 640.279 415.015 640.658C415.958 640.864 417.672 640.772 418.098 641.702C420.594 647.2 422.274 653.007 424.367 658.654C424.367 658.803 424.425 658.941 424.517 659.056C425.713 662.246 427.048 665.609 428.75 668.605C428.773 668.639 428.796 668.903 428.819 668.903C428.923 668.903 429.061 668.868 429.199 668.868C429.349 668.891 429.521 668.742 429.648 668.605C436.918 661.443 445.316 655.601 453.656 649.782C453.691 649.759 453.714 649.69 453.748 649.656C456.279 650.677 458.81 651.653 461.398 652.514C463.089 653.076 463.745 651.4 464.585 650.161C466.931 646.672 469.048 642.999 471.153 639.361C475.732 631.464 480.552 623.43 484.026 614.972C484.199 614.558 484.348 614.145 484.486 613.721C484.636 613.273 484.187 612.94 483.784 613.009ZM427.612 663.578C427.612 663.578 427.704 663.486 427.738 663.417C428.336 662.258 429.107 661.213 429.912 660.192C429.74 662.292 429.475 664.392 429.027 666.481C428.52 665.529 428.049 664.565 427.612 663.578ZM430.05 658.183C428.969 659.503 427.899 660.835 427.048 662.315C426.542 661.144 426.07 659.962 425.621 658.769C427.658 657.081 428.773 654.511 430.28 652.284C430.223 654.247 430.165 656.221 430.062 658.183H430.05ZM430.338 650.253C429.464 651.205 428.716 652.261 428.06 653.397C427.232 654.82 426.438 656.496 425.207 657.655C424.954 656.978 424.713 656.29 424.471 655.612C424.483 655.578 424.506 655.555 424.529 655.521C425.955 651.446 428.279 647.854 430.672 644.296C430.499 646.27 430.407 648.255 430.338 650.253ZM422.918 651.125C422.918 651.125 422.953 651.102 422.964 651.079C424.552 648.542 425.736 645.822 427.025 643.137C428.049 641.002 429.211 637.915 430.936 636.25C431.028 636.17 431.063 636.067 431.086 635.975C432.086 635.527 433.099 635.103 434.1 634.735C435.584 634.196 437.068 633.634 438.54 633.083C436.446 635.114 434.686 637.467 432.639 639.556C432.581 639.613 432.558 639.671 432.524 639.728C432.133 639.923 431.753 640.118 431.362 640.313C431.362 640.313 431.362 640.313 431.339 640.325C431.304 640.348 431.281 640.371 431.258 640.394C431.12 640.497 431.074 640.635 431.074 640.784C431.017 641.14 430.971 641.495 430.925 641.851C428.302 645.742 425.621 649.61 423.884 653.971C423.562 653.03 423.229 652.077 422.906 651.136L422.918 651.125ZM421.238 646.385C421.457 646.454 421.71 646.408 421.848 646.121C423.056 643.596 424.218 640.967 425.978 638.764C426.105 638.603 426.128 638.408 426.082 638.247C427.025 637.823 427.968 637.387 428.9 636.962C427.945 638.431 427.243 640.198 426.473 641.668C425.069 644.33 423.953 647.108 422.435 649.702C422.044 648.588 421.653 647.487 421.25 646.385H421.238ZM440.197 633.071C440.427 632.876 440.415 632.624 440.3 632.428C441.105 632.13 441.911 631.832 442.716 631.522C441.796 632.819 440.967 634.196 439.76 635.252C439.449 635.516 439.564 635.872 439.806 636.067C438.31 636.824 436.815 637.57 435.319 638.316C436.884 636.514 438.391 634.655 440.197 633.071ZM444.821 630.718C445.718 630.374 446.616 630.03 447.513 629.685C446.765 630.925 445.937 632.096 445.005 633.197C444.913 633.301 444.89 633.415 444.879 633.519C443.705 634.116 442.52 634.701 441.347 635.298C442.624 633.875 443.51 632.119 444.821 630.718ZM448.79 629.192C449.572 628.893 450.354 628.595 451.137 628.285C451.436 628.17 451.735 628.056 452.046 627.941C451.436 628.767 450.849 629.617 449.998 630.213C449.699 630.42 449.687 630.764 449.825 631.017C448.905 631.487 447.985 631.958 447.053 632.417C447.686 631.568 448.284 630.695 448.813 629.777C448.939 629.559 448.905 629.353 448.79 629.192ZM453.967 627.378C454.036 627.31 454.082 627.229 454.105 627.149C454.634 626.942 455.163 626.736 455.692 626.529C455.301 626.954 454.898 627.378 454.461 627.769C454.151 628.044 454.277 628.423 454.542 628.607C453.645 629.066 452.747 629.525 451.838 629.972C452.563 629.123 453.173 628.17 453.955 627.356L453.967 627.378ZM458.235 625.542C459.12 625.198 460.006 624.831 460.892 624.475C460.202 625.095 459.523 625.726 458.856 626.38C458.833 626.403 458.821 626.437 458.798 626.46C457.866 626.942 456.923 627.413 455.991 627.883C456.739 627.114 457.441 626.288 458.223 625.542H458.235ZM462.951 624.199C463.17 624.016 463.181 623.775 463.078 623.591C463.871 623.258 464.654 622.902 465.447 622.547C465.148 622.879 464.826 623.201 464.481 623.488C464.412 623.545 464.366 623.602 464.343 623.671C463.733 623.97 463.135 624.28 462.537 624.578C462.675 624.452 462.825 624.326 462.963 624.199H462.951ZM467.748 621.502C470.969 619.987 474.121 618.311 477.377 616.877C474.041 618.725 470.636 620.481 467.23 622.202C467.403 621.973 467.576 621.743 467.748 621.502ZM412.634 638.947C410.195 638.42 407.687 637.96 405.214 637.616C403.626 637.398 401.947 637.272 400.336 637.088C414.394 633.519 428.509 629.203 442.52 625.186C450.838 622.799 459.178 620.435 467.518 618.162C470.9 617.244 474.305 616.292 477.722 615.454C474.777 616.705 471.913 618.185 469.037 619.597C463.457 622.34 457.636 624.521 451.85 626.782C449.365 627.746 446.88 628.71 444.396 629.662C444.326 629.662 444.257 629.697 444.188 629.743C441.059 630.948 437.919 632.13 434.767 633.266C432.133 634.219 429.51 635.171 426.956 636.308C423.965 637.639 421.169 639.211 417.914 639.785C417.822 639.797 417.741 639.831 417.684 639.877C416.131 639.269 413.75 639.189 412.645 638.947H412.634ZM418.892 640.738C420.778 640.348 422.619 639.716 424.448 638.959C423.033 640.99 421.952 643.24 420.882 645.467C420.295 643.929 419.674 642.402 418.995 640.91C418.972 640.853 418.926 640.795 418.892 640.738ZM430.211 666.378C430.752 663.75 431.086 661.098 431.293 658.424C431.339 658.298 431.35 658.183 431.316 658.057C431.488 655.566 431.58 653.076 431.649 650.597C431.81 650.425 431.96 650.241 432.144 650.08C432.581 649.69 432.167 649.116 431.695 649.128C431.695 648.841 431.718 648.542 431.718 648.255C431.741 647.59 431.891 643.883 432.052 642.241C432.075 642.196 432.11 642.161 432.133 642.115C432.271 641.909 432.248 641.713 432.144 641.564C432.156 641.495 432.179 641.461 432.19 641.461C433.881 641.771 435.526 642.391 437.137 642.965C442.336 644.789 447.398 647.039 452.506 649.128C444.787 654.511 437.056 659.905 430.2 666.378H430.211ZM463.227 650.103C462.974 650.482 462.709 650.849 462.433 651.205C462.261 651.435 462.134 651.492 462.123 651.515C461.433 651.377 460.754 651.056 460.11 650.803C456.969 649.61 453.863 648.301 450.746 647.027C446.995 645.501 443.245 643.986 439.46 642.574C437.528 641.851 435.503 641.013 433.455 640.543C442.152 636.181 450.838 631.809 459.5 627.39C467.288 623.419 475.272 619.597 482.772 615.086C480.621 620.802 477.204 626.265 474.271 631.533C470.785 637.811 467.276 644.17 463.227 650.103Z" fill="#C78B5F" fill-opacity="0.4"/>
<path d="M437.045 648.37C438.276 650.229 439.737 651.905 441.071 653.696C441.508 654.281 442.509 653.707 442.06 653.122C440.726 651.343 439.265 649.656 438.034 647.796C437.631 647.188 436.631 647.762 437.045 648.382V648.37Z" fill="#C78B5F" fill-opacity="0.4"/>
<path d="M443.59 652.043C444.131 652.548 444.948 651.733 444.407 651.228C443.211 650.115 442.141 648.875 441.036 647.682C440.53 647.131 439.725 647.946 440.22 648.496C441.324 649.702 442.394 650.93 443.59 652.043Z" fill="#C78B5F" fill-opacity="0.4"/>
<path d="M462.882 635.63C461.743 637.042 460.558 638.408 459.327 639.739C458.821 640.279 459.638 641.094 460.144 640.554C461.375 639.223 462.56 637.857 463.699 636.445C464.159 635.872 463.354 635.057 462.882 635.63Z" fill="#C78B5F" fill-opacity="0.4"/>
<path d="M418.155 635.952C419.007 635.952 419.846 635.86 420.686 635.768C421.411 635.688 421.423 634.54 420.686 634.621C419.846 634.712 419.007 634.804 418.155 634.804C417.419 634.804 417.408 635.963 418.155 635.952Z" fill="#C78B5F" fill-opacity="0.4"/>
<path d="M422.366 633.989C423.62 633.886 424.862 633.725 426.116 633.714C426.852 633.714 426.864 632.555 426.116 632.566C424.862 632.578 423.62 632.75 422.366 632.842C421.63 632.899 421.63 634.047 422.366 633.989Z" fill="#C78B5F" fill-opacity="0.4"/>
<path d="M624.384 196.889C618.057 188.35 610.603 180.683 604.494 171.984C604.184 171.548 603.861 171.043 603.551 170.48C605.967 168.036 609.797 164.351 609.924 160.702C610.051 157.018 605.207 156.145 602.608 157.809C599.502 159.806 600.065 165.063 600.951 168.024C602.044 171.685 605.276 175.037 607.577 177.975C610.35 181.533 613.226 185.01 616.113 188.476C609.429 195.696 602.757 202.926 596.004 210.077C592.312 205.658 588.757 201.124 585.467 196.407C583.879 194.135 582.223 191.621 580.888 188.981C585.64 187.248 588.101 182.876 587.492 177.872C586.951 173.476 582.568 172.431 579.163 174.738C575.171 177.458 577.656 184.173 579.094 187.524C581.153 192.321 584.098 196.568 587.193 200.757C589.781 204.258 592.507 207.666 595.291 211.006C595.245 211.339 595.533 211.66 595.855 211.672C596.338 212.246 596.821 212.82 597.304 213.393C599.03 215.413 600.974 218.42 603.321 219.786C604.529 220.486 607.658 216.079 608.256 215.413C611.696 211.626 615.078 207.77 618.483 203.936C620.392 201.79 622.268 199.575 624.315 197.555C624.488 197.394 624.557 197.061 624.407 196.855L624.384 196.889ZM602.884 169.252C603.056 169.16 603.217 169.057 603.401 168.977C603.263 169.126 603.114 169.275 602.976 169.424C602.953 169.367 602.918 169.31 602.895 169.252H602.884ZM607.52 163.789C607.474 163.881 607.405 163.95 607.359 164.042C607.267 164.019 607.163 164.007 607.048 164.042C605.207 164.673 603.298 165.132 601.733 166.326C601.664 166.096 601.607 165.855 601.549 165.625C601.641 165.625 601.745 165.625 601.848 165.579C603.746 164.753 605.61 163.892 607.635 163.445C607.681 163.445 607.715 163.41 607.75 163.387C607.669 163.525 607.589 163.663 607.52 163.778V163.789ZM602.101 167.439C602.17 167.416 602.239 167.381 602.308 167.324C603.493 166.337 604.977 165.901 606.438 165.453C606.093 165.924 605.737 166.383 605.368 166.819C605.368 166.819 605.357 166.819 605.345 166.819C604.391 167.358 603.355 167.68 602.412 168.196C602.308 167.944 602.205 167.68 602.101 167.427V167.439ZM603.562 158.567C604.506 157.959 606.082 157.982 607.278 158.487C605.645 158.911 604.069 159.543 602.677 160.518C602.078 160.943 602.654 161.941 603.252 161.505C604.828 160.403 606.611 159.749 608.486 159.37C608.498 159.393 608.52 159.405 608.544 159.428C608.67 159.611 608.739 159.806 608.785 160.025C606.461 160.633 603.907 161.092 601.837 162.366C601.204 162.756 601.779 163.743 602.412 163.353C604.276 162.205 606.576 161.758 608.705 161.218C608.555 161.792 608.29 162.366 608.026 162.871C607.991 162.55 607.727 162.24 607.313 162.331C605.219 162.791 603.286 163.697 601.331 164.547C600.986 162.182 601.434 159.91 603.551 158.555L603.562 158.567ZM580.359 187.937C580.359 187.937 580.44 187.937 580.486 187.914C580.44 187.926 580.417 187.96 580.382 187.971C580.382 187.96 580.371 187.937 580.359 187.926V187.937ZM586.088 177.126C586.019 177.126 585.95 177.137 585.87 177.171C583.385 178.296 580.704 178.939 578.243 180.087C578.231 179.765 578.22 179.455 578.22 179.134C578.22 178.801 578.266 178.503 578.323 178.204C580.612 177.355 582.787 176.207 585.122 175.519C585.548 175.943 585.87 176.494 586.088 177.126ZM581.82 174.796C582.591 174.578 583.258 174.578 583.833 174.75C582.177 175.335 580.566 176.081 578.933 176.747C579.566 175.806 580.566 175.163 581.809 174.807L581.82 174.796ZM578.726 183.346C578.875 183.438 579.071 183.461 579.266 183.346C581.418 182.13 583.937 181.797 586.042 180.477C586.675 180.087 586.088 179.088 585.467 179.49C583.362 180.798 580.831 181.143 578.691 182.359C578.622 182.394 578.576 182.439 578.53 182.497C578.45 182.107 578.392 181.705 578.346 181.315C580.9 180.029 583.741 179.375 586.353 178.204C586.364 178.285 586.387 178.377 586.387 178.457C586.548 179.742 586.422 180.982 586.077 182.13C586.065 182.13 586.042 182.13 586.031 182.141C584.144 183.231 582.039 183.84 580.083 184.781C579.416 185.102 580.003 186.089 580.658 185.768C582.2 185.022 583.845 184.482 585.386 183.748C585.214 184.069 585.018 184.379 584.8 184.689C583.362 185.619 581.797 186.227 580.198 186.801C580.083 186.847 580.003 186.904 579.945 186.984C579.439 185.791 579.025 184.574 578.726 183.335V183.346ZM621.209 199.196C615.365 205.6 610.016 212.762 603.62 218.65C603.574 218.593 603.482 218.501 603.286 218.317C602.746 217.801 602.239 217.25 601.733 216.71C600.077 214.931 598.501 213.084 596.936 211.236C596.867 211.155 596.798 211.075 596.741 210.995C603.493 203.833 610.154 196.602 616.838 189.395C617.378 190.037 617.908 190.692 618.448 191.334C619.783 192.953 621.129 194.571 622.429 196.212C622.67 196.511 622.9 196.82 623.13 197.13C623.096 197.176 623.038 197.222 622.969 197.302C622.371 197.922 621.784 198.565 621.198 199.208L621.209 199.196Z" fill="#C78B5F" fill-opacity="0.4"/>
<path d="M696.13 303.708C696.13 303.708 696.13 303.662 696.141 303.651C696.187 303.49 696.164 303.353 696.095 303.238C695.681 296.925 693.438 290.934 688.687 286.011C682.532 279.641 673.732 277.162 665.219 275.968C656.476 274.751 647.181 274.292 638.657 276.955C630.823 279.388 624.646 286.034 624.047 294.354C623.484 302.182 628.051 308.391 632.572 314.244C632.572 314.348 632.572 314.463 632.652 314.577C635.022 318.239 636.989 321.728 638.128 325.71C638.128 325.733 638.139 325.756 638.151 325.779C638.531 327.122 638.818 328.522 638.991 330.003C639.554 334.835 639.278 340.837 641.349 345.336C642.971 348.837 645.87 350.914 649.287 352.05C649.436 352.222 649.655 352.314 649.873 352.234C654.981 353.737 661.112 353.244 665.852 352.188C675.435 350.03 684.523 343.029 689.09 334.421C691.459 329.957 693.553 324.872 694.853 319.995C695.532 317.47 695.808 314.818 695.98 312.224C696.038 311.352 695.992 310.4 695.934 309.436C696.141 307.519 696.21 305.614 696.107 303.731L696.13 303.708ZM633.848 280.41C639.531 276.714 646.963 276.175 653.543 276.209C659.985 276.243 666.669 276.955 672.904 278.585C679.956 280.421 686.582 284.323 690.781 290.349C693.668 294.492 694.749 299.485 694.83 304.454C694.784 305.017 694.795 305.591 694.83 306.165C694.818 306.612 694.818 307.048 694.784 307.496C694.082 319.375 688.066 331.162 679.725 339.506C673.985 345.244 666.519 349.043 658.766 349.147C658.697 349.135 658.616 349.124 658.547 349.147C655.257 349.158 651.921 348.527 648.631 347.058C643.075 344.59 642.937 339.598 642.453 334.284C642.005 329.222 640.866 324.539 638.404 320.316C638.37 320.213 638.485 320.132 638.404 320.075C637.714 318.927 636.207 317.802 636.207 316.724C631.605 311.41 627.878 306.83 626.014 300.265C623.806 292.472 627.142 284.76 633.826 280.41H633.848ZM662.079 351.717C660.813 351.878 659.548 351.959 658.271 351.981C658.524 351.454 658.766 350.914 659.019 350.386C660.33 350.352 661.63 350.214 662.919 349.984C662.665 350.501 662.458 351.04 662.148 351.534C662.102 351.603 662.09 351.66 662.079 351.729V351.717ZM650.322 349.422C650.08 349.904 649.85 350.455 649.54 350.926C648.849 350.707 648.205 350.443 647.619 350.134C647.745 349.652 648.102 349.135 648.355 348.745C648.493 348.538 648.458 348.343 648.355 348.183C649.137 348.55 649.931 348.871 650.736 349.147C650.575 349.147 650.414 349.227 650.31 349.433L650.322 349.422ZM641.533 340.573C641.487 340.699 641.441 340.826 641.395 340.952C641.337 340.642 641.28 340.332 641.245 339.999C641.153 339.311 641.073 338.622 640.992 337.922C641.096 337.865 641.176 337.773 641.234 337.635C641.337 337.371 641.418 337.096 641.499 336.82C641.556 337.405 641.625 337.979 641.683 338.576C641.74 339.15 641.821 339.689 641.936 340.217C641.763 340.263 641.614 340.367 641.533 340.573ZM640.36 331.69C640.498 331.632 640.624 331.518 640.682 331.334C640.716 331.231 640.739 331.116 640.762 331.001C640.969 332.218 641.13 333.457 641.28 334.72C641.096 334.754 640.912 334.869 640.843 335.099C640.808 335.202 640.785 335.305 640.751 335.42C640.624 334.18 640.509 332.929 640.371 331.69H640.36ZM639.451 325.641C639.451 325.641 639.462 325.607 639.474 325.595C639.853 326.789 640.176 327.994 640.429 329.222C640.302 329.222 640.187 329.268 640.072 329.337C639.923 328.201 639.738 327.064 639.52 325.94C639.497 325.848 639.474 325.745 639.451 325.653V325.641ZM641.89 342.995C642.051 342.582 642.2 342.168 642.338 341.755C643.224 344.441 644.95 346.438 647.791 347.907C647.63 347.907 647.469 347.987 647.354 348.16C647.101 348.55 646.767 349.055 646.583 349.537C646.146 349.25 645.743 348.94 645.364 348.607C645.605 348.263 645.766 347.861 645.95 347.482C646.273 346.817 645.283 346.231 644.961 346.897C644.823 347.173 644.72 347.528 644.547 347.804C643.339 346.484 642.465 344.866 641.89 342.995ZM650.679 351.235C650.909 350.834 651.104 350.409 651.311 349.996C651.461 349.709 651.334 349.433 651.139 349.273C652.209 349.617 653.29 349.87 654.383 350.053C654.383 350.076 654.348 350.088 654.348 350.111C654.141 350.65 653.969 351.201 653.727 351.729C652.922 351.637 652.128 351.522 651.346 351.373C651.116 351.327 650.897 351.27 650.679 351.224V351.235ZM654.9 351.867C655.084 351.385 655.257 350.903 655.453 350.432C655.476 350.363 655.487 350.294 655.487 350.237C656.246 350.329 656.994 350.363 657.753 350.386C657.535 350.868 657.316 351.339 657.075 351.821C657.04 351.878 657.04 351.936 657.029 351.993C656.315 351.97 655.614 351.936 654.9 351.878V351.867ZM663.448 351.511C663.735 350.903 663.977 350.271 664.391 349.72C664.403 349.697 664.402 349.686 664.414 349.663C665.564 349.388 666.703 349.043 667.819 348.63C667.405 349.273 667.117 349.984 666.772 350.685C666.772 350.707 666.772 350.719 666.761 350.742C666.623 350.776 666.496 350.834 666.358 350.868C665.403 351.132 664.426 351.339 663.436 351.511H663.448ZM684.615 338.932C684.81 338.496 685.017 338.071 685.224 337.646C685.558 336.981 684.557 336.407 684.235 337.073C683.798 337.956 683.407 338.863 682.97 339.747C682.809 340.08 682.97 340.401 683.234 340.539C681.785 342.123 680.197 343.569 678.483 344.866C678.736 344.28 679.001 343.695 679.311 343.133C679.679 342.49 678.679 341.904 678.322 342.559C677.77 343.546 677.356 344.602 676.919 345.646C676.861 345.772 676.861 345.899 676.896 346.013C675.734 346.794 674.514 347.505 673.272 348.16C673.456 347.758 673.617 347.356 673.755 346.943C673.997 346.243 672.881 345.944 672.651 346.633C672.363 347.482 671.995 348.309 671.443 349.02C671.443 349.02 671.443 349.032 671.431 349.043C670.384 349.514 669.326 349.938 668.245 350.306C668.475 349.812 668.716 349.33 669.05 348.894C669.257 348.63 669.154 348.366 668.946 348.217C671.638 347.115 674.181 345.635 676.481 343.856C683.257 338.611 689.423 330.278 692.989 321.154C693.047 321.269 693.15 321.36 693.254 321.418C692.426 324.126 691.31 326.778 690.182 329.36C689.952 328.924 689.124 329.016 689.09 329.635C689.078 329.899 688.998 330.094 688.883 330.324C688.675 330.749 689.009 331.139 689.366 331.185C689.343 331.242 689.308 331.311 689.285 331.368C688.077 334.1 686.49 336.636 684.615 338.932Z" fill="#C78B5F" fill-opacity="0.4"/>
<path d="M648.838 301.941C652.945 302.044 656.154 299.404 655.959 295.192C655.717 290.028 650.782 290.992 647.308 289.775C646.008 289.236 644.098 288.375 642.879 289.626C641.303 291.221 640.59 293.402 640.958 295.651C641.648 299.795 644.777 301.838 648.838 301.941ZM647.009 290.888C649.126 291.623 651.76 291.106 653.601 292.53C654.935 293.563 654.969 295.755 654.659 297.224C654.256 299.118 652.473 300.196 650.748 300.621C648.228 301.229 645.341 300.598 643.5 298.773C640.601 295.904 641.97 288.823 646.997 290.888H647.009Z" fill="#C78B5F" fill-opacity="0.4"/>
<path d="M672.11 296.524C675.665 296.397 680.485 294.837 679.61 290.246C678.897 286.458 674.066 282.017 669.982 283.245C669.878 283.245 669.786 283.279 669.706 283.325C669.372 283.451 669.05 283.589 668.739 283.795C668.716 283.807 668.705 283.83 668.682 283.853C668.659 283.864 668.636 283.876 668.624 283.887C666.979 285.333 665.748 286.378 663.494 286.745C662.723 286.871 661.872 287.48 661.435 288.122C660.342 289.729 659.674 292.369 660.825 294.159C662.826 297.293 668.935 296.638 672.099 296.524H672.11ZM661.446 292.071C661.377 291.508 661.469 290.946 661.63 290.406C663.632 292.139 665.668 293.827 667.819 295.364C665.162 295.319 661.803 295.146 661.446 292.071ZM677.908 293.126C677.781 293.356 677.632 293.551 677.471 293.735C673.87 292.059 670.971 288.742 668.026 286.148C668.498 285.678 668.935 285.161 669.372 284.76C669.568 284.633 669.775 284.541 669.993 284.461C672.731 285.907 675.308 287.732 677.793 289.569C677.931 289.672 678.081 289.695 678.196 289.66C678.529 290.842 678.495 292.048 677.908 293.126ZM677.379 287.858C675.584 286.55 673.744 285.276 671.811 284.163C673.939 284.289 676.136 285.861 677.379 287.858ZM667.14 286.906C670.074 289.477 672.95 292.748 676.493 294.538C675.711 294.986 674.767 295.238 673.778 295.364C673.767 295.215 673.675 295.066 673.49 294.974C670.223 293.344 668.176 289.993 665.553 287.514C665.829 287.457 666.105 287.399 666.358 287.319C666.634 287.227 666.887 287.089 667.129 286.917L667.14 286.906ZM664.161 287.778C666.91 290.154 668.97 293.528 672.076 295.456C671.213 295.468 670.373 295.433 669.625 295.41C669.591 295.296 669.522 295.181 669.395 295.089C666.807 293.344 664.414 291.313 662.056 289.27C662.056 289.247 662.067 289.224 662.079 289.213C662.516 288.329 663.298 287.985 664.149 287.778H664.161Z" fill="#C78B5F" fill-opacity="0.4"/>
<path d="M685.385 306.291C686.685 306.991 688.365 308.024 689.872 307.358C692.61 306.153 692.713 302.526 692.058 300.013C691.241 296.902 687.629 294.377 684.465 295.387C681.624 296.581 679.564 299.37 681.106 302.388C681.98 304.11 683.729 305.396 685.385 306.291ZM684.776 296.501C689.584 294.974 692.368 301.356 690.735 305.074C689.469 307.955 685.385 305.177 683.867 303.892C682.82 303.008 681.808 301.757 681.67 300.357C681.497 298.578 683.361 297.086 684.787 296.489L684.776 296.501Z" fill="#C78B5F" fill-opacity="0.4"/>
<path d="M663.229 302.17C661.918 303.089 660.491 304.363 660.296 306.05C660.112 307.634 660.802 309.447 662.194 310.342C664.978 312.121 668.532 310.572 670.868 308.724C672.651 307.312 674.733 304.156 673.019 301.952C670.73 299.003 665.806 300.564 663.218 302.159L663.229 302.17ZM671.5 306.371C671.397 306.291 671.305 306.199 671.201 306.119C671.351 305.832 671.477 305.545 671.569 305.258C671.719 305.338 671.868 305.418 672.007 305.499C671.857 305.809 671.673 306.107 671.489 306.371H671.5ZM671.144 301.975C671.144 301.975 671.109 301.929 671.098 301.906C671.132 301.918 671.178 301.941 671.213 301.952C671.19 301.952 671.167 301.964 671.144 301.964V301.975ZM671.788 304.053C671.788 303.858 671.788 303.674 671.753 303.479C671.822 303.525 671.903 303.559 671.96 303.605C672.133 303.754 672.329 303.766 672.49 303.72C672.49 303.938 672.467 304.167 672.409 304.397C672.202 304.282 671.995 304.167 671.788 304.053ZM663.804 303.157C665.254 302.262 667.071 301.528 668.854 301.493C668.889 301.528 668.924 301.574 668.981 301.597C670.2 302.274 670.661 303.123 670.649 304.018C670.545 304.179 670.522 304.363 670.58 304.546C670.384 305.441 669.74 306.36 668.901 307.163C668.866 307.197 668.82 307.243 668.774 307.278C668.486 307.255 668.21 307.496 668.153 307.783C666.657 308.919 664.161 310.227 662.78 308.988C662.631 308.862 662.47 308.827 662.32 308.85C662.125 308.632 661.952 308.403 661.791 308.139C660.572 306.153 662.274 304.248 663.816 303.169L663.804 303.157ZM668.751 308.735C668.751 308.735 668.785 308.77 668.808 308.793C668.613 308.908 668.429 309.011 668.222 309.103C668.406 308.976 668.578 308.862 668.751 308.735ZM669.786 308.15C669.786 308.15 669.694 308.07 669.648 308.012C669.671 308.001 669.694 307.978 669.706 307.966C670.028 307.68 670.304 307.381 670.557 307.071C670.626 307.129 670.695 307.197 670.764 307.255C670.465 307.576 670.131 307.875 669.775 308.15H669.786Z" fill="#C78B5F" fill-opacity="0.4"/>
<path d="M655.154 326.192C656.879 328.924 660.894 331.564 664.253 330.978C668.291 330.278 669.97 326.755 667.647 323.392C665.564 320.396 661.527 318.594 658.087 319.972C654.716 320.695 653.232 323.139 655.165 326.192H655.154ZM665.599 322.841C666.508 323.633 667.278 324.689 667.566 325.871C665.403 324.459 663.459 322.761 661.619 320.936C661.089 320.419 660.273 321.223 660.802 321.751C662.757 323.69 664.84 325.504 667.163 326.996C667.336 327.099 667.497 327.11 667.635 327.053C667.405 328.591 665.656 329.475 664.253 329.83C661.653 330.496 658.651 328.396 656.96 326.663C656.154 325.836 655.43 324.758 655.326 323.598C655.303 323.334 655.349 323.093 655.418 322.887C655.441 322.91 655.453 322.933 655.464 322.944C657.776 324.7 659.951 326.64 662.136 328.545C662.688 329.027 663.505 328.224 662.953 327.73C660.71 325.768 658.478 323.793 656.097 321.992C656.741 321.51 657.65 321.257 658.352 321.096C658.375 321.096 658.398 321.085 658.421 321.073C660.365 323.862 662.746 326.376 665.518 328.361C666.117 328.798 666.692 327.799 666.094 327.374C663.586 325.572 661.4 323.277 659.605 320.763C661.768 320.408 663.816 321.337 665.564 322.864L665.599 322.841Z" fill="#C78B5F" fill-opacity="0.4"/>
<path d="M679.242 315.209C677.218 317.355 675.043 320.477 676.378 323.174C677.126 324.7 678.932 324.907 680.623 324.562C680.876 324.849 681.486 324.758 681.624 324.298C682.371 324.046 683.05 323.713 683.533 323.369C683.648 323.277 683.763 323.174 683.878 323.082C686.133 321.257 687.813 317.791 687.56 314.967C687.456 313.854 686.685 312.443 685.512 312.156C685.339 312.11 685.167 312.098 685.006 312.087C684.856 312.018 684.695 312.006 684.534 312.064C683.717 312.064 682.958 312.339 682.245 312.741C682.13 312.764 682.026 312.81 681.946 312.913C681.371 313.269 680.83 313.694 680.324 314.13C680.002 314.44 679.645 314.784 679.288 315.163C679.265 315.186 679.242 315.209 679.219 315.231L679.242 315.209ZM677.103 321.911C676.689 320.603 677.655 318.904 678.805 317.458C678.575 319.352 678.495 321.303 678 323.116C677.597 322.852 677.275 322.462 677.103 321.911ZM679.081 323.507C679.772 321.027 679.656 318.342 680.232 315.828C680.577 315.472 680.899 315.163 681.152 314.933C681.29 314.807 681.451 314.681 681.624 314.543C681.129 317.492 680.922 320.488 680.588 323.449C680.082 323.552 679.553 323.575 679.081 323.507ZM681.785 323.082C682.118 319.937 682.314 316.758 682.947 313.659C683.338 313.453 683.752 313.292 684.143 313.223C683.959 316.299 683.073 319.294 682.958 322.37C682.866 322.439 682.774 322.519 682.682 322.588C682.417 322.772 682.118 322.944 681.785 323.082ZM686.156 314.141C686.754 315.082 686.432 316.437 686.156 317.424C685.8 318.709 685.098 320.052 684.177 321.154C684.431 318.537 685.098 315.966 685.27 313.338C685.592 313.487 685.892 313.739 686.145 314.141H686.156Z" fill="#C78B5F" fill-opacity="0.4"/>
<path d="M646.595 295.078C647.745 295.078 647.745 293.93 646.595 293.93V295.078Z" fill="#C78B5F" fill-opacity="0.4"/>
<path d="M646.307 297.752V297.476C646.307 296.742 645.157 296.742 645.157 297.476V297.752C645.157 298.498 646.307 298.498 646.307 297.752Z" fill="#C78B5F" fill-opacity="0.4"/>
<path d="M645.444 293.987C646.595 293.987 646.595 292.839 645.444 292.839V293.987Z" fill="#C78B5F" fill-opacity="0.4"/>
<path d="M651.196 293.448V292.3C650.046 292.3 650.046 293.448 651.196 293.448Z" fill="#C78B5F" fill-opacity="0.4"/>
<path d="M647.883 297.476V297.752C647.883 298.498 649.034 298.498 649.034 297.752V297.476C649.034 296.742 647.883 296.742 647.883 297.476Z" fill="#C78B5F" fill-opacity="0.4"/>
<path d="M651.357 297.625C651.656 298.016 652.416 297.924 652.381 297.316C652.358 296.868 652.117 296.627 651.668 296.604C651.058 296.57 650.955 297.339 651.357 297.637V297.625Z" fill="#C78B5F" fill-opacity="0.4"/>
<path d="M648.861 291.979V291.841C648.861 291.106 647.711 291.106 647.711 291.841V291.979C647.711 292.713 648.861 292.713 648.861 291.979Z" fill="#C78B5F" fill-opacity="0.4"/>
<path d="M643.788 294.458C643.788 294.458 643.788 294.4 643.788 294.366C643.811 293.976 643.5 293.804 643.201 293.815C642.718 293.712 642.212 294.343 642.672 294.768C642.833 294.917 642.983 295.032 643.213 295.032C643.535 295.032 643.776 294.768 643.788 294.458Z" fill="#C78B5F" fill-opacity="0.4"/>
<path d="M653.497 296.202V295.055C652.347 295.055 652.347 296.202 653.497 296.202Z" fill="#C78B5F" fill-opacity="0.4"/>
<path d="M684.189 299.714H684.327C685.063 299.714 685.063 298.567 684.327 298.567H684.189C683.453 298.567 683.453 299.714 684.189 299.714Z" fill="#C78B5F" fill-opacity="0.4"/>
<path d="M684.626 302.652V302.515C684.626 301.78 683.476 301.78 683.476 302.515V302.652C683.476 303.387 684.626 303.387 684.626 302.652Z" fill="#C78B5F" fill-opacity="0.4"/>
<path d="M686.846 301.952V302.09C686.846 302.825 687.997 302.825 687.997 302.09V301.952C687.997 301.218 686.846 301.218 686.846 301.952Z" fill="#C78B5F" fill-opacity="0.4"/>
<path d="M688.411 305.889H688.549C689.285 305.889 689.285 304.741 688.549 304.741H688.411C687.675 304.741 687.675 305.889 688.411 305.889Z" fill="#C78B5F" fill-opacity="0.4"/>
<path d="M686.559 303.376C686.03 302.848 685.224 303.662 685.742 304.19C685.788 304.236 685.834 304.282 685.88 304.328C686.409 304.856 687.214 304.041 686.697 303.513C686.651 303.467 686.605 303.421 686.559 303.376Z" fill="#C78B5F" fill-opacity="0.4"/>
<path d="M686.858 298.727H686.996C687.732 298.727 687.732 297.58 686.996 297.58H686.858C686.122 297.58 686.122 298.727 686.858 298.727Z" fill="#C78B5F" fill-opacity="0.4"/>
<path d="M689.412 301.379C689.941 301.906 690.746 301.092 690.228 300.564C690.182 300.518 690.136 300.472 690.09 300.426C689.561 299.898 688.756 300.713 689.274 301.241C689.32 301.287 689.366 301.333 689.412 301.379Z" fill="#C78B5F" fill-opacity="0.4"/>
<path d="M686.018 300.414H686.156C686.892 300.414 686.892 299.267 686.156 299.267H686.018C685.282 299.267 685.282 300.414 686.018 300.414Z" fill="#C78B5F" fill-opacity="0.4"/>
<path d="M689.538 303.651H689.676C690.413 303.651 690.413 302.503 689.676 302.503H689.538C688.802 302.503 688.802 303.651 689.538 303.651Z" fill="#C78B5F" fill-opacity="0.4"/>
<path d="M511.963 242.485C511.963 242.485 511.952 242.37 511.94 242.325C511.94 242.313 511.94 242.302 511.94 242.279C511.468 238.491 510.893 234.543 509.409 230.997C509.409 230.974 509.386 230.951 509.375 230.928C509.375 230.905 509.352 230.87 509.34 230.847C507.983 227.45 505.832 224.237 504.037 221.069C501.207 216.099 498.308 211.175 495.398 206.252C493.902 203.727 492.407 201.213 490.911 198.7C490.647 198.252 490.336 197.873 490.014 197.541C490.014 197.529 490.014 197.506 490.014 197.483C490.014 197.472 490.014 197.46 490.014 197.437C490.014 197.403 490.014 197.38 490.014 197.345C490.014 197.231 489.968 197.127 489.887 197.047C489.071 195.716 488.495 194.465 487.518 193.627C487.518 193.524 487.518 193.42 487.437 193.317C487.437 193.294 487.414 193.283 487.403 193.26C484.929 190.012 481.57 186.775 477.233 188.462C473.264 190.012 473.61 194.304 474.806 197.632C475.174 198.539 475.577 199.434 476.002 200.318C478.809 205.621 481.869 210.854 484.872 216.042C487.08 219.864 489.381 223.64 491.786 227.358C494.086 230.928 496.422 234.784 499.32 237.906C499.608 238.617 500.827 239.444 501.242 239.857C502.979 241.59 504.785 243.254 506.614 244.895C508.121 246.227 509.662 247.558 511.353 248.648C511.745 248.901 512.193 248.568 512.216 248.155C512.331 246.273 512.17 244.379 511.952 242.497L511.963 242.485ZM510.939 243.702C510.617 243.576 510.169 243.736 510.134 244.172C510.134 243.943 510.134 243.725 510.157 243.495C510.157 243.415 510.157 243.358 510.134 243.3C510.376 243.231 510.629 243.185 510.882 243.139C510.905 243.323 510.916 243.507 510.939 243.69V243.702ZM508.995 243.805C508.961 244.413 508.961 245.022 508.995 245.63C508.569 245.286 508.167 244.941 507.799 244.597C508.19 244.299 508.581 244.023 508.984 243.805H508.995ZM485.827 195.681C485.723 195.681 485.608 195.681 485.493 195.681C485.424 195.107 485.343 194.545 485.343 193.971C485.343 193.937 485.332 193.902 485.32 193.868C485.562 193.891 485.815 193.925 486.068 193.971C485.838 194.074 485.642 194.304 485.689 194.625C485.735 194.981 485.781 195.337 485.827 195.681ZM486.839 197.85C490.117 203.532 493.269 209.282 496.41 215.043C499.217 220.208 501.771 225.614 504.888 230.606C504.325 230.767 503.853 230.951 503.577 231.077C503.232 231.238 502.898 231.456 502.576 231.697C495.984 220.265 489.807 208.605 483.457 197.047C484.596 196.863 485.769 196.898 486.954 197.162C486.77 197.323 486.689 197.575 486.839 197.85ZM477.187 196.519C477.429 196.313 477.682 196.117 477.935 195.934C477.935 196.427 477.946 196.921 477.969 197.403C477.981 197.655 478.131 197.816 478.303 197.896C477.946 198.126 477.601 198.378 477.256 198.642C477.222 197.931 477.199 197.219 477.187 196.519ZM481.375 196.416C481.375 196.416 481.386 196.347 481.375 196.313C481.306 195.624 481.271 194.935 481.317 194.235C481.651 194.132 481.996 194.052 482.352 193.983C482.306 194.694 482.398 195.383 482.525 196.072C482.444 196.094 482.352 196.129 482.272 196.152C481.961 196.232 481.662 196.313 481.363 196.416H481.375ZM483.664 195.819C483.549 195.199 483.468 194.591 483.514 193.948C483.514 193.902 483.514 193.868 483.503 193.833C483.744 193.811 483.986 193.811 484.228 193.811C484.216 193.856 484.193 193.914 484.193 193.971C484.193 194.568 484.285 195.153 484.354 195.739C484.124 195.762 483.894 195.785 483.664 195.83V195.819ZM480.167 194.671C480.155 195.222 480.167 195.773 480.236 196.324C480.259 196.531 480.362 196.668 480.5 196.76C480.04 196.955 479.58 197.173 479.12 197.426C479.074 196.703 479.085 195.968 479.039 195.245C479.407 195.039 479.787 194.843 480.167 194.683V194.671ZM482.295 197.323C482.295 197.323 482.295 197.323 482.295 197.334C488.737 209.064 495.007 220.885 501.69 232.477C501.299 232.867 500.931 233.304 500.609 233.774C493.58 222.021 486.862 210.074 479.845 198.31C480.627 197.885 481.444 197.541 482.283 197.311L482.295 197.323ZM498.665 214.079C501.702 219.267 505.429 224.604 507.822 230.182C507.281 230.147 506.66 230.216 506.062 230.331C502.852 225.258 500.275 219.737 497.399 214.469C494.293 208.765 491.164 203.073 487.92 197.437C487.978 197.46 488.035 197.472 488.093 197.495C488.841 197.919 489.462 198.539 489.979 199.388C492.901 204.266 495.789 209.156 498.653 214.068L498.665 214.079ZM488.116 196.221C487.759 196.072 487.391 195.945 487 195.853C486.931 195.371 486.873 194.889 486.804 194.407C487.299 194.866 487.736 195.544 488.116 196.209V196.221ZM478.142 189.346C481.041 188.221 483.664 190.528 485.504 192.72C485.447 192.72 485.401 192.686 485.332 192.674C482.985 192.318 480.661 192.961 478.625 194.132C478.269 193.983 477.808 194.132 477.854 194.602C477.739 194.671 477.636 194.752 477.532 194.821C477.498 194.843 477.475 194.866 477.44 194.878C477.291 194.981 477.153 195.084 477.015 195.188C476.704 194.878 476.025 195.004 476.014 195.578C476.014 195.716 476.014 195.865 476.014 196.014C475.876 196.14 475.738 196.267 475.6 196.404C474.748 193.535 474.806 190.643 478.131 189.346H478.142ZM490.313 222.894C487.61 218.555 485.067 214.137 482.583 209.672C481.168 207.136 479.822 204.553 478.303 202.086C477.417 200.651 477.337 200.111 478.119 199.434C478.361 199.251 478.614 199.079 478.867 198.906C485.976 210.831 492.775 222.94 499.919 234.853C499.93 234.876 499.953 234.887 499.976 234.91C499.746 235.381 499.585 235.851 499.459 236.322C495.927 232.316 493.12 227.381 490.325 222.905L490.313 222.894ZM501.518 238.239C500.908 237.63 500.597 237.435 500.609 236.896C501.414 234.187 503.232 232.075 505.797 231.593C505.866 231.593 505.924 231.593 505.981 231.57C506.625 231.467 507.304 231.467 508.029 231.57C508.742 231.926 508.857 232.741 509.168 233.774C509.927 236.356 510.376 239.065 510.721 241.739C509.317 241.934 508.144 242.439 507.005 243.277C505.13 242.072 503.312 240.018 501.518 238.239Z" fill="#C78B5F" fill-opacity="0.4"/>
<path d="M504.394 238.973C503.738 238.308 503.094 237.653 502.438 236.988C501.92 236.46 501.104 237.275 501.621 237.803C502.277 238.468 502.921 239.122 503.577 239.788C504.095 240.316 504.911 239.501 504.394 238.973Z" fill="#C78B5F" fill-opacity="0.4"/>
<path d="M705.859 167.464C704.594 166.454 703.317 165.444 702.005 164.48C702.845 163.47 703.719 162.483 704.594 161.507C705.1 160.933 704.26 160.095 703.754 160.669C702.833 161.702 701.913 162.735 701.027 163.802C699.866 162.999 698.669 162.23 697.404 161.587C696.725 161.243 696.115 162.264 696.805 162.62C698.013 163.24 699.152 163.975 700.268 164.732C699.29 165.96 698.381 167.234 697.599 168.6C697.22 169.266 698.255 169.874 698.635 169.197C699.394 167.854 700.291 166.603 701.257 165.409C702.534 166.339 703.777 167.326 705.019 168.313C705.617 168.783 706.469 167.946 705.859 167.475V167.464Z" fill="#C78B5F" fill-opacity="0.4"/>
<path d="M309.846 523.24C306.464 522.666 303.542 526.132 301.92 528.588C300.287 531.056 299.942 533.868 299.608 536.737C299.136 540.788 298.941 544.874 298.745 548.949C298.584 552.231 298.515 555.514 298.423 558.808C287.414 559.898 276.393 561.011 265.373 562.01C265.568 553.494 266.086 544.874 267.708 536.553C267.915 535.497 268.168 534.292 268.49 533.041C268.513 533.053 268.536 533.076 268.571 533.087C274.139 535.291 280.259 532.892 282.893 527.475C284.814 523.527 280.569 519.452 276.578 520.061C275.669 520.198 274.863 520.52 274.139 520.967C274.07 520.99 274.012 521.013 273.955 521.071C270.573 523.251 268.928 528.255 267.789 531.733C266.293 536.312 265.741 541.144 265.258 545.919C264.706 551.37 264.222 556.971 264.061 562.561C264.038 562.641 264.038 562.721 264.061 562.813C263.946 566.647 263.981 570.468 264.268 574.221C264.418 576.23 265.442 575.966 267.236 575.828C271.631 575.484 276.014 574.899 280.385 574.371C286.356 573.648 292.361 572.672 298.366 572.339C298.699 572.316 298.906 572.087 298.941 571.765C299.988 560.116 299.493 548.375 300.758 536.737C300.85 535.934 300.942 535.153 301.069 534.384C304.9 534.132 313.769 533.845 314.793 529.013C315.357 526.304 312.193 523.641 309.846 523.251V523.24ZM268.789 531.962C268.812 531.871 268.835 531.779 268.87 531.698C268.927 531.802 269.02 531.894 269.158 531.951C269.629 532.146 270.101 532.33 270.573 532.502C270.009 532.376 269.445 532.203 268.893 531.985C268.858 531.974 268.824 531.985 268.789 531.974V531.962ZM277.981 531.331C277.981 531.331 277.958 531.32 277.946 531.32C275.565 530.826 273.356 529.793 271.021 529.128C270.308 528.921 270.009 530.034 270.711 530.229C272.632 530.78 274.484 531.561 276.405 532.1C275.956 532.272 275.485 532.422 275.013 532.525C273.069 532.226 271.263 531.561 269.445 530.826C269.319 530.78 269.215 530.78 269.112 530.815C269.79 528.657 270.676 526.476 271.907 524.72C275.105 525.535 278.038 527.154 281.179 528.129C280.949 528.485 280.696 528.829 280.454 529.128C279.718 530.023 278.878 530.757 277.969 531.32L277.981 531.331ZM281.087 522.746C281.432 523.022 281.685 523.32 281.869 523.63C279.868 522.781 277.774 522.172 275.726 521.449C275.772 521.438 275.807 521.403 275.853 521.392C277.67 520.68 279.684 521.644 281.087 522.758V522.746ZM274.403 522.172C276.957 523.171 279.672 523.802 282.157 524.973C282.191 524.984 282.226 524.984 282.26 524.996C282.283 525.707 282.065 526.453 281.731 527.154C281.674 527.096 281.593 527.05 281.501 527.016C278.499 526.086 275.703 524.583 272.678 523.733C273.195 523.125 273.782 522.597 274.403 522.161V522.172ZM273.713 573.992C271.044 574.302 268.203 574.853 265.499 574.761C265.476 574.692 265.43 574.531 265.407 574.21C265.361 573.613 265.338 573.016 265.315 572.42C265.258 570.572 265.269 568.724 265.292 566.876C265.304 565.637 265.327 564.397 265.35 563.146C276.37 562.147 287.38 561.034 298.4 559.944C298.297 563.708 298.147 567.473 297.836 571.214C289.784 571.696 281.731 573.074 273.725 573.992H273.713ZM313.286 527.154C313.32 527.211 313.355 527.28 313.378 527.337C311.606 526.419 309.743 525.753 307.741 525.524C307.005 525.443 307.016 526.591 307.741 526.671C309.858 526.912 311.825 527.716 313.666 528.783C313.677 528.783 313.7 528.783 313.712 528.795C313.666 529.105 313.539 529.392 313.355 529.656C310.962 528.45 308.489 526.924 305.82 526.465C305.095 526.339 304.785 527.44 305.509 527.567C307.983 527.991 310.261 529.357 312.492 530.493C311.641 531.113 310.422 531.595 309.087 531.962C309.03 531.825 308.926 531.71 308.765 531.641C306.752 530.803 304.819 529.759 302.599 529.656C302.76 529.369 302.933 529.082 303.117 528.806C303.186 528.887 303.266 528.955 303.381 528.99C305.578 529.701 307.787 530.344 309.812 531.48C310.456 531.848 311.043 530.849 310.387 530.493C308.305 529.323 306.027 528.646 303.761 527.911C306.315 524.686 310.502 522.563 313.274 527.131L313.286 527.154ZM302.116 530.666C302.208 530.746 302.323 530.803 302.472 530.815C304.279 530.872 305.901 531.641 307.534 532.364C306.809 532.525 306.073 532.651 305.371 532.754C304.129 532.479 302.967 531.974 301.725 531.721C301.84 531.366 301.978 531.01 302.127 530.666H302.116ZM301.403 532.823C301.805 532.892 302.196 532.984 302.588 533.11C302.07 533.156 301.633 533.191 301.311 533.213C301.345 533.076 301.38 532.95 301.403 532.823Z" fill="#C78B5F"/>
<path d="M279.43 528.668C276.704 528.198 274.334 526.637 271.642 526.052C270.918 525.891 270.607 527.004 271.332 527.153C274.024 527.739 276.393 529.3 279.12 529.77C279.845 529.896 280.155 528.783 279.43 528.668Z" fill="#C78B5F"/>
<path d="M405.049 358.46C403.53 357.151 401.644 356.336 399.769 355.671C398.572 355.246 397.307 354.994 396.053 354.787C395.294 354.661 395.455 351.837 395.443 351.309C395.42 350.058 396.87 350.494 397.709 350.472C399.493 350.437 402.426 350.804 403.726 349.175C404.589 348.096 405.336 346.248 404.347 344.951C402.829 342.943 400.091 344.653 398.043 345.215C395.167 345.995 392.303 346.787 389.438 347.568C389.082 347.671 388.978 347.992 389.059 348.279C389.036 348.371 389.013 348.474 389.013 348.601C389.013 352.044 389.059 355.671 389.565 359.309C389.611 359.607 390.002 359.688 390.267 359.596C395.282 357.805 402.104 359.125 402.622 365.415C403.07 370.901 394.419 374.172 391.405 369.455C391.21 369.145 390.773 369.053 390.497 369.329C388.875 370.981 388.253 373.059 390.267 374.677C392.648 376.571 396.433 376.502 399.251 376.066C407.465 374.769 411.664 364.175 405.037 358.483L405.049 358.46ZM403.289 373.254C400.931 374.987 397.663 375.308 394.845 375.044C392.165 374.792 388.875 373.231 390.888 370.603C394.546 375.147 401.793 372.267 403.542 367.159C404.497 364.382 402.829 360.744 400.447 359.206C397.491 357.289 393.879 357.14 390.577 358.161C390.198 354.925 390.163 351.757 390.163 348.589C390.163 348.578 390.163 348.566 390.163 348.555C393.235 347.717 396.306 346.868 399.378 346.03C400.643 345.686 401.897 345.341 403.162 344.997C403.289 345.307 403.404 345.617 403.53 345.938C403.599 347.74 402.898 348.807 401.437 349.129C400.562 349.404 399.435 349.324 398.515 349.324C397.215 349.324 395.972 349.324 394.707 349.68C394.465 349.748 394.281 349.978 394.281 350.231C394.281 351.964 394.327 353.662 394.569 355.384C394.592 355.556 394.799 355.763 394.972 355.785C398.929 356.325 402.886 357.61 405.624 360.64C408.96 364.324 406.924 370.568 403.277 373.265L403.289 373.254Z" fill="#C78B5F" fill-opacity="0.4"/>
<path d="M150.688 305.477C150.504 305.259 150.193 305.178 149.928 305.385C149.836 305.431 149.767 305.511 149.721 305.592C145.856 309.712 143.59 316.082 142.831 321.556C142.313 325.252 144.016 333.194 149.238 331.886C154.012 330.692 154.564 323.748 154.104 319.904C153.541 315.095 152.344 310.332 150.849 305.729C150.814 305.615 150.757 305.534 150.688 305.477ZM151.424 328.569C149.629 331.541 146.742 331.335 145.131 328.351C143.785 325.86 143.739 323.071 144.211 320.363C144.993 315.852 146.972 310.653 150.032 307.061C152.172 313.591 155.117 322.486 151.424 328.58V328.569Z" fill="#C78B5F" fill-opacity="0.4"/>
<path d="M532.243 468.064C536.706 464.838 540.457 460.477 536.476 455.14C536.062 454.589 535.614 454.165 535.119 453.82C537.673 449.482 537.569 444.662 531.357 442.527C524.766 440.254 514.964 445.706 512.065 451.766C511.732 452.455 512.767 453.063 513.089 452.363C515.804 446.693 525.962 440.748 531.978 444.157C536.131 446.509 536.039 450.136 534.164 453.304C530.966 451.95 526.733 453.786 523.88 455.37C522.384 456.196 519.669 457.677 519.232 459.536C518.864 461.143 519.991 462.027 521.533 462.21C525.916 462.738 531.426 459.169 534.44 454.842C536.522 456.196 537.408 459.18 536.775 461.487C536.062 464.069 533.393 465.791 531.346 467.226C531.208 467.317 531.07 467.409 530.932 467.513C530.034 467.249 529.079 467.157 528.09 467.295C526.48 467.524 521.786 468.706 521.786 471.025C521.786 474.628 528.711 470.393 531.15 468.787C533.589 469.808 535.107 472.54 534.406 475.386C533.738 478.072 531.288 480.298 529.091 481.779C528.458 482.203 529.056 483.236 529.689 482.812C533.393 480.333 538.443 474.399 534.544 469.934C533.865 469.165 533.083 468.523 532.208 468.064H532.243ZM531.656 456.403C530.011 457.952 528.033 459.192 526.019 460.213C524.8 460.833 523.477 461.154 522.108 461.108C519.934 461.028 520.59 459.318 521.66 458.331C524.374 455.794 529.172 453.487 532.876 454.222C533.083 454.268 533.278 454.314 533.462 454.383C532.933 455.106 532.324 455.794 531.656 456.414V456.403ZM527.434 469.842C526.503 470.393 525.525 470.818 524.489 471.105C523.627 470.382 523.73 469.877 524.812 469.613C525.686 469.108 526.618 468.764 527.595 468.569C528.309 468.385 528.987 468.35 529.643 468.419C528.918 468.913 528.194 469.395 527.434 469.842Z" fill="#C78B5F" fill-opacity="0.4"/>
<path d="M387.027 61.4317C386.993 61.248 386.797 61.0644 386.625 61.03C377.824 59.3773 368.541 59.3543 359.625 58.9296C349.962 58.4706 340.264 58.023 330.578 58C330.337 58 330.061 58.1722 330.026 58.4247C329.635 60.7201 329.313 63.0155 329.025 65.3224C327.863 65.3224 326.644 65.3224 325.425 65.3224V66.4702C325.425 66.4702 326.989 66.4702 328.876 66.4702C328.692 67.9737 328.531 69.4772 328.381 70.9807C327.334 70.9807 326.379 70.9807 325.413 70.9807V72.1284C325.413 72.1284 326.621 72.1284 328.266 72.1284C328.128 73.5975 327.99 75.0551 327.863 76.5242C326.886 76.4094 325.908 76.2717 324.941 76.0766C324.217 75.9274 323.906 77.0406 324.631 77.1784C325.666 77.385 326.713 77.5227 327.76 77.6489C327.622 79.3131 327.484 80.9658 327.346 82.6186C326.161 82.6186 324.964 82.5726 323.78 82.4349C323.043 82.3431 323.055 83.4908 323.78 83.5826C324.93 83.7318 326.092 83.7663 327.254 83.7663C327.139 85.155 327.024 86.5552 326.909 87.944C325.85 87.8522 324.792 87.7489 323.734 87.5882C323.009 87.4849 322.698 88.5867 323.423 88.69C324.55 88.8621 325.678 88.9769 326.805 89.0802C326.667 90.71 326.529 92.3397 326.391 93.981C325.356 93.981 324.332 93.9236 323.319 93.74C322.595 93.6137 322.284 94.7155 323.009 94.8418C324.09 95.0369 325.183 95.0943 326.287 95.1057C326.161 96.6552 326.034 98.2046 325.908 99.7655C324.654 99.6851 323.365 99.5474 322.169 99.2949C321.444 99.1457 321.122 100.248 321.847 100.397C323.112 100.661 324.481 100.821 325.816 100.902C325.678 102.704 325.528 104.494 325.39 106.296C324.171 106.262 322.963 106.204 321.755 106.043C321.019 105.952 321.03 107.099 321.755 107.191C322.94 107.34 324.125 107.398 325.31 107.444C325.195 108.982 325.091 110.531 324.976 112.069C323.895 111.966 322.825 111.851 321.743 111.771C321.007 111.713 321.007 112.861 321.743 112.918C322.79 112.999 323.837 113.102 324.895 113.205C324.815 114.364 324.734 115.524 324.654 116.683C323.619 116.568 322.583 116.453 321.548 116.327C320.812 116.235 320.823 117.383 321.548 117.475C322.56 117.601 323.573 117.704 324.585 117.819C324.435 120.16 324.286 122.502 324.148 124.843C324.125 125.176 324.355 125.348 324.608 125.383C324.642 125.383 324.677 125.417 324.723 125.417C343.347 127.15 361.984 128.883 380.608 130.616C380.907 130.639 381.195 130.329 381.183 130.042C381.045 126.186 381.759 122.169 382.127 118.347C382.84 110.887 383.588 103.427 384.324 95.9665C385.06 88.4834 385.785 81.0003 386.406 73.5171C386.728 69.6952 387.614 65.2651 386.981 61.4432L387.027 61.4317ZM385.21 74.4698C384.588 81.8381 383.875 89.2065 383.15 96.5633C382.437 103.817 381.713 111.082 381.022 118.336C380.677 121.951 380.033 125.75 380.079 129.411C361.846 127.712 343.612 126.025 325.379 124.327C325.505 122.203 325.632 120.08 325.77 117.957C327.449 118.152 329.117 118.359 330.785 118.657C331.51 118.783 331.821 117.681 331.096 117.555C329.359 117.245 327.599 117.027 325.85 116.821C325.931 115.65 326.011 114.479 326.092 113.32C327.311 113.423 328.531 113.515 329.762 113.527C330.509 113.527 330.498 112.379 329.762 112.379C328.565 112.379 327.369 112.287 326.172 112.184C326.287 110.623 326.391 109.051 326.506 107.49C327.587 107.513 328.68 107.536 329.762 107.604C330.498 107.65 330.498 106.503 329.762 106.457C328.703 106.388 327.656 106.365 326.598 106.342C326.736 104.551 326.874 102.761 327.012 100.971C328.094 101.016 329.129 101.016 330.038 101.028C331.188 101.028 331.188 99.8802 330.038 99.8802C329.14 99.8802 328.14 99.8688 327.104 99.8229C327.231 98.2505 327.357 96.6896 327.484 95.1172C328.508 95.1172 329.543 95.0713 330.567 95.0713C331.303 95.0713 331.303 93.9236 330.567 93.9236C329.577 93.9236 328.577 93.9695 327.576 93.981C327.691 92.5463 327.817 91.1002 327.932 89.6541C327.944 89.4934 327.955 89.3327 327.967 89.172C328.968 89.2524 329.957 89.3212 330.958 89.3901C331.694 89.4475 331.694 88.2883 330.958 88.2424C329.992 88.1735 329.025 88.1047 328.059 88.0358C328.174 86.6126 328.289 85.1894 328.416 83.7663C329.727 83.7433 331.038 83.6974 332.35 83.6859C333.086 83.6859 333.098 82.5382 332.35 82.5382C331.061 82.5382 329.785 82.5956 328.508 82.6186C328.634 81.0003 328.772 79.3935 328.91 77.7752C330.21 77.9129 331.499 78.0277 332.799 78.1998C333.523 78.3031 333.834 77.1899 333.109 77.098C331.752 76.9144 330.383 77.0177 329.025 76.8685C329.163 75.3535 329.301 73.7123 329.451 72.5645H333.489V70.9692C331.993 70.9692 330.728 70.9692 329.566 70.9692C329.716 69.4657 329.888 67.9622 330.072 66.4587C331.844 66.4587 333.661 66.4587 334.639 66.4587C335.79 66.4587 335.79 65.311 334.639 65.311C333.431 65.311 331.89 65.311 330.21 65.311C330.463 63.3025 330.728 61.2825 331.05 59.2854C331.061 59.2051 331.05 59.1477 331.05 59.1133C331.096 59.1248 331.154 59.1362 331.246 59.1362C331.614 59.1362 331.97 59.1362 332.338 59.1362C333.201 59.1362 334.064 59.1592 334.915 59.1821C337.274 59.2281 339.643 59.2969 342.002 59.3658C347.65 59.5379 353.287 59.7675 358.935 60.0315C364.491 60.2954 370.048 60.5938 375.593 60.9955C377.686 61.1447 379.791 61.3169 381.874 61.535C382.69 61.6153 383.507 61.7071 384.324 61.8219C384.715 61.8678 385.106 61.9252 385.497 61.9941C385.785 62.04 385.9 62.04 385.946 62.0285C386.303 66.0914 385.555 70.4413 385.221 74.4698H385.21Z" fill="#C78B5F" fill-opacity="0.4"/>
<path d="M369.357 84.7763C369.599 84.7763 369.875 84.6041 369.91 84.3516C370.37 81.5397 370.255 78.7163 370.427 75.8814C370.565 73.5286 371.451 71.3365 371.118 68.9722C371.083 68.7197 370.795 68.5475 370.565 68.5475C361.546 68.4787 352.527 68.4098 343.52 68.3295C343.301 68.3295 343.152 68.4328 343.06 68.5705C342.991 68.6623 342.945 68.7656 342.945 68.9033C342.876 73.9877 342.013 79.0836 342.945 84.1336C342.991 84.3861 343.255 84.5582 343.497 84.5582C352.113 84.5812 360.73 84.937 369.346 84.7763H369.357ZM345.74 83.422C342.864 83.399 343.624 79.1869 343.693 77.1095C343.773 74.5616 344.015 72.0251 344.072 69.4887C352.217 69.5575 360.362 69.6149 368.506 69.6838C369.07 69.6838 369.622 69.6838 370.186 69.6952C370.312 69.6952 370.427 69.6952 370.554 69.6952C369.944 69.6952 369.657 73.2761 369.53 73.9303C369.15 75.9503 369.196 78.0277 369.15 80.0706C369.116 81.7922 369.277 83.64 367.126 83.663C365.63 83.6859 364.135 83.6745 362.639 83.663C357.002 83.64 351.377 83.4679 345.752 83.4105L345.74 83.422Z" fill="#C78B5F" fill-opacity="0.4"/>
<path d="M365.688 79.6574C359.614 78.8885 354.196 78.854 347.293 78.854V80.0018C347.293 80.0018 359.706 80.0477 365.791 80.8052C366.528 80.897 366.424 79.7493 365.688 79.6574Z" fill="#C78B5F" fill-opacity="0.4"/>
<path d="M350.112 75.0207C354.943 76.0077 359.867 76.2373 364.779 76.4438C365.527 76.4783 365.515 75.3306 364.779 75.2961C359.959 75.0895 355.15 74.8829 350.411 73.9189C349.686 73.7697 349.375 74.8715 350.1 75.0207H350.112Z" fill="#C78B5F" fill-opacity="0.4"/>
<path d="M369.542 113.779C370.071 113.251 369.254 112.448 368.725 112.964C366.205 115.489 363.744 118.072 360.879 120.218C360.293 120.654 360.868 121.652 361.454 121.205C364.411 119.001 366.942 116.373 369.53 113.779H369.542Z" fill="#C78B5F" fill-opacity="0.4"/>
<path d="M372.314 114.755C370.324 116.763 368.529 118.921 366.735 121.102C366.263 121.664 367.08 122.49 367.551 121.916C369.346 119.736 371.141 117.567 373.131 115.57C373.648 115.042 372.843 114.227 372.314 114.755Z" fill="#C78B5F" fill-opacity="0.4"/>
<path d="M424.267 492.968C417.837 472.918 411.832 452.706 404.734 432.885C404.147 431.244 403.537 429.603 402.893 427.973C402.606 427.25 402.226 425.563 401.559 425.104C400.915 424.668 398.913 425.735 398.326 425.93C391.666 428.18 385.051 430.544 378.425 432.885C363.412 438.188 348.411 443.536 333.411 448.896C333.388 448.896 333.376 448.919 333.364 448.93C333.307 448.953 333.261 448.976 333.215 449.022C333.192 449.045 333.18 449.068 333.157 449.091C332.985 449.298 332.927 449.608 333.123 449.826C333.18 449.917 333.284 449.986 333.388 450.021C342.798 455.3 352.645 459.822 362.331 464.574C362.434 464.677 362.573 464.746 362.711 464.757C363.688 465.239 364.678 465.722 365.656 466.215C372.259 469.521 378.885 472.769 385.523 476.017C393.437 479.884 401.375 483.718 409.358 487.471C413.925 489.617 418.676 492.349 423.565 493.68C423.98 493.795 424.405 493.393 424.279 492.968H424.267ZM407.058 485.107C407.84 483.649 408.611 482.18 409.485 480.768C409.876 480.137 408.875 479.563 408.496 480.194C407.61 481.629 406.827 483.121 406.022 484.613C404.63 483.959 403.25 483.293 401.869 482.639C402.709 481.262 403.376 479.793 404.147 478.369C404.504 477.715 403.503 477.141 403.158 477.796C402.376 479.242 401.697 480.745 400.834 482.145C399.339 481.434 397.843 480.711 396.348 479.988C397.072 478.76 397.647 477.474 398.315 476.212C398.66 475.558 397.67 474.972 397.325 475.626C396.647 476.912 396.06 478.232 395.312 479.483C393.84 478.771 392.367 478.06 390.895 477.336C391.435 476.085 392.241 474.972 392.873 473.756C393.219 473.101 392.218 472.516 391.884 473.182C391.24 474.421 390.435 475.569 389.871 476.843C388.617 476.235 387.375 475.638 386.121 475.03C385.741 474.846 385.373 474.662 384.993 474.479C385.58 473.124 386.477 471.85 386.88 470.381C387.076 469.67 385.971 469.36 385.776 470.071C385.396 471.472 384.568 472.677 383.981 473.974C382.474 473.239 380.967 472.493 379.46 471.759C380.116 470.622 380.714 469.452 381.209 468.224C381.485 467.535 380.369 467.237 380.104 467.914C379.633 469.073 379.069 470.175 378.436 471.242C376.918 470.496 375.411 469.75 373.904 469.004C374.502 467.742 375.146 466.502 375.813 465.274C376.17 464.62 375.181 464.046 374.824 464.7C374.134 465.951 373.49 467.214 372.88 468.499C371.396 467.764 369.912 467.03 368.428 466.295C369.118 465.182 369.521 463.931 370.177 462.806C370.545 462.164 369.555 461.59 369.187 462.232C368.52 463.38 368.117 464.666 367.404 465.79C367.024 465.607 366.656 465.423 366.277 465.24C365.379 464.792 364.482 464.344 363.573 463.908C364.206 462.715 364.77 461.486 365.368 460.27C365.69 459.604 364.701 459.03 364.379 459.696C363.769 460.936 363.194 462.187 362.55 463.403C361.204 462.737 359.846 462.083 358.5 461.429C359.156 460.19 359.777 458.927 360.306 457.642C360.582 456.953 359.478 456.666 359.202 457.332C358.696 458.56 358.098 459.753 357.476 460.924C356.291 460.35 355.107 459.776 353.922 459.203C354.451 458.101 354.969 456.976 355.509 455.874C355.843 455.208 354.842 454.635 354.52 455.3C353.956 456.425 353.439 457.573 352.898 458.698C351.517 458.032 350.125 457.355 348.745 456.678C349.343 455.312 350.079 454.026 350.747 452.695C351.08 452.041 350.091 451.455 349.757 452.11C349.067 453.464 348.342 454.784 347.721 456.161C346.709 455.668 345.708 455.163 344.707 454.658C345.282 453.166 346.099 451.719 347.008 450.411C347.434 449.803 346.433 449.229 346.019 449.837C345.087 451.168 344.293 452.638 343.683 454.153C340.761 452.672 337.862 451.157 334.998 449.562C346.939 445.292 358.891 441.034 370.844 436.799C378.655 434.033 386.454 431.267 394.277 428.547C396.359 427.824 398.441 427.101 400.535 426.424C400.696 426.378 400.846 426.332 401.007 426.274C401.007 426.297 401.007 426.32 401.03 426.355C401.708 427.858 402.272 429.408 402.847 430.946C410.359 451.077 416.33 471.793 422.875 492.245C419.482 491.178 416.157 489.502 412.913 487.895C413.649 486.53 414.213 485.084 415.018 483.752C415.409 483.121 414.408 482.547 414.029 483.178C413.201 484.533 412.637 486.013 411.889 487.39C411.245 487.081 410.612 486.771 409.98 486.472C409.025 486.025 408.07 485.566 407.104 485.107H407.058Z" fill="#C78B5F" fill-opacity="0.6"/>
<path d="M396.256 437.453C385.154 441.516 374.053 445.579 362.952 449.642C362.837 449.688 362.757 449.757 362.688 449.837C362.515 450.044 362.458 450.354 362.665 450.56C362.734 450.663 362.837 450.732 362.952 450.755C377.47 458.537 392.298 465.756 406.77 473.629C407.219 473.87 407.748 473.48 407.61 472.987C404.55 461.142 400.351 449.596 396.957 437.843C396.877 437.557 396.543 437.338 396.244 437.442L396.256 437.453ZM406.16 472.023C392.39 464.574 378.333 457.665 364.517 450.296C375.02 446.451 385.523 442.607 396.037 438.762C399.281 449.883 403.204 460.832 406.172 472.034L406.16 472.023Z" fill="#C78B5F" fill-opacity="0.6"/>
<path d="M169.053 492.901C165.935 480.689 152.396 475.501 140.857 477.372C129.653 479.185 122.601 489.928 124.234 500.9C125.086 506.581 127.191 512.4 131.861 516.004C134.162 517.783 136.888 519.08 139.695 519.815C141.317 520.239 141.605 520.113 142.203 521.869C142.686 523.292 142.997 524.738 143.227 526.219C142.422 526.253 141.628 526.276 140.823 526.299C140.455 526.311 140.167 526.655 140.271 527.022C140.811 528.939 139.764 530.752 141.087 532.084C141.064 532.233 141.087 532.405 141.179 532.543C140.087 534.517 140.259 537.088 142.778 537.891C142.824 537.903 142.859 537.937 142.905 537.949C142.939 538.109 143.043 538.247 143.262 538.293C143.446 538.66 143.423 539.154 143.618 539.486C143.963 540.072 144.469 540.37 145.01 540.737C146.552 541.793 148.703 542.241 150.52 542.425C152.073 542.585 153.615 542.138 154.961 541.415C156.629 540.519 157.009 538.626 158.608 537.708C159.93 536.939 160.471 535.492 160.655 534.081C160.724 533.518 160.517 532.658 160.287 532.164C159.378 530.213 159.781 528.273 159.677 526.196C159.677 526.127 159.654 526.07 159.631 526.024C159.574 525.806 159.401 525.611 159.102 525.622C158.746 525.634 158.389 525.645 158.032 525.656C157.595 524.532 157.193 523.407 156.894 522.225C156.203 519.482 157.986 518.552 159.781 517.152C162.358 515.143 164.808 513.112 166.649 510.38C170.088 505.296 170.525 498.662 169.041 492.855L169.053 492.901ZM144.504 538.476C146.839 538.74 149.174 538.786 151.521 538.695C151.498 538.729 151.475 538.763 151.452 538.809C151.176 539.601 150.843 540.359 150.325 541.036C150.256 541.128 150.233 541.231 150.221 541.311C149.773 541.254 149.324 541.174 148.875 541.059C149.14 540.887 149.405 540.703 149.658 540.508C150.244 540.072 149.669 539.073 149.082 539.521C148.542 539.923 148.001 540.301 147.368 540.565C147.368 540.565 147.368 540.565 147.357 540.565C146.724 540.324 146.114 540.049 145.585 539.773C144.642 539.291 144.515 538.878 144.504 538.476ZM154.386 540.462C153.534 541.082 152.534 541.334 151.487 541.369C151.958 540.68 152.292 539.9 152.568 539.108C152.637 538.924 152.603 538.763 152.511 538.649C153.626 538.591 154.742 538.511 155.858 538.419C155.502 539.05 155.34 539.773 154.386 540.462ZM156.997 537.329C156.905 537.248 156.778 537.191 156.606 537.203C156.399 537.225 156.203 537.237 155.996 537.26C156.41 536.881 156.79 536.468 157.101 535.974C157.492 535.343 156.502 534.769 156.111 535.389C155.778 535.917 155.364 536.376 154.869 536.755C154.662 536.916 154.604 537.157 154.639 537.363C154.409 537.386 154.19 537.398 153.96 537.409C154.144 537.225 154.34 537.065 154.501 536.858C154.972 536.296 154.167 535.481 153.684 536.043C153.189 536.64 152.626 537.111 151.97 537.524C149.359 537.639 146.747 537.604 144.147 537.283C144.147 537.283 144.136 537.26 144.124 537.248C143.998 537.145 143.86 537.053 143.699 536.996C142.433 536.307 138.821 537.271 142.261 532.899C142.33 532.899 142.387 532.91 142.456 532.922C142.629 533.243 143.043 533.427 143.331 533.059C143.342 533.036 143.354 533.025 143.365 533.002C148.312 533.427 153.327 533.14 158.193 532.153C158.918 532.003 158.608 530.902 157.883 531.051C155.018 531.636 152.096 531.946 149.163 532.026C149.324 531.82 149.462 531.602 149.589 531.372C149.934 530.718 148.944 530.133 148.599 530.798C148.358 531.257 148.082 531.648 147.621 531.9C147.541 531.946 147.495 531.992 147.449 532.049C147.15 532.049 146.862 532.038 146.563 532.026C146.862 531.659 147.115 531.246 147.357 530.844C147.737 530.213 146.747 529.628 146.368 530.259C146.022 530.844 145.677 531.418 145.148 531.843C145.102 531.877 145.079 531.923 145.045 531.957C144.757 531.946 144.458 531.923 144.17 531.9C144.412 531.544 144.642 531.188 144.872 530.821C145.263 530.19 144.262 529.605 143.883 530.236C143.561 530.764 143.216 531.28 142.847 531.774C142.744 531.774 142.64 531.751 142.537 531.739C142.502 531.705 142.468 531.659 142.422 531.625C141.076 530.867 141.559 528.847 141.49 527.39C145.608 527.24 149.738 527.091 153.857 526.942C154.018 527.011 154.213 526.999 154.386 526.919C155.778 526.873 157.158 526.816 158.55 526.77C158.585 527.929 158.562 529.077 158.504 530.247C158.435 531.544 159.424 532.761 159.516 534.058C159.631 535.894 158.205 536.525 157.009 537.271L156.997 537.329ZM142.456 500.659C142.548 500.854 142.652 501.049 142.721 501.244C142.882 501.6 142.824 501.658 142.525 501.394C142.456 501.187 142.445 500.923 142.456 500.659ZM141.697 502.289C142.146 502.955 143.411 502.828 143.802 502.163C144.354 501.21 143.676 499.89 142.709 498.697C142.928 497.606 143.262 496.527 143.584 495.494C143.768 494.898 143.975 494.53 144.297 493.945C145.873 491.156 147.829 494.863 148.185 495.965C148.266 496.229 148.335 496.493 148.404 496.757C148.024 497.457 147.76 498.215 147.691 498.961C147.598 499.787 148.622 500.981 149.497 500.464C150.474 499.89 150.336 498.318 149.773 496.677C150.658 495.334 152.062 494.025 152.879 495.426C154.443 498.111 153.972 502.518 153.937 505.503C153.845 512.286 153.718 519.069 153.557 525.852C151.958 525.909 150.348 525.966 148.749 526.024C146.437 521.18 143.871 516.452 141.72 511.528C140.432 508.601 139.419 505.56 138.66 502.461C138.453 501.589 136.992 495.598 139.385 497.055C140.19 497.549 140.88 498.329 141.467 499.121C141.26 500.189 141.11 501.417 141.697 502.289ZM168.616 501.44C168.029 508.039 163.807 513.066 158.516 516.693C157.158 517.622 156.031 518.38 155.64 520.033C155.202 521.858 156.146 524.015 156.824 525.737C156.111 525.76 155.41 525.783 154.696 525.817C154.823 520.515 154.834 515.201 154.949 509.887C155.041 505.732 155.306 501.554 154.65 497.434C154.248 494.875 152.752 492.235 150.175 494.507C149.853 494.783 149.554 495.104 149.267 495.449C148.565 493.945 147.633 492.614 147.012 492.235C143.745 490.272 142.376 495.024 141.766 497.664C141.064 496.952 140.363 496.367 139.937 496.068C135.715 493.061 137.211 501.336 137.521 502.771C139.316 511.057 143.814 518.506 147.472 526.07C146.437 526.104 145.401 526.139 144.366 526.184C144.009 523.832 143.319 521.639 142.56 519.39C142.468 519.137 142.272 518.977 142.008 518.965C129.779 518.403 123.751 504.584 125.362 493.922C127.018 482.996 137.728 477.383 147.944 478.21C153.557 478.669 159.056 480.792 163.14 484.706C167.569 488.952 169.122 495.517 168.593 501.44H168.616Z" fill="#C78B5F" fill-opacity="0.4"/>
<path d="M131.332 487.392C130.584 489.171 130.044 490.995 129.756 492.901C129.641 493.624 130.757 493.934 130.861 493.21C131.148 491.305 131.689 489.48 132.437 487.701C132.724 487.024 131.608 486.726 131.332 487.392Z" fill="#C78B5F" fill-opacity="0.4"/>
<path d="M128.307 490.41C128.169 491.42 128.031 492.43 128.157 493.452C128.249 494.175 129.4 494.186 129.307 493.452C129.192 492.533 129.296 491.627 129.423 490.72C129.526 489.997 128.41 489.687 128.318 490.41H128.307Z" fill="#C78B5F" fill-opacity="0.4"/>
<path d="M165.832 505.537C166.269 504.217 166.591 502.955 166.361 501.554C166.235 500.82 165.13 501.141 165.257 501.864C165.452 503.035 165.096 504.137 164.728 505.227C164.497 505.927 165.602 506.237 165.832 505.537Z" fill="#C78B5F" fill-opacity="0.4"/>
<path d="M163.014 503.965C163.106 504.527 163.014 505.089 162.991 505.652C162.979 506.386 164.129 506.386 164.141 505.652C164.152 504.975 164.233 504.332 164.118 503.666C164.003 502.932 162.887 503.253 163.014 503.976V503.965Z" fill="#C78B5F" fill-opacity="0.4"/>
<path d="M157.13 111.225C155.864 110.215 154.588 109.205 153.276 108.241C154.116 107.231 154.99 106.244 155.864 105.269C156.371 104.695 155.531 103.857 155.025 104.431C154.104 105.464 153.184 106.497 152.298 107.564C151.136 106.761 149.94 105.992 148.675 105.349C147.996 105.005 147.386 106.026 148.076 106.382C149.284 107.002 150.423 107.736 151.539 108.494C150.561 109.722 149.652 110.996 148.87 112.362C148.491 113.027 149.526 113.636 149.905 112.958C150.665 111.616 151.562 110.365 152.528 109.171C153.805 110.101 155.048 111.088 156.29 112.075C156.888 112.545 157.74 111.707 157.13 111.237V111.225Z" fill="#C78B5F" fill-opacity="0.4"/>
<path d="M90.7302 584.866C89.1081 579.586 83.3332 577.888 78.3981 577.165V578.266C83.9199 576.935 90.3735 573.561 87.21 566.984C84.7712 561.923 77.3283 558.618 71.9905 560.316C62.8911 563.208 60.2912 578.462 72.1631 578.519C72.0711 578.163 71.9675 577.807 71.8755 577.452C68.1713 579.299 63.7999 580.987 63.3052 585.75C62.8911 589.801 65.2493 593.29 68.3784 595.631C76.2239 601.496 92.9274 596.251 90.7302 584.866C90.5921 584.143 89.4878 584.453 89.6258 585.176C90.7647 591.075 85.0473 595.322 79.9856 596.722C75.8903 597.847 71.4614 596.722 68.2173 594.071C65.6865 592.016 63.9609 588.745 64.5246 585.451C65.2148 581.365 69.2526 580.057 72.4622 578.45C72.9914 578.186 72.7153 577.383 72.1746 577.383C62.1663 577.337 64.352 565.802 70.8632 562.084C75.2921 559.547 80.7449 561.843 84.219 564.976C86.3932 566.938 87.8427 570.003 86.3357 572.769C84.8632 575.477 80.8599 576.51 78.1105 577.176C77.5814 577.302 77.5354 578.198 78.1105 578.278C82.574 578.932 88.1418 580.309 89.6373 585.176C89.8559 585.876 90.9602 585.577 90.7417 584.866H90.7302Z" fill="#C78B5F" fill-opacity="0.4"/>
<path d="M74.4984 566.629C79.2379 565.056 81.7687 571.839 77.8344 574.353C72.7038 577.647 69.4942 568.442 74.4984 566.629C75.1886 566.376 74.8895 565.263 74.1877 565.527C68.0332 567.765 71.2083 578.645 77.7999 575.661C83.6438 573.021 80.4918 563.438 74.1877 565.527C73.486 565.756 73.7851 566.87 74.4984 566.629Z" fill="#C78B5F" fill-opacity="0.4"/>
<path d="M76.2009 592.865C72.7268 592.705 70.2995 590.467 71.1278 586.828C71.8525 583.615 76.3505 582.41 79.1344 582.295C82.8616 582.146 85.473 585.095 83.6554 588.665C82.3439 591.247 78.9618 592.728 76.2009 592.865C75.4647 592.9 75.4532 594.048 76.2009 594.013C80.0662 593.83 83.9085 591.569 85.2659 587.838C86.6579 584.005 83.1607 581.515 79.8476 581.159C75.8213 580.734 70.8172 583.053 69.8739 587.207C68.9421 591.316 72.5888 593.841 76.2124 594.002C76.9487 594.036 76.9487 592.888 76.2124 592.854L76.2009 592.865Z" fill="#C78B5F" fill-opacity="0.4"/>
<path d="M83.5173 215.656C79.7671 220.534 83.7359 226.433 89.5798 225.871C94.0662 225.435 97.5864 219.696 92.0186 217.791C89.9594 217.091 87.4516 217.825 86.1862 219.616C85.1853 221.028 85.0933 223.116 87.0029 223.805C88.7515 224.448 90.8912 224.172 91.4549 222.152C92.0186 220.144 89.8789 219.593 88.4179 220.178C87.7162 220.465 88.0268 221.613 88.74 221.326C90.5461 220.603 90.7877 222.405 89.2577 222.91C87.7737 223.403 86.1517 222.267 86.8764 220.741C88.1073 218.158 94.3308 217.883 93.8132 221.429C93.3415 224.597 88.809 225.148 86.4393 224.379C82.7926 223.197 82.505 218.927 84.5526 216.265C85.0243 215.656 83.989 215.059 83.5173 215.668V215.656Z" fill="#C78B5F" fill-opacity="0.4"/>
<path d="M33.4759 336.534C36.1218 338.634 39.0322 340.253 42.0117 341.836C42.3108 341.997 42.5869 341.963 42.817 341.699C43.5992 340.781 44.37 339.839 45.1292 338.875C48.0282 339.312 50.9041 339.92 53.8146 340.321C54.1022 340.367 54.6313 342.835 55.1605 343.329C58.3125 346.267 61.0389 342.801 62.2008 339.874C62.9716 337.934 63.7998 333.963 61.2 332.838C59.9921 332.322 58.9337 332.632 57.8179 333.229C56.7595 333.791 52.0315 328.925 51.3413 328.156C51.2952 328.11 51.2492 328.087 51.2032 328.052C51.6173 327.042 52.1005 326.067 52.7907 325.16C52.9863 324.908 52.9058 324.54 52.6527 324.357C49.8228 322.268 46.4176 321.338 43.3576 319.674C43.3231 319.651 43.3001 319.651 43.2656 319.64C43.0355 319.49 42.7364 319.502 42.5524 319.8C39.4809 325.091 36.3979 330.394 33.3264 335.685C33.1653 335.972 33.1998 336.282 33.4644 336.488L33.4759 336.534ZM34.5688 335.914C35.259 334.721 35.9607 333.516 36.651 332.322C37.0651 334.468 37.7093 336.557 38.5146 338.577C37.1571 337.762 35.8342 336.878 34.5688 335.914ZM39.1013 338.91C39.4349 338.852 39.7455 338.531 39.5844 338.129C38.7216 335.972 38.0429 333.745 37.6633 331.45C37.6288 331.255 37.5252 331.128 37.3987 331.059C38.0774 329.889 38.7561 328.73 39.4349 327.559C39.803 331.553 42.2418 335.088 43.3922 338.864C43.4267 338.967 43.4842 339.048 43.5417 339.105C43.0931 339.633 42.6444 340.149 42.2073 340.654C41.1604 340.092 40.1251 339.518 39.0898 338.921L39.1013 338.91ZM45.9115 333.206C44.5195 329.946 42.6559 326.882 41.8622 323.404C41.8622 323.393 41.8622 323.381 41.8507 323.37C42.1958 322.761 42.5524 322.165 42.8975 321.556C44.0019 325.252 45.9345 328.661 47.453 332.196C47.591 332.517 47.9016 332.574 48.1547 332.483C47.2919 334.307 46.038 336.052 44.7036 337.705C44.4965 337.762 44.3815 337.934 44.347 338.129C43.1736 334.491 40.8383 331.071 40.5392 327.215C40.5047 326.824 40.1826 326.698 39.8835 326.767C40.2746 326.101 40.6543 325.436 41.0454 324.77C41.9657 327.88 43.5877 330.692 44.8646 333.676C45.1522 334.353 46.2106 333.894 45.923 333.217L45.9115 333.206ZM48.5228 331.691C48.5228 331.691 48.5113 331.714 48.4998 331.725C47.0158 328.27 45.0947 324.931 44.0134 321.315C46.5327 322.52 49.2016 323.427 51.5253 325.011C50.1334 327.054 49.4316 329.384 48.5228 331.691ZM57.0701 334.686C57.2657 334.87 57.5763 334.79 57.7719 334.663C60.9699 332.471 62.3158 335.352 61.5796 338.233C61.2805 339.38 60.7053 340.586 60.1416 341.607C58.6461 344.316 54.7694 343.202 55.4136 339.931C55.4711 339.621 55.195 339.334 54.8959 339.3C51.8934 338.944 48.9255 338.336 45.9345 337.854C46.9468 336.534 47.9131 335.168 48.7759 333.768C49.6617 332.345 50.1794 330.772 50.7431 329.235C52.6527 331.266 55.011 332.792 57.0586 334.686H57.0701Z" fill="#C78B5F"/>
<path d="M136.498 148.919C136.118 150.904 135.75 152.901 135.37 154.887C135.232 155.61 136.337 155.92 136.475 155.197C136.854 153.211 137.222 151.214 137.602 149.229C137.74 148.506 136.624 148.196 136.498 148.919Z" fill="#C78B5F"/>
<path d="M138.983 149.229C138.948 151.375 138.557 153.464 138.108 155.564C137.947 156.287 139.063 156.586 139.213 155.874C139.696 153.682 140.098 151.49 140.133 149.24C140.133 148.494 138.994 148.506 138.983 149.24V149.229Z" fill="#C78B5F"/>
<path d="M112.363 159.065C110.304 158.238 108.291 157.378 106.381 156.23C105.748 155.851 105.161 156.838 105.794 157.217C107.784 158.41 109.901 159.294 112.052 160.166C112.742 160.442 113.042 159.329 112.363 159.065Z" fill="#C78B5F"/>
<path d="M117.942 154.508C117.378 154.026 116.562 154.841 117.125 155.323C117.896 155.989 118.586 156.712 119.265 157.469C119.76 158.02 120.565 157.205 120.082 156.654C119.415 155.897 118.713 155.174 117.942 154.508Z" fill="#C78B5F"/>
<path d="M167.086 129.327C162.807 129.017 158.228 129.488 154.225 131.083C153.546 131.359 153.845 132.461 154.536 132.185C158.47 130.624 162.887 130.154 167.086 130.464C167.822 130.521 167.822 129.373 167.086 129.316V129.327Z" fill="#C78B5F"/>
<path d="M180.109 105.397C180.086 105.328 180.063 105.26 180.028 105.214C179.832 104.766 179.625 104.33 179.43 103.894C178.003 100.806 176.439 97.7765 174.771 94.8154C174.748 94.7236 174.702 94.6547 174.644 94.5973C174.207 93.8283 173.77 93.0594 173.31 92.3019C170.422 87.447 167.915 82.3741 164.532 77.8292C163.877 76.9569 163.175 76.1305 162.439 75.3271C162.404 75.2812 162.37 75.2239 162.312 75.1894C159.344 72.0102 155.709 69.5771 151.292 68.8311C146.943 68.0965 142.974 69.887 140.26 72.9973C138.189 71.0002 135.911 68.5097 133.116 67.5112C130.251 66.4782 127.433 67.1783 124.649 68.1309C122.038 69.0261 118.506 69.9902 117.033 72.5496C115.78 74.7418 116.723 78.139 116.562 80.5378C116.562 80.6411 116.573 80.7214 116.608 80.8017C114.756 81.3871 112.95 82.1102 111.247 83.0054C109.222 84.0613 107.393 85.473 105.771 87.0683C105.691 87.1486 105.656 87.229 105.633 87.3093C103.436 88.7669 101.469 90.6147 99.8584 92.8757C91.6677 104.33 92.4499 121.787 95.8321 134.756C95.8321 134.802 95.8665 134.836 95.8896 134.871C92.3694 136.443 89.4589 138.865 88.3891 142.756C87.5723 145.74 87.86 148.942 91.0235 150.124C91.2881 150.227 91.5527 150.308 91.8288 150.376C91.7137 150.503 91.6332 150.675 91.6792 150.881C92.4845 155.139 91.6447 161.131 94.8427 164.551C95.8206 165.584 97.178 165.469 98.4664 165.297C101.354 164.907 104.207 164.275 107.071 163.782C116.999 162.037 127.663 166.226 137.234 161.968C138.741 161.291 139.88 160.339 140.754 159.214C140.846 159.248 140.95 159.271 141.065 159.248C142.537 158.996 143.964 158.617 145.31 158.101C145.436 158.192 145.597 158.25 145.793 158.204C151.74 156.792 157.711 155.323 163.382 153.005C167.121 151.478 170.744 149.516 172.436 145.866C176.094 144.638 179.568 144.087 182.478 141.264C185.124 138.693 186.183 134.997 186.493 131.428C187.264 122.602 183.744 113.42 180.132 105.42L180.109 105.397ZM179.372 131.634C178.866 134.997 177.141 137.499 173.413 138.13C173.034 134.526 171.837 130.888 170.768 127.732C168.915 122.234 166.534 116.978 164.889 111.411C163.083 105.294 161.288 99.1423 158.125 93.5644C156.468 90.6492 154.306 88.2849 151.775 86.3338C151.901 86.2764 151.993 86.1501 152.028 85.9665C152.454 83.6022 152.615 81.1002 153.454 78.8392C155.905 79.5852 158.044 81.7199 159.873 84.0498C159.873 84.1187 159.873 84.1875 159.885 84.2564C159.919 84.5892 160.173 84.7614 160.437 84.7958C161.564 86.2993 162.554 87.8373 163.417 89.0883C163.75 89.5703 164.049 90.0868 164.383 90.5803C164.394 90.7984 164.521 90.9476 164.67 91.0279C166.327 93.5873 167.88 96.2041 169.318 98.9013C169.318 99.1078 169.318 99.303 169.341 99.5095C169.353 99.8653 169.64 100.049 169.916 100.06C171.159 102.459 172.332 104.892 173.413 107.36C173.436 107.888 173.482 108.404 173.551 108.921C173.609 109.311 173.954 109.403 174.253 109.288C175.185 111.503 176.473 114.705 177.532 118.183C177.417 118.929 177.336 119.686 177.302 120.432C177.267 121.006 177.957 121.133 178.279 120.811C178.97 123.462 179.453 126.148 179.522 128.616C179.177 129.454 178.809 130.268 178.383 131.049C178.026 131.692 179.004 132.265 179.372 131.634ZM164.394 88.48C164.302 88.3537 164.222 88.2275 164.141 88.1013C163.233 86.7699 162.186 85.1975 161.012 83.6825C160.805 81.1461 161.001 78.5522 160.989 76.0043C161.219 76.0617 161.449 76.1191 161.668 76.1879C162.6 77.2324 163.463 78.3342 164.268 79.4589C164.601 82.4545 164.44 85.4844 164.394 88.5029V88.48ZM159.77 82.156C158.067 80.2049 156.123 78.5293 153.926 77.8062C155.168 75.6026 157.527 75.3731 159.839 75.7633C159.862 77.8866 159.724 80.0328 159.77 82.1675V82.156ZM178.671 118.217C179.131 114.981 180.074 111.767 180.235 108.519C181.305 111.044 182.294 113.638 183.111 116.266C182.294 119.445 181.524 122.957 180.408 126.24C180.097 123.577 179.43 120.8 178.659 118.217H178.671ZM179.154 105.765C179.154 109.15 178.671 112.525 178.003 115.888C177.06 113.064 176.048 110.608 175.392 108.99C175.116 108.324 174.817 107.67 174.541 107.016C174.391 103.825 174.978 100.623 174.955 97.4322C176.082 99.6014 177.221 101.771 178.245 103.94C178.533 104.548 179.154 105.156 179.154 105.765ZM173.689 95.0679C173.689 95.0679 173.678 95.1482 173.689 95.2056C174.138 98.3274 173.62 101.461 173.448 104.594C172.516 102.563 171.527 100.554 170.48 98.5684C170.365 95.3089 170.388 92.0494 170.181 88.8013C171.389 90.8672 172.562 92.9561 173.689 95.0679ZM168.892 86.5977C168.892 86.5977 168.881 86.6666 168.881 86.7125C169.215 89.9261 169.203 93.1283 169.261 96.3419C168.087 94.253 166.856 92.1986 165.545 90.1901C165.522 87.2404 165.729 84.2679 165.579 81.3182C165.625 81.3871 165.66 81.4445 165.706 81.5133C166.799 83.166 167.857 84.8761 168.892 86.5977ZM152.454 70.2313C155.456 70.8855 158.01 72.5497 160.219 74.65C157.711 74.1909 154.72 74.2942 153.121 76.5552C151.28 79.1605 151.568 82.6496 150.417 85.6796C149.267 84.44 147.035 83.3841 145.011 82.4889C142.767 81.4904 140.524 80.7214 138.074 80.1475C139.167 73.1694 145.459 68.6933 152.454 70.2313ZM133.162 68.7736C135.601 69.8295 137.591 72.0102 139.466 73.8236C139.5 73.8581 139.535 73.8695 139.569 73.8925C138.994 74.6729 138.476 75.5222 138.051 76.4175C137.97 76.5896 137.913 76.7618 137.844 76.9339C136.337 72.9628 133.484 70.4264 129.791 68.1654C130.93 68.1309 132.057 68.2916 133.173 68.7736H133.162ZM117.804 73.8466C118.368 70.874 123.303 69.8181 125.719 68.9917C126.674 68.6589 127.651 68.4064 128.629 68.2687C128.537 68.4982 128.572 68.7852 128.859 68.9458C132.932 71.379 135.969 74.0302 137.234 78.7473C137.234 78.7818 137.269 78.8047 137.28 78.8277C137.2 79.1835 137.142 79.5392 137.085 79.895C135.301 79.5278 133.495 79.2868 131.666 79.149C133.07 76.1305 133.415 72.3316 129.964 70.5871C126.536 68.854 122.463 70.9658 120.232 73.617C120.07 73.8121 119.99 74.0876 120.139 74.3171C121.324 76.1076 122.9 77.5308 124.614 78.8047C125.213 79.2523 125.788 78.2538 125.19 77.8177C123.752 76.7503 122.417 75.5337 121.37 74.0761C123.28 71.9988 126.006 70.61 128.871 71.4019C132.333 72.366 131.781 76.165 130.596 78.7014C130.205 78.5408 129.826 78.3916 129.435 78.2309C130.136 76.4978 129.711 75.132 129.158 73.2268C128.951 72.5152 127.847 72.8251 128.054 73.5367C128.549 75.2353 129.078 76.5322 128.169 78.2538C128.008 78.5637 128.135 78.8621 128.399 79.0228C124.775 79.0228 121.163 79.5048 117.735 80.4689C117.862 78.2768 117.402 75.9928 117.804 73.8351V73.8466ZM89.2864 144.271C90.0917 135.112 103.079 133.666 110.051 133.011C117.678 132.3 125.351 132.644 132.989 132.265C132.518 132.679 132.103 133.184 131.804 133.723C129.492 137.832 133.162 145.568 127.628 147.565C122.889 149.275 117.321 147.14 112.42 147.461C107.577 147.771 102.815 148.919 97.9948 149.378C95.9241 149.573 93.7844 149.665 91.7482 149.171C89.2404 148.563 89.1024 146.486 89.2979 144.294L89.2864 144.271ZM136.59 134.24C136.003 133.735 135.393 133.264 134.669 132.954C133.99 132.667 133.403 133.654 134.094 133.941C134.83 134.251 135.428 134.733 136.015 135.238C135.681 135.996 135.451 136.856 135.255 137.763C134.91 137.476 134.485 137.166 134.289 136.776C133.955 136.11 132.966 136.696 133.3 137.361C133.507 137.774 133.898 138.096 134.243 138.406C134.496 138.624 134.749 138.83 135.014 139.037C134.807 140.081 134.577 141.091 134.22 141.952C133.472 141.321 132.736 140.69 131.988 140.058C131.988 140.058 131.977 140.058 131.965 140.058C131.965 136.753 132.046 133.344 135.29 132.254C136.463 131.864 137.407 132.311 138.154 133.149C137.51 133.379 136.993 133.757 136.613 134.262L136.59 134.24ZM131.942 141.528C132.506 142.01 133.07 142.48 133.633 142.962C133.196 143.559 132.587 143.961 131.758 144.098C131.896 143.318 131.931 142.446 131.942 141.528ZM110.005 162.221C105.564 162.588 101.135 164.367 96.6718 164.287C92.8986 164.218 93.2667 153.131 92.7835 150.606C96.5683 151.283 101.066 150.181 104.632 149.63C109.878 148.827 114.503 148.517 119.771 148.999C123.061 149.298 127.502 149.653 129.998 147.404C130.803 152.396 132.011 157.217 133.967 161.9C133.99 161.957 134.024 162.003 134.059 162.049C126.536 164.39 117.586 161.59 109.993 162.221H110.005ZM137.154 160.729C136.486 161.108 135.796 161.406 135.094 161.67C135.094 161.647 135.094 161.624 135.083 161.59C133.024 156.643 131.781 151.536 130.976 146.256C130.976 146.256 130.976 146.245 130.976 146.233C131.149 145.946 131.298 145.625 131.425 145.281C131.459 145.281 131.494 145.292 131.54 145.292C132.92 145.154 133.817 144.42 134.462 143.433C134.864 143.387 135.175 142.951 134.933 142.595C135.14 142.159 135.313 141.7 135.474 141.218C135.612 140.816 135.727 140.288 135.854 139.726C135.854 139.726 135.877 139.749 135.888 139.749C136.452 140.219 137.269 139.416 136.705 138.934C136.509 138.773 136.325 138.624 136.13 138.463C136.337 137.579 136.578 136.661 136.946 135.904C137.43 135.973 137.878 135.41 137.487 135.009C137.844 134.549 138.292 134.228 138.856 134.09C139.868 135.789 140.432 138.107 140.72 139.312C141.675 143.272 141.928 147.438 141.824 151.49C141.721 155.495 140.95 158.594 137.177 160.717L137.154 160.729ZM142.319 141.665C141.824 138.394 141.019 134.205 138.396 131.887C138.166 131.68 137.924 131.519 137.671 131.393C137.694 131.095 137.51 130.785 137.131 130.819C127.295 131.738 117.39 130.969 107.566 132.105C104.299 132.484 100.399 133.092 96.9479 134.435C94.0834 123.417 93.6578 110.987 97.4656 100.152C99.3637 94.7236 102.826 89.9146 107.923 87.1142C113.249 84.1875 119.932 84.0842 125.546 86.1386C136.797 90.2589 143.573 102.758 147.369 113.34C149.175 118.378 150.084 123.531 151.062 128.765C152.039 133.941 153.19 139.129 153.098 144.42C152.971 151.937 148.623 156.494 141.536 157.974C144.056 153.349 143.066 146.543 142.319 141.654V141.665ZM161.68 152.454C157.481 154.107 153.086 155.266 148.692 156.333C150.21 155.266 151.522 153.9 152.488 152.132C154.628 148.219 154.432 143.318 153.96 139.037C153.42 134.125 152.246 129.304 151.453 124.427C150.59 119.147 148.991 113.925 146.897 109.001C142.871 99.544 136.417 89.249 126.409 85.2664C121.025 83.1202 115.239 83.1316 110.131 85.0139C110.603 84.704 111.098 84.4056 111.592 84.1187C118.702 81.9495 125.868 82.3397 133.173 83.0168C139.04 83.5563 144.01 85.7254 148.301 89.7195C157.389 98.1897 160.081 109.621 162.784 121.282C162.956 122.005 164.061 121.695 163.888 120.972C162.416 114.614 161.024 108.117 158.447 102.092C156.066 96.5255 152.569 91.9691 148.059 87.9406C144.09 84.3941 139.328 82.6381 134.105 81.9495C128.549 81.2264 122.843 80.928 117.287 81.697C124.545 79.5048 132.805 79.8951 139.834 81.7773C145.862 83.3841 151.637 86.5174 155.445 91.5559C159.229 96.5714 161.139 102.861 162.922 108.795C164.44 113.856 166.154 118.722 168.064 123.646C170.215 129.201 172.367 135.123 172.275 141.16C172.171 147.633 167.052 150.308 161.68 152.419V152.454ZM181.972 140.116C179.545 142.87 176.243 143.49 172.965 144.489C173.459 142.824 173.597 141.057 173.505 139.267C173.54 139.267 173.563 139.267 173.609 139.267C179.05 138.417 180.718 134.148 180.626 128.983C182.007 125.655 182.904 121.947 183.767 118.47C184.733 122.039 185.343 125.678 185.4 129.327C185.458 133.195 184.584 137.143 181.972 140.104V140.116Z" fill="#C78B5F"/>
<path d="M139.627 107.039C140.087 107.624 140.892 106.798 140.444 106.224C138.442 103.653 137.027 100.657 135.382 97.8569C135.002 97.2141 134.013 97.7995 134.393 98.4422C136.095 101.346 137.556 104.387 139.627 107.039Z" fill="#C78B5F"/>
<path d="M134.531 103.859C134.036 103.309 133.231 104.123 133.714 104.674C135.923 107.188 137.993 109.793 139.811 112.605C140.213 113.225 141.203 112.651 140.8 112.031C138.925 109.139 136.797 106.453 134.519 103.871L134.531 103.859Z" fill="#C78B5F"/>
</g>
<defs>
<clipPath id="clip0_61_17815">
<rect width="960" height="657" fill="white"/>
</clipPath>
</defs>
</svg>
