<svg width="125" height="26" viewBox="0 0 125 26" fill="none" xmlns="http://www.w3.org/2000/svg">
<path d="M23.128 0.763916L12.616 10.3399L2.06803 0.763916H0.340027V25.9999H24.892V0.763916H23.128ZM5.38003 20.9599V10.5559L12.616 17.1439L19.852 10.5559V20.9599H5.38003Z" fill="#E16F38"/>
<path d="M40.61 11.0702L40.31 12.3002C39.11 11.2802 37.55 10.6802 35.87 10.6802C32.06 10.6802 29 13.7102 29 17.5202C29 21.3002 32.06 24.3602 35.87 24.3602C37.55 24.3602 39.11 23.7602 40.31 22.7402V24.0002H43.49V11.0702H40.61ZM38.72 20.0102C38.09 20.6702 37.25 21.0302 36.35 21.0302C35.45 21.0302 34.61 20.6702 33.95 20.0102C33.32 19.3202 32.96 18.4502 32.96 17.5202C32.96 16.5902 33.32 15.6902 33.95 15.0302C34.61 14.3702 35.45 14.0102 36.35 14.0102C37.25 14.0102 38.09 14.3702 38.72 15.0302C39.38 15.6902 39.71 16.5902 39.71 17.5202C39.71 18.4502 39.38 19.3202 38.72 20.0102Z" fill="#25292D"/>
<path d="M57.372 24.0002H60.912V1.68018H57.372V12.6302C56.142 11.4302 54.432 10.6802 52.572 10.6802C48.792 10.6802 45.732 13.7702 45.732 17.5502C45.732 21.3602 48.792 24.4202 52.572 24.4202C54.432 24.4202 56.142 23.6702 57.372 22.4702V24.0002ZM49.692 17.5502C49.692 16.6202 50.052 15.7502 50.682 15.0602C51.312 14.4002 52.152 14.0402 53.052 14.0402C53.952 14.0402 54.822 14.4002 55.452 15.0602C56.082 15.7502 56.442 16.6202 56.442 17.5502C56.442 18.4802 56.082 19.3802 55.452 20.0402C54.822 20.7002 53.952 21.0602 53.052 21.0602C52.152 21.0602 51.312 20.7002 50.682 20.0402C50.052 19.3802 49.692 18.4802 49.692 17.5502Z" fill="#25292D"/>
<path d="M68.2637 2.97018H64.0637V23.9702H76.0937V19.8002H68.2637V2.97018Z" fill="#25292D"/>
<path d="M90.5612 11.0702L90.2612 12.3002C89.0612 11.2802 87.5012 10.6802 85.8212 10.6802C82.0112 10.6802 78.9512 13.7102 78.9512 17.5202C78.9512 21.3002 82.0112 24.3602 85.8212 24.3602C87.5012 24.3602 89.0612 23.7602 90.2612 22.7402V24.0002H93.4412V11.0702H90.5612ZM88.6712 20.0102C88.0412 20.6702 87.2012 21.0302 86.3012 21.0302C85.4012 21.0302 84.5612 20.6702 83.9012 20.0102C83.2712 19.3202 82.9112 18.4502 82.9112 17.5202C82.9112 16.5902 83.2712 15.6902 83.9012 15.0302C84.5612 14.3702 85.4012 14.0102 86.3012 14.0102C87.2012 14.0102 88.0412 14.3702 88.6712 15.0302C89.3312 15.6902 89.6612 16.5902 89.6612 17.5202C89.6612 18.4502 89.3312 19.3202 88.6712 20.0102Z" fill="#25292D"/>
<path d="M100.113 1.68018H96.2727V24.0002H100.113V22.4102C101.343 23.6102 103.053 24.3602 104.913 24.3602C108.693 24.3602 111.753 21.3002 111.753 17.4902C111.753 13.7102 108.693 10.6202 104.913 10.6202C103.053 10.6202 101.343 11.3702 100.113 12.5702V1.68018ZM106.803 19.9802C106.173 20.6402 105.333 21.0002 104.433 21.0002C103.533 21.0002 102.663 20.6402 102.033 19.9802C101.403 19.3202 101.043 18.4202 101.043 17.4902C101.043 16.5602 101.403 15.6902 102.033 15.0002C102.663 14.3402 103.533 13.9802 104.433 13.9802C105.333 13.9802 106.173 14.3402 106.803 15.0002C107.433 15.6902 107.793 16.5602 107.793 17.4902C107.793 18.4202 107.433 19.3202 106.803 19.9802Z" fill="#25292D"/>
<path d="M113.443 22.0199C115.033 23.6099 117.253 24.3599 119.593 24.3599C122.233 24.3599 124.363 22.3799 124.363 20.3099C124.363 18.0899 122.653 16.8599 120.823 16.3199C119.323 15.8099 117.913 15.6299 118.063 14.6699C118.243 13.2899 119.953 13.1399 122.473 14.9399L124.213 12.2099C122.473 11.1599 121.273 10.6799 119.053 10.6799C116.593 10.6799 114.463 12.2399 114.463 14.6099C114.463 17.0999 116.203 17.8799 118.723 18.6599C119.683 18.9599 120.613 19.2599 120.613 20.2199C120.613 21.8399 117.733 21.7499 115.843 19.5899L113.443 22.0199Z" fill="#25292D"/>
</svg>
