<svg width="14" height="14" viewBox="0 0 14 14" fill="none" xmlns="http://www.w3.org/2000/svg">
<path d="M6.48328 11.7035C6.80107 11.5117 7.19896 11.5117 7.51675 11.7035L10.121 13.2753C10.8783 13.7324 11.8126 13.0534 11.6116 12.192L10.9205 9.22943C10.8361 8.86793 10.959 8.48947 11.2396 8.24642L13.542 6.25185C14.2106 5.67264 13.8531 4.57438 12.9717 4.4996L9.94255 4.2426C9.57297 4.21125 9.25111 3.97791 9.10637 3.63641L7.92074 0.838998C7.57615 0.0259696 6.42389 0.0259681 6.0793 0.838996L4.89367 3.63641C4.74893 3.97791 4.42707 4.21125 4.05749 4.2426L1.02832 4.4996C0.146893 4.57438 -0.210517 5.67264 0.45808 6.25185L2.76048 8.24642C3.04104 8.48947 3.16389 8.86793 3.07956 9.22943L2.38843 12.192C2.18747 13.0534 3.1217 13.7324 3.87902 13.2753L6.48328 11.7035Z" fill="#F0C550"/>
</svg>
