<svg width="108" height="102" viewBox="0 0 108 102" fill="none" xmlns="http://www.w3.org/2000/svg">
<path d="M89.2782 11.6447C87.6331 8.33927 86.0571 3.95498 81.4671 4.89611C79.7415 5.2519 78.0505 5.96349 76.4054 6.5603C73.2764 7.70802 70.1704 8.90165 67.0759 10.1068C65.8565 8.75245 63.5097 9.07381 61.4506 9.70505C59.3224 6.2619 57.3207 2.78431 53.4094 1.16603C47.554 -1.26714 39.881 0.53478 34.2557 2.68101C28.4233 4.90759 22.3838 9.4296 19.4618 15.0419C17.4372 18.9327 18.7256 23.2596 19.7379 27.2307C17.7938 28.2981 15.9532 29.8016 16.1258 31.6265C14.2967 32.4414 12.4676 33.2562 10.6385 34.0826C7.84305 35.3566 4.79455 36.5387 2.24072 38.2603C0.216055 39.6375 -0.416649 41.9559 0.262073 44.2169C1.8841 49.6227 3.77072 55.2006 6.30155 60.2391C6.84222 61.318 7.57846 62.305 8.03861 63.3838C12.0074 72.7722 15.8842 82.2409 20.9803 91.1127C22.867 94.3952 25.0872 98.1138 28.3312 100.237C32.0124 102.647 38.2245 100.317 41.8942 98.9746C57.4127 93.259 72.5862 86.3267 87.7712 79.8077C91.1763 78.3501 94.6159 76.9269 97.9635 75.3316C102.979 72.9443 108.144 69.8914 107.995 63.8888C107.834 57.496 105.153 50.9196 102.945 45.0203C100.632 38.8456 97.9405 32.8431 95.4787 26.7257C94.3743 21.4233 91.6479 16.4192 89.2782 11.6447ZM65.8565 10.5773C61.5541 12.2645 57.2747 13.9975 53.0068 15.765C53.3864 14.8468 54.8589 13.7106 56.711 12.7121C56.849 12.6891 56.9756 12.6203 57.0561 12.5284C58.31 11.8742 59.702 11.3004 61.0249 10.8987C61.163 10.9216 61.3125 10.8757 61.4276 10.7839C63.2912 10.256 64.9707 10.0953 65.8565 10.5888V10.5773ZM31.2762 24.9927C30.1373 23.6613 27.4455 24.2122 25.3288 24.8894C24.489 22.1004 24.1094 19.4262 25.3978 16.6717C27.3994 12.3678 32.1965 10.0838 36.2688 8.30483C40.2491 6.57178 44.3445 5.43554 48.7159 6.06678C52.1785 6.57178 54.2492 9.1771 55.8367 12.012C53.8466 13.0679 51.7069 14.5829 51.7644 16.2585C44.9082 19.1163 38.0864 22.043 31.2762 24.9812V24.9927ZM23.7297 25.4632C23.7297 25.2107 23.5802 24.9582 23.2696 24.9008C22.2342 24.6943 21.1989 24.4303 20.1636 24.2352C20.1061 23.9712 20.037 23.7072 19.991 23.4432C21.2794 23.7761 22.5794 24.0515 23.8793 24.3499C23.9253 24.3499 23.9598 24.3499 23.9943 24.3499C24.0749 24.6598 24.1669 24.9697 24.2589 25.2796C24.0749 25.3485 23.9023 25.4058 23.7412 25.4747L23.7297 25.4632ZM19.6229 21.056C20.9113 21.4692 22.2112 21.8709 23.5457 22.1463C23.5917 22.4792 23.6377 22.812 23.7067 23.1334C22.4988 22.8694 21.2794 22.6169 20.083 22.2955C19.968 22.2611 19.876 22.2726 19.7724 22.2955C19.7034 21.8823 19.6574 21.4692 19.6229 21.056ZM56.55 10.9675C56.55 10.9675 56.665 11.0249 56.7455 11.0249C57.0561 11.0594 57.3667 11.1053 57.6773 11.1512C57.4242 11.2545 57.1482 11.3807 56.8606 11.5184C56.757 11.3348 56.6535 11.1512 56.55 10.9675ZM20.083 16.4881C21.9927 10.8528 28.6418 6.44553 33.7495 4.12714C39.3633 1.5792 46.9903 0.0871701 52.9838 2.22193C55.1465 2.9909 56.6995 4.5977 58.0109 6.42258C56.9756 5.95201 55.9288 5.51588 54.8474 5.16009C54.1457 4.93054 53.7085 5.99792 54.4103 6.22746C55.6297 6.61769 56.803 7.11121 57.9649 7.66211C58.287 7.81132 58.5631 7.63916 58.6666 7.38666C58.8852 7.7195 59.1038 8.05234 59.3109 8.38518C58.2985 8.09825 57.2862 7.81132 56.2854 7.48995C55.5836 7.26041 55.1465 8.32779 55.8482 8.55733C57.2747 9.01642 58.7357 9.38369 60.1621 9.8313C60.1621 9.8313 60.1736 9.8313 60.1851 9.8313C60.2312 9.91164 60.2772 9.99198 60.3347 10.0723C60.0816 10.1641 59.84 10.256 59.61 10.3478C59.5409 10.2904 59.4489 10.2445 59.3454 10.233C58.5286 10.1182 57.7233 9.95755 56.8951 9.88869C56.4809 9.85425 56.2624 10.1986 56.2739 10.5085C54.8359 8.17859 53.0873 6.2619 50.3494 5.29781C46.0585 3.7943 40.8818 5.11418 36.867 6.80132C32.2425 8.74097 27.2154 11.0249 24.6615 15.6617C24.5235 15.9142 24.42 16.1667 24.3049 16.4192C23.6377 16.2585 22.9935 16.0405 22.3378 15.8453C21.6361 15.6388 21.1874 16.7061 21.9006 16.9127C22.5679 17.1078 23.2236 17.3144 23.8908 17.4866C23.7873 17.8194 23.6952 18.1408 23.6377 18.4736C22.8209 18.2556 22.0157 18.026 21.2219 17.7735C20.5202 17.5554 20.083 18.6113 20.7848 18.8409C21.6821 19.1163 22.5794 19.3688 23.4767 19.6099C23.4421 20.0575 23.4306 20.4936 23.4536 20.9412C22.2227 20.6658 21.0149 20.2985 19.8185 19.9083C19.7379 19.8853 19.6574 19.8738 19.5769 19.8853C19.5769 18.7491 19.7034 17.6243 20.083 16.4881ZM20.4627 25.4518C21.1644 25.601 21.8661 25.7502 22.5564 25.8994C22.0387 26.1059 21.4175 26.3584 20.7733 26.6798C20.6697 26.2666 20.5662 25.8649 20.4627 25.4518ZM20.5202 27.9882C20.6697 27.9653 20.8078 27.8964 20.8883 27.7816C22.1077 27.1159 23.4997 26.5306 24.8341 26.083C24.9606 26.083 25.0987 26.0486 25.2137 25.9682C27.3074 25.314 29.217 25.0615 30.0913 25.5091C29.1825 25.8994 28.2737 26.2896 27.3649 26.6798C23.9828 28.1374 20.6237 29.6065 17.2646 31.0985C17.4717 30.1 18.7946 28.9752 20.5202 27.9882ZM3.78222 50.8852C2.74688 48.0159 -0.117552 43.0922 1.86109 40.2229C2.91944 38.6964 5.08215 37.9504 6.66966 37.1814C9.5456 35.7927 12.3755 34.2433 15.2975 32.9349C20.5662 30.5706 25.7429 27.9882 31.0691 25.7502C31.0921 25.7502 31.1036 25.7387 31.1152 25.7272C38.2245 22.7431 45.3223 19.7476 52.4316 16.7635C52.4316 16.7635 52.4431 16.7635 52.4546 16.7635C57.2057 14.7665 62.0948 13.1023 66.8803 11.1971C70.1589 9.88869 73.4835 8.72949 76.7966 7.50143C78.4071 6.90462 80.1442 6.17008 81.8582 5.92906C85.919 5.33224 87.2305 10.0953 88.6569 12.9646C90.486 16.6487 92.3151 20.3559 93.6151 24.2811C94.6159 27.3225 95.1336 30.4788 94.5469 33.6579C93.8221 37.5487 90.9462 40.6016 88.0933 43.1496C87.5986 42.6101 86.9084 42.2314 86.0916 42.174C86.0111 42.1511 85.9191 42.1396 85.8155 42.1625C85.712 42.1625 85.6315 42.1855 85.5739 42.2314C85.3784 42.2773 85.1713 42.3232 84.9757 42.3806C84.0784 40.4295 83.1581 38.2947 81.7432 36.6879C80.6503 35.4369 77.6594 36.9289 76.463 37.5028C75.4046 38.0078 74.4498 38.662 74.933 39.8786C75.7727 42.0248 76.6355 44.1596 77.5098 46.2828C77.4408 46.3288 77.3833 46.3632 77.3142 46.4091C76.3939 46.9829 75.7957 47.465 75.9683 48.6357C76.0718 49.3702 76.509 50.0703 77.0957 50.5868C70.9412 53.8463 64.4645 56.4057 58.0454 59.1029C51.4998 61.8574 44.9887 64.7726 38.213 66.9303C38.167 66.1843 37.9024 65.4153 37.6493 64.9103C37.1316 63.9233 36.2918 63.9233 35.337 64.1184C35.1645 64.1528 34.9804 64.1987 34.8079 64.2332C33.8876 62.1214 32.9558 60.021 32.0124 57.9322C31.4603 56.7041 30.3559 57.0025 29.24 57.3698C27.9056 57.7945 24.9721 58.9192 24.9721 60.5719C24.9721 62.6378 26.019 64.9103 26.8012 66.8614C26.6172 66.9647 26.4446 67.068 26.2721 67.1828C26.203 67.2057 26.1225 67.2402 26.0535 67.3205C25.9615 67.3779 25.9155 67.4582 25.8694 67.5271C25.3633 68.1354 25.1447 68.8929 25.1907 69.6274C21.613 69.8685 18.1504 69.7422 14.8488 68.1813C11.8118 66.7467 9.74117 63.8774 8.13064 61.054C6.31305 57.8518 5.05914 54.3628 3.81673 50.9081L3.78222 50.8852ZM95.9618 30.9264C96.583 32.4299 97.2157 33.9334 97.8369 35.4369C96.9512 35.4025 96.0769 35.391 95.1911 35.4139C95.6972 34.0137 95.9733 32.5217 95.9503 30.9264H95.9618ZM85.9536 43.2758C86.2182 43.2758 86.4942 43.3676 86.7588 43.5168C86.4022 43.4594 86.0341 43.4021 85.6775 43.3447C85.7695 43.3217 85.8615 43.2873 85.9536 43.2758ZM78.4761 45.6401C77.8434 44.1022 77.2222 42.5642 76.6125 41.0263C76.3939 40.4869 76.1869 39.9474 75.9683 39.408C75.7957 38.9604 76.3939 38.7882 76.8886 38.5357C77.7629 38.0767 78.7292 37.7782 79.684 37.5487C80.5928 37.3306 80.7999 37.2847 81.3176 38.0078C82.3529 39.4424 83.1121 41.1066 83.8599 42.7249C81.9963 43.448 80.1442 44.5842 78.4761 45.6401ZM78.1885 47.0748C80.1212 47.1895 82.0193 47.5912 83.9404 47.8552C83.8944 47.8782 83.8599 47.9011 83.8139 47.9126C83.6758 47.9815 83.5033 48.0733 83.3192 48.1651C83.3192 48.1651 83.3192 48.1651 83.2962 48.1651C81.4211 48.0733 79.592 47.7634 77.7514 47.4076C77.8779 47.2814 78.0275 47.1666 78.1885 47.0633V47.0748ZM80.5123 49.5997C80.4318 49.5194 80.3282 49.5997 80.1787 49.5997C79.1548 49.5768 78.2 49.0718 77.2452 49.0718C77.2452 49.0718 77.1992 48.7275 77.1992 48.6242C78.6142 48.8996 80.0406 49.0833 81.4786 49.244C81.168 49.3932 80.8459 49.4735 80.5238 49.5997H80.5123ZM80.5928 50.7934C81.3175 50.4376 82.0193 50.0244 82.4679 49.8178C83.6643 49.2784 84.8492 48.693 86.0111 48.0962C86.8854 50.3802 87.7366 52.6756 88.5189 54.994C88.795 55.8319 89.0711 56.6812 89.2321 57.542C89.3357 58.1273 88.0818 58.5749 87.7021 58.7815C87.0119 59.1373 86.2642 59.4472 85.5049 59.6538C84.4121 59.9522 84.0209 58.4946 83.6068 57.7371C82.4219 55.5105 81.4326 53.1806 80.5928 50.8049V50.7934ZM86.3102 46.1107C86.0801 46.2025 85.9536 46.5698 85.735 46.6845C83.7563 46.5468 81.8697 46.2369 79.9026 45.9844C80.2017 45.8352 80.5123 45.7664 80.7309 45.6401C80.7424 45.6401 80.7769 45.6401 80.7884 45.6401C80.8574 45.6975 80.8574 45.5253 80.9724 45.5368C82.8015 45.7205 84.9067 46.696 86.3332 46.0877C86.3332 46.0877 86.3217 46.0877 86.3102 46.0877V46.1107ZM87.7021 45.5942C85.9306 45.2614 84.159 45.0089 82.3644 44.8023C82.7325 44.5957 83.1121 44.3891 83.4918 44.194C83.5378 44.2169 83.5838 44.2399 83.6413 44.2399C85.0218 44.3776 86.3792 44.6416 87.7366 44.8711C87.7827 45.1122 87.7827 45.3647 87.6906 45.5942H87.7021ZM38.5351 76.0432C38.8342 76.904 39.1103 77.7762 39.3058 78.66C39.4669 79.3601 37.4882 79.9569 37.0396 80.1291C36.3954 80.3816 35.7167 80.5767 35.0264 80.6914C34.4512 80.7833 33.807 79.1076 33.623 78.7633C32.3576 76.4449 31.2532 74.0347 30.1488 71.6474C31.2417 71.2801 32.323 70.8784 33.3929 70.4653C34.1406 70.1898 35.0149 69.9258 35.8317 69.5815C36.8555 71.6819 37.7643 73.8281 38.5351 76.0432ZM26.7322 68.2043C26.8127 68.1469 26.8933 68.101 26.9738 68.0551C26.7782 68.3305 26.5827 68.5945 26.3986 68.8699C26.4676 68.606 26.5712 68.3649 26.7322 68.2043ZM36.5909 65.553C36.6485 65.6334 36.706 65.7252 36.7635 65.84C36.3379 66.7696 35.9007 67.6534 35.1875 68.3994C35.0954 68.5027 35.0609 68.606 35.0494 68.7093C34.7388 68.847 34.4282 68.9618 34.1061 69.0765C34.9919 67.9403 35.7972 66.7581 36.5794 65.553H36.5909ZM32.093 69.7193C32.093 69.7193 32.0355 69.7422 32.0124 69.7537C31.8169 69.8225 31.6213 69.8914 31.4258 69.9603C32.5416 68.4453 33.5654 66.8614 34.7733 65.4268C34.7848 65.4268 34.7964 65.4268 34.8079 65.4268C35.0149 65.3694 35.2105 65.3235 35.3945 65.2891C34.3707 66.827 33.3124 68.342 32.093 69.7307V69.7193ZM27.7906 66.3105C27.2039 64.7496 26.6287 63.1658 26.2491 61.5475C26.065 60.7785 25.95 60.4801 26.6057 59.9981C27.4224 59.3898 28.3427 58.9422 29.2745 58.5634C29.6082 58.4257 30.747 58.001 30.8506 58.2306C31.0576 58.7012 31.2762 59.1602 31.4833 59.6308C32.208 61.2491 32.9212 62.8674 33.6345 64.4971C31.7018 64.9333 29.5967 65.4956 27.8021 66.3335L27.7906 66.3105ZM28.9985 67.2287C28.9985 67.2287 29.0445 67.1484 29.0675 67.1025C29.4701 66.9647 29.8727 66.85 30.2754 66.7237C29.1825 68.1354 28.1242 69.5815 27.1349 71.0736C26.9048 70.9817 26.7092 70.8211 26.5827 70.603C27.3764 69.4668 28.1357 68.3076 29.01 67.2172L28.9985 67.2287ZM31.9089 66.4597C31.9779 66.3794 32.0124 66.2876 32.0239 66.1958C32.3 66.1154 32.5761 66.0351 32.8522 65.9547C31.6903 67.5042 30.655 69.1569 29.4011 70.6374C29.2745 70.6833 29.148 70.7292 29.0215 70.7752C28.9064 70.8096 28.7914 70.844 28.6648 70.8784C29.7002 69.3749 30.77 67.8944 31.9089 66.4597ZM106.039 68.0895C103.681 71.6589 98.9413 73.6559 95.099 75.366C79.1088 82.4704 62.9115 89.1731 46.7142 95.7954C43.6082 97.0694 40.5712 98.3204 37.3157 99.1697C34.4973 99.9043 30.9656 100.731 28.4348 98.9057C26.5597 97.5514 25.1677 95.4855 23.8908 93.5918C18.3345 85.3053 14.7108 75.8251 10.811 66.6434C11.5127 67.332 12.272 67.9747 13.1118 68.5371C16.7009 70.9244 21.1874 71.0506 25.3518 70.7522C25.3863 70.8555 25.4553 70.9473 25.5358 71.0162C26.065 71.9344 27.0658 72.5197 28.3773 72.1639C28.5843 72.1065 28.7914 72.0376 29.01 71.9803C30.4134 75.0102 31.7594 78.132 33.5655 80.9554C34.4282 82.2982 35.7627 81.7588 37.0511 81.3342C38.236 80.9439 40.7208 80.152 40.4217 78.5108C39.835 75.2742 38.328 72.0262 36.844 69.088C37.1201 68.9273 37.3847 68.7552 37.6148 68.5601C37.7298 68.4682 37.8218 68.342 37.9024 68.2272C43.8498 66.3794 49.5787 63.9233 55.296 61.4901C57.1597 61.7197 58.9772 62.1443 60.7948 62.6264C61.5081 62.81 61.9452 61.7541 61.232 61.559C59.9321 61.2147 58.6551 60.9622 57.3322 60.7097C57.5393 60.6293 57.7694 60.6064 57.9764 60.526C58.103 60.4686 58.2295 60.4227 58.356 60.3653C58.3906 60.3539 58.4941 60.4342 58.6321 60.4457C60.4612 60.6982 62.2328 61.1228 64.0389 61.4786C64.7636 61.6278 64.9017 60.4686 64.1769 60.3194C62.808 60.044 61.4391 59.7341 60.0701 59.4816C61.2435 58.9881 62.4169 58.4946 63.6018 58.001C63.6593 58.0355 63.7283 58.0699 63.8088 58.0929C65.6609 58.4831 67.49 58.9651 69.3191 59.4586C70.0209 59.6538 70.4695 58.5864 69.7563 58.3913C68.2838 58.001 66.8113 57.6223 65.3388 57.278C69.6067 55.4761 73.8401 53.5938 77.9239 51.4017C78.0045 51.3558 78.0735 51.2984 78.1195 51.2295C78.2115 51.2639 78.3036 51.2984 78.3956 51.3213C78.7062 51.4017 79.0858 51.3328 79.5 51.218C80.5813 54.248 81.8812 57.2436 83.5493 59.9981C84.5156 61.5819 86.3677 60.6408 87.7251 60.0325C88.864 59.516 90.5091 58.8618 90.348 57.3928C89.9799 54.0988 88.2428 50.6442 87.0234 47.5568C87.173 47.4765 87.3225 47.4076 87.4606 47.3273C88.6569 46.6501 88.9906 45.5024 88.749 44.4694C88.772 44.3432 88.749 44.2169 88.6915 44.1022C89.7153 43.184 90.7161 42.2199 91.6134 41.187C91.6364 41.187 91.6479 41.2099 91.6709 41.2099C93.5345 41.692 95.4442 41.8641 97.3308 42.1855C98.067 42.3117 98.2051 41.164 97.4803 41.0492C95.8008 40.7738 94.0982 40.5902 92.4302 40.2114C92.7408 39.8212 93.0399 39.408 93.316 38.9948C94.9725 39.2818 96.6521 39.3965 98.3201 39.5228C99.0563 39.5802 99.2059 38.4439 98.4697 38.3865C96.9742 38.2718 95.4672 38.1455 93.9832 37.9274C94.2363 37.4913 94.4778 37.0437 94.6849 36.5846C95.7548 36.5387 96.8361 36.5731 97.906 36.6076C98.0325 36.6076 98.136 36.5731 98.2281 36.5158C100.839 42.7938 103.382 49.0948 105.257 55.6482C106.212 59.011 108.167 64.83 106.016 68.101L106.039 68.0895Z" fill="#DAB95B"/>
</svg>
