<svg width="99" height="99" viewBox="0 0 99 99" fill="none" xmlns="http://www.w3.org/2000/svg">
<path d="M92.1086 38.3973C92.0856 38.3285 92.0626 38.2596 92.028 38.2137C91.8325 37.7661 91.6254 37.33 91.4298 36.8938C90.0034 33.8065 88.4389 30.7765 86.7708 27.8154C86.7478 27.7236 86.7018 27.6547 86.6443 27.5973C86.2072 26.8283 85.77 26.0594 85.3098 25.3019C82.4224 20.447 79.9146 15.3741 76.5324 10.8292C75.8767 9.9569 75.1751 9.13055 74.4388 8.32714C74.4043 8.28123 74.3698 8.22386 74.3122 8.18942C71.3443 5.01024 67.7091 2.57707 63.2917 1.83105C58.9433 1.09651 54.9744 2.88696 52.2595 5.99728C50.1889 4.00025 47.9111 1.5097 45.1157 0.511183C42.2513 -0.521764 39.4329 0.17832 36.6489 1.13093C34.0376 2.02615 30.5059 2.99024 29.0335 5.54965C27.7796 7.74179 28.7229 11.139 28.5618 13.5378C28.5618 13.6411 28.5733 13.7214 28.6078 13.8017C26.7557 14.3871 24.9497 15.1102 23.2471 16.0054C21.2225 17.0613 19.3933 18.473 17.7713 20.0683C17.6908 20.1486 17.6563 20.229 17.6333 20.3093C15.4361 21.7669 13.4689 23.6147 11.8584 25.8757C3.66769 37.33 4.44995 54.7868 7.83205 67.756C7.83205 67.8019 7.86655 67.8364 7.88955 67.8708C4.36941 69.4432 1.45893 71.8648 0.389083 75.7556C-0.427683 78.7397 -0.140045 81.9418 3.02349 83.1239C3.28807 83.2272 3.55268 83.3076 3.82877 83.3764C3.71373 83.5027 3.6332 83.6749 3.67921 83.8814C4.48447 88.1395 3.6447 94.1306 6.84274 97.5508C7.82056 98.5837 9.17796 98.4689 10.4664 98.2968C13.3538 97.9066 16.2068 97.2753 19.0712 96.7818C28.999 95.0373 39.6629 99.2264 49.2341 94.9684C50.741 94.2913 51.8799 93.3387 52.7542 92.2139C52.8462 92.2483 52.9498 92.2713 53.0648 92.2483C54.5373 91.9958 55.9638 91.6171 57.3097 91.1006C57.4363 91.1924 57.5973 91.2498 57.7929 91.2039C63.7403 89.7922 69.7107 88.3231 75.3821 86.0047C79.1208 84.4783 82.7445 82.5157 84.4355 78.8659C88.0937 77.6379 91.5679 77.0869 94.4784 74.2635C97.1242 71.6927 98.1825 67.997 98.4931 64.4276C99.2639 55.6017 95.7437 46.4199 92.1315 38.4203L92.1086 38.3973ZM91.3723 64.6342C90.8662 67.997 89.1406 70.4991 85.4134 71.1303C85.0338 67.5265 83.8374 63.8882 82.7675 60.732C80.9154 55.2344 78.5341 49.9779 76.8891 44.4114C75.083 38.2941 73.2885 32.1423 70.1249 26.5644C68.4684 23.6492 66.3056 21.2849 63.7748 19.3338C63.9014 19.2764 63.9934 19.1501 64.0279 18.9665C64.4535 16.6022 64.6145 14.1002 65.4543 11.8392C67.9046 12.5852 70.0443 14.7199 71.8734 17.0498C71.8734 17.1187 71.8735 17.1875 71.885 17.2564C71.9195 17.5892 72.1725 17.7614 72.4371 17.7958C73.5645 19.2993 74.5538 20.8373 75.4166 22.0883C75.7502 22.5703 76.0493 23.0868 76.3829 23.5803C76.3944 23.7984 76.5209 23.9476 76.6705 24.0279C78.327 26.5873 79.8801 29.2041 81.3181 31.9013C81.3181 32.1078 81.3181 32.303 81.3411 32.5095C81.3526 32.8653 81.6402 33.049 81.9163 33.0605C83.1587 35.4592 84.332 37.8924 85.4134 40.36C85.4364 40.8879 85.4824 41.4044 85.5514 41.9209C85.6089 42.3111 85.954 42.4029 86.2531 42.2881C87.1849 44.5032 88.4734 47.7054 89.5318 51.1829C89.4167 51.929 89.3362 52.6865 89.3017 53.4325C89.2672 54.0063 89.9574 54.1326 90.2795 53.8112C90.9697 56.4625 91.4529 59.1481 91.5219 61.6157C91.1768 62.4535 90.8087 63.2684 90.383 64.0489C90.0264 64.6916 91.0042 65.2655 91.3723 64.6342ZM76.3944 21.48C76.3024 21.3537 76.2219 21.2275 76.1414 21.1013C75.2326 19.7699 74.1857 18.1975 73.0123 16.6825C72.8052 14.1461 73.0008 11.5522 72.9893 9.00429C73.2194 9.06168 73.4495 9.11907 73.668 9.18793C74.5998 10.2324 75.4626 11.3342 76.2679 12.4589C76.6015 15.4545 76.4404 18.4844 76.3944 21.5029V21.48ZM71.7699 15.156C70.0674 13.2049 68.1232 11.5293 65.926 10.8062C67.1684 8.6026 69.5267 8.37306 71.839 8.76328C71.862 10.8866 71.7239 13.0328 71.7699 15.1675V15.156ZM90.6706 51.2174C91.1308 47.9808 92.0741 44.7672 92.2351 41.5191C93.305 44.0441 94.2943 46.638 95.111 49.2662C94.2943 52.4454 93.5236 55.9574 92.4077 59.2399C92.0971 56.5772 91.4298 53.7997 90.6591 51.2174H90.6706ZM91.1537 38.7646C91.1537 42.1504 90.6706 45.5247 90.0034 48.8875C89.0601 46.0641 88.0477 43.608 87.392 41.9897C87.1159 41.324 86.8168 40.6698 86.5407 40.0156C86.3912 36.825 86.9779 33.6228 86.9548 30.4322C88.0822 32.6014 89.2211 34.7706 90.245 36.9398C90.5326 37.548 91.1537 38.1563 91.1537 38.7646ZM85.6895 28.0679C85.6895 28.0679 85.678 28.1482 85.6895 28.2056C86.1381 31.3274 85.6204 34.4607 85.4479 37.594C84.5161 35.5625 83.5268 33.554 82.4799 31.5684C82.3649 28.3089 82.3879 25.0494 82.1808 21.8013C83.3887 23.8672 84.5621 25.9561 85.6895 28.0679ZM80.8924 19.5977C80.8924 19.5977 80.8809 19.6666 80.8809 19.7125C81.2145 22.9261 81.203 26.1283 81.2606 29.3419C80.0872 27.253 78.8562 25.1986 77.5448 23.1901C77.5218 20.2404 77.7289 17.2679 77.5793 14.3182C77.6254 14.3871 77.6598 14.4445 77.7059 14.5133C78.7987 16.166 79.8571 17.8761 80.8924 19.5977ZM64.4535 3.23127C67.456 3.88547 70.0098 5.54967 72.2185 7.64999C69.7107 7.19091 66.7198 7.29417 65.1207 9.55518C63.2801 12.1605 63.5678 15.6496 62.4174 18.6796C61.267 17.44 59.0353 16.3841 57.0106 15.4889C54.7674 14.4904 52.5241 13.7214 50.0738 13.1475C51.1667 6.16941 57.4592 1.69333 64.4535 3.23127ZM45.1618 1.77365C47.6005 2.82955 49.5907 5.01024 51.4658 6.82364C51.5003 6.85807 51.5348 6.86954 51.5694 6.8925C50.9942 7.67294 50.4765 8.52223 50.0508 9.41746C49.9703 9.58961 49.9128 9.76178 49.8438 9.93394C48.3368 5.96284 45.4839 3.42636 41.7912 1.16536C42.93 1.13092 44.0574 1.2916 45.1733 1.77365H45.1618ZM29.8042 6.84658C30.3679 3.87399 35.303 2.81807 37.7188 1.99171C38.6736 1.65888 39.6515 1.40641 40.6293 1.26868C40.5372 1.49823 40.5718 1.78515 40.8594 1.94583C44.9317 4.37899 47.9686 7.0302 49.2341 11.7473C49.2341 11.7818 49.2685 11.8047 49.28 11.8277C49.1995 12.1835 49.142 12.5392 49.0845 12.895C47.3014 12.5278 45.4954 12.2868 43.6663 12.149C45.0697 9.13053 45.4148 5.33159 41.9637 3.58706C38.5356 1.85401 34.4633 3.96579 32.2315 6.61702C32.0705 6.81213 31.9899 7.0876 32.1395 7.31715C33.3244 9.10759 34.9004 10.5308 36.6145 11.8047C37.2127 12.2523 37.7879 11.2538 37.1897 10.8177C35.7517 9.75029 34.4172 8.53374 33.3704 7.07613C35.28 4.99876 38.0064 3.61001 40.8708 4.40193C44.3334 5.36601 43.7813 9.16498 42.5964 11.7014C42.2052 11.5408 41.8257 11.3916 41.4345 11.2309C42.1363 9.49782 41.7106 8.13201 41.1584 6.2268C40.9513 5.51521 39.847 5.82512 40.0541 6.53671C40.5487 8.23533 41.0779 9.53223 40.1691 11.2538C40.008 11.5637 40.1346 11.8621 40.3992 12.0228C36.7755 12.0228 33.1633 12.5048 29.7352 13.4689C29.8617 11.2768 29.4016 8.9928 29.8042 6.83509V6.84658ZM1.28641 77.2706C2.09167 68.1118 15.0794 66.6656 22.0507 66.0115C29.6777 65.2999 37.3507 65.6442 44.9892 65.2654C44.5175 65.6786 44.1034 66.1836 43.8043 66.7231C41.4921 70.8319 45.1618 78.5675 39.6284 80.5646C34.8889 82.2747 29.321 80.1399 24.4204 80.4613C19.5774 80.7711 14.8148 81.9188 9.99476 82.3779C7.92409 82.573 5.7844 82.6649 3.74823 82.1713C1.24041 81.5631 1.10236 79.4857 1.29792 77.2935L1.28641 77.2706ZM48.5898 67.2395C48.0032 66.7345 47.3935 66.264 46.6687 65.9541C45.99 65.6672 45.4033 66.6542 46.0936 66.9411C46.8298 67.251 47.428 67.733 48.0147 68.238C47.6811 68.9955 47.451 69.8563 47.2554 70.763C46.9103 70.4761 46.4847 70.1662 46.2891 69.776C45.9555 69.1103 44.9662 69.6956 45.2998 70.3613C45.5069 70.7745 45.898 71.0959 46.2431 71.4057C46.4962 71.6238 46.7493 71.8304 47.0138 72.037C46.8068 73.0814 46.5767 74.0914 46.2201 74.9522C45.4723 74.3209 44.7361 73.6897 43.9883 73.0585C43.9883 73.0585 43.9768 73.0585 43.9653 73.0585C43.9653 69.753 44.0459 66.3443 47.2899 65.254C48.4633 64.8638 49.4066 65.3114 50.1543 66.1492C49.5101 66.3788 48.9925 66.7575 48.6129 67.2625L48.5898 67.2395ZM43.9424 74.5275C44.506 75.0096 45.0697 75.4801 45.6334 75.9622C45.1962 76.559 44.5865 76.9607 43.7583 77.0984C43.8963 76.318 43.9309 75.4457 43.9424 74.5275ZM22.0047 95.2209C17.5642 95.5882 13.1353 97.3671 8.6718 97.2868C4.89857 97.2179 5.26668 86.131 4.78353 83.606C8.56826 84.2831 13.0663 83.1813 16.6325 82.6304C21.8782 81.827 26.5026 81.5172 31.7714 81.9992C35.0614 82.2976 39.5019 82.6534 41.9982 80.4039C42.8035 85.3964 44.0114 90.2169 45.967 94.8995C45.99 94.9569 46.0245 95.0028 46.059 95.0488C38.5356 97.3901 29.5856 94.5897 21.9932 95.2209H22.0047ZM49.1535 93.7289C48.4863 94.1076 47.7961 94.406 47.0944 94.67C47.0944 94.647 47.0944 94.6241 47.0829 94.5897C45.0237 89.643 43.7813 84.5356 42.976 79.2561C42.976 79.2561 42.976 79.2447 42.976 79.2332C43.1486 78.9463 43.2981 78.6249 43.4247 78.2806C43.4592 78.2806 43.4937 78.2921 43.5397 78.2921C44.9201 78.1543 45.8175 77.4198 46.4617 76.4328C46.8643 76.3868 47.1749 75.9507 46.9333 75.5949C47.1404 75.1588 47.313 74.6997 47.474 74.2177C47.6121 73.816 47.7271 73.288 47.8536 72.7256C47.8536 72.7256 47.8766 72.7486 47.8881 72.7486C48.4518 73.2192 49.2685 72.4157 48.7049 71.9337C48.5093 71.773 48.3252 71.6238 48.1297 71.4631C48.3367 70.5794 48.5783 69.6612 48.9465 68.9037C49.4296 68.9726 49.8783 68.4102 49.4872 68.0085C49.8438 67.5494 50.2924 67.228 50.8561 67.0903C51.8685 68.7889 52.4321 71.1073 52.7197 72.3125C53.6745 76.2721 53.9276 80.4383 53.824 84.4897C53.7205 88.4953 52.9498 91.5941 49.1766 93.7174L49.1535 93.7289ZM54.3187 74.6653C53.824 71.3943 53.0188 67.2051 50.3959 64.8867C50.1659 64.6801 49.9243 64.5194 49.6712 64.3932C49.6942 64.0948 49.5102 63.7849 49.1306 63.8193C39.2948 64.7375 29.3901 63.9685 19.5659 65.1048C16.2988 65.4835 12.399 66.0918 8.94788 67.4346C6.08345 56.4165 5.65782 43.9868 9.46556 33.1523C11.3637 27.7236 14.8263 22.9146 19.9225 20.1142C25.2487 17.1875 31.9324 17.0842 37.5463 19.1386C48.7969 23.2589 55.5726 35.7576 59.3689 46.3396C61.175 51.3781 62.0838 56.5313 63.0616 61.7649C64.0394 66.9411 65.1897 72.1288 65.0977 77.4198C64.9712 84.9373 60.6228 89.4938 53.5364 90.9743C56.0558 86.349 55.0664 79.5431 54.3187 74.6538V74.6653ZM73.6795 85.4538C69.4807 87.1065 65.0863 88.2657 60.6918 89.3331C62.2103 88.2657 63.5217 86.8999 64.488 85.1324C66.6277 81.2187 66.4321 76.318 65.9605 72.037C65.4198 67.1247 64.2464 62.3043 63.4527 57.4265C62.5899 52.147 60.9909 46.9249 58.8972 42.0012C54.8709 32.544 48.4173 22.249 38.4091 18.2664C33.0253 16.1202 27.2389 16.1316 22.1312 18.0139C22.6029 17.704 23.0975 17.4056 23.5922 17.1187C30.7015 14.9495 37.8684 15.3397 45.1733 16.0168C51.0402 16.5563 56.0098 18.7254 60.3007 22.7195C69.3886 31.1897 72.0805 42.6209 74.7839 54.2818C74.9565 55.0048 76.0608 54.695 75.8882 53.9719C74.4158 47.6135 73.0238 41.1174 70.447 35.0919C68.0657 29.5255 64.5686 24.9691 60.0591 20.9406C56.0903 17.3941 51.3278 15.6381 46.1051 14.9495C40.5488 14.2264 34.8429 13.928 29.2866 14.697C36.5455 12.5048 44.8051 12.8951 51.8339 14.7773C57.8619 16.3841 63.6368 19.5174 67.4445 24.5559C71.2293 29.5714 73.1389 35.8609 74.922 41.7946C76.4405 46.8561 78.1545 51.7224 80.0641 56.6461C82.2153 62.2011 84.3666 68.1233 84.2745 74.1603C84.171 80.6334 79.0518 83.3076 73.6795 85.4194V85.4538ZM93.9722 73.1158C91.5449 75.8704 88.2433 76.4901 84.9647 77.4886C85.4594 75.8244 85.5975 74.057 85.5054 72.2665C85.5399 72.2665 85.5629 72.2665 85.6089 72.2665C91.0502 71.4172 92.7183 67.1477 92.6263 61.983C94.0067 58.6546 94.904 54.9475 95.7668 51.4699C96.7331 55.0393 97.3428 58.6775 97.4003 62.3273C97.4578 66.1951 96.5835 70.1433 93.9722 73.1044V73.1158Z" fill="#C78B5F"/>
</svg>
