<svg width="16" height="16" viewBox="0 0 16 16" fill="none" xmlns="http://www.w3.org/2000/svg">
<path d="M2 3.49433H0.5V13.9745C0.5 14.7979 1.175 15.4716 2 15.4716H12.5V13.9745H2V3.49433ZM14 0.5H5C4.175 0.5 3.5 1.17372 3.5 1.99716V10.9802C3.5 11.8036 4.175 12.4773 5 12.4773H14C14.825 12.4773 15.5 11.8036 15.5 10.9802V1.99716C15.5 1.17372 14.825 0.5 14 0.5ZM14 10.9802H5V1.99716H14V10.9802ZM6.5 5.74008H12.5V7.23724H6.5V5.74008ZM6.5 7.98582H9.5V9.48299H6.5V7.98582ZM6.5 3.49433H12.5V4.99149H6.5V3.49433Z" fill="#E74F0E"/>
</svg>
