<svg width="14" height="14" viewBox="0 0 14 14" fill="none" xmlns="http://www.w3.org/2000/svg">
<path d="M13.549 6.24852C14.2163 5.66943 13.8597 4.57289 12.9795 4.49699L9.94114 4.23499C9.5723 4.20318 9.2512 3.9702 9.10655 3.62941L7.92119 0.836855C7.57626 0.0242536 6.42445 0.0245683 6.07997 0.837357L4.89364 3.63641C4.7489 3.97791 4.42704 4.21125 4.05746 4.2426L1.02829 4.4996C0.146863 4.57438 -0.210548 5.67264 0.45805 6.25185L2.76045 8.24642C3.04101 8.48947 3.16386 8.86793 3.07953 9.22943L2.3884 12.192C2.18744 13.0534 3.12167 13.7324 3.87899 13.2753L6.48325 11.7035C6.80104 11.5117 7.19893 11.5117 7.51672 11.7035L10.1248 13.2776C10.8816 13.7344 11.8153 13.0567 11.6157 12.1956L10.9276 9.22811C10.844 8.8673 10.9666 8.48979 11.2463 8.24701L13.549 6.24852ZM7.48249 10.1251C7.18299 9.94397 6.99999 9.61943 6.99999 9.26941V5.34112C6.99999 4.62058 7.98899 4.41989 8.26985 5.08344C8.36529 5.30893 8.57756 5.4632 8.8215 5.48436L9.7222 5.5625C10.6022 5.63885 10.9583 6.73531 10.291 7.31415L9.76409 7.77126C9.48378 8.01442 9.36117 8.39281 9.4456 8.75416L9.60153 9.42156C9.80292 10.2835 8.86767 10.9628 8.11026 10.5048L7.48249 10.1251Z" fill="#F0C550"/>
</svg>
